<svg width="358" height="25" viewBox="0 0 358 25" fill="none" xmlns="http://www.w3.org/2000/svg">
<path d="M36.3984 15.8125V17H28.9531V15.9609L32.6797 11.8125C33.138 11.3021 33.4922 10.8698 33.7422 10.5156C33.9974 10.1562 34.1745 9.83594 34.2734 9.55469C34.3776 9.26823 34.4297 8.97656 34.4297 8.67969C34.4297 8.30469 34.3516 7.96615 34.1953 7.66406C34.0443 7.35677 33.8203 7.11198 33.5234 6.92969C33.2266 6.7474 32.8672 6.65625 32.4453 6.65625C31.9401 6.65625 31.5182 6.75521 31.1797 6.95312C30.8464 7.14583 30.5964 7.41667 30.4297 7.76562C30.263 8.11458 30.1797 8.51562 30.1797 8.96875H28.7344C28.7344 8.32812 28.875 7.74219 29.1562 7.21094C29.4375 6.67969 29.8542 6.25781 30.4062 5.94531C30.9583 5.6276 31.638 5.46875 32.4453 5.46875C33.1641 5.46875 33.7786 5.59635 34.2891 5.85156C34.7995 6.10156 35.1901 6.45573 35.4609 6.91406C35.737 7.36719 35.875 7.89844 35.875 8.50781C35.875 8.84115 35.8177 9.17969 35.7031 9.52344C35.5938 9.86198 35.4401 10.2005 35.2422 10.5391C35.0495 10.8776 34.8229 11.2109 34.5625 11.5391C34.3073 11.8672 34.0339 12.1901 33.7422 12.5078L30.6953 15.8125H36.3984ZM45.3984 15.8125V17H37.9531V15.9609L41.6797 11.8125C42.138 11.3021 42.4922 10.8698 42.7422 10.5156C42.9974 10.1562 43.1745 9.83594 43.2734 9.55469C43.3776 9.26823 43.4297 8.97656 43.4297 8.67969C43.4297 8.30469 43.3516 7.96615 43.1953 7.66406C43.0443 7.35677 42.8203 7.11198 42.5234 6.92969C42.2266 6.7474 41.8672 6.65625 41.4453 6.65625C40.9401 6.65625 40.5182 6.75521 40.1797 6.95312C39.8464 7.14583 39.5964 7.41667 39.4297 7.76562C39.263 8.11458 39.1797 8.51562 39.1797 8.96875H37.7344C37.7344 8.32812 37.875 7.74219 38.1562 7.21094C38.4375 6.67969 38.8542 6.25781 39.4062 5.94531C39.9583 5.6276 40.638 5.46875 41.4453 5.46875C42.1641 5.46875 42.7786 5.59635 43.2891 5.85156C43.7995 6.10156 44.1901 6.45573 44.4609 6.91406C44.737 7.36719 44.875 7.89844 44.875 8.50781C44.875 8.84115 44.8177 9.17969 44.7031 9.52344C44.5938 9.86198 44.4401 10.2005 44.2422 10.5391C44.0495 10.8776 43.8229 11.2109 43.5625 11.5391C43.3073 11.8672 43.0339 12.1901 42.7422 12.5078L39.6953 15.8125H45.3984ZM52.4922 5.60938H52.6172V6.83594H52.4922C51.7266 6.83594 51.0859 6.96094 50.5703 7.21094C50.0547 7.45573 49.6458 7.78646 49.3438 8.20312C49.0417 8.61458 48.8229 9.07812 48.6875 9.59375C48.5573 10.1094 48.4922 10.6328 48.4922 11.1641V12.8359C48.4922 13.3411 48.5521 13.7891 48.6719 14.1797C48.7917 14.5651 48.9557 14.8906 49.1641 15.1562C49.3724 15.4219 49.6068 15.6224 49.8672 15.7578C50.1328 15.8932 50.4089 15.9609 50.6953 15.9609C51.0286 15.9609 51.3255 15.8984 51.5859 15.7734C51.8464 15.6432 52.0651 15.4635 52.2422 15.2344C52.4245 15 52.5625 14.724 52.6562 14.4062C52.75 14.0885 52.7969 13.7396 52.7969 13.3594C52.7969 13.0208 52.7552 12.6953 52.6719 12.3828C52.5885 12.0651 52.4609 11.7839 52.2891 11.5391C52.1172 11.2891 51.901 11.0938 51.6406 10.9531C51.3854 10.8073 51.0807 10.7344 50.7266 10.7344C50.3255 10.7344 49.9505 10.8333 49.6016 11.0312C49.2578 11.224 48.974 11.4792 48.75 11.7969C48.5312 12.1094 48.4062 12.4505 48.375 12.8203L47.6094 12.8125C47.6823 12.2292 47.8177 11.7318 48.0156 11.3203C48.2188 10.9036 48.4688 10.5651 48.7656 10.3047C49.0677 10.0391 49.4036 9.84635 49.7734 9.72656C50.1484 9.60156 50.5443 9.53906 50.9609 9.53906C51.5286 9.53906 52.0182 9.64583 52.4297 9.85938C52.8411 10.0729 53.1797 10.3594 53.4453 10.7188C53.7109 11.0729 53.9062 11.474 54.0312 11.9219C54.1615 12.3646 54.2266 12.8203 54.2266 13.2891C54.2266 13.8255 54.151 14.3281 54 14.7969C53.849 15.2656 53.6224 15.6771 53.3203 16.0312C53.0234 16.3854 52.6562 16.6615 52.2188 16.8594C51.7812 17.0573 51.2734 17.1562 50.6953 17.1562C50.0807 17.1562 49.5443 17.0312 49.0859 16.7812C48.6276 16.526 48.2474 16.1875 47.9453 15.7656C47.6432 15.3438 47.4167 14.875 47.2656 14.3594C47.1146 13.8438 47.0391 13.3203 47.0391 12.7891V12.1094C47.0391 11.3073 47.1198 10.5208 47.2812 9.75C47.4427 8.97917 47.7214 8.28125 48.1172 7.65625C48.5182 7.03125 49.0729 6.53385 49.7812 6.16406C50.4896 5.79427 51.3932 5.60938 52.4922 5.60938ZM58.0547 10.6016H59.0859C59.5911 10.6016 60.0078 10.5182 60.3359 10.3516C60.6693 10.1797 60.9167 9.94792 61.0781 9.65625C61.2448 9.35938 61.3281 9.02604 61.3281 8.65625C61.3281 8.21875 61.2552 7.85156 61.1094 7.55469C60.9635 7.25781 60.7448 7.03385 60.4531 6.88281C60.1615 6.73177 59.7917 6.65625 59.3438 6.65625C58.9375 6.65625 58.5781 6.73698 58.2656 6.89844C57.9583 7.05469 57.7161 7.27865 57.5391 7.57031C57.3672 7.86198 57.2812 8.20573 57.2812 8.60156H55.8359C55.8359 8.02344 55.9818 7.4974 56.2734 7.02344C56.5651 6.54948 56.974 6.17188 57.5 5.89062C58.0312 5.60938 58.6458 5.46875 59.3438 5.46875C60.0312 5.46875 60.6328 5.59115 61.1484 5.83594C61.6641 6.07552 62.0651 6.4349 62.3516 6.91406C62.638 7.38802 62.7812 7.97917 62.7812 8.6875C62.7812 8.97396 62.7135 9.28125 62.5781 9.60938C62.4479 9.93229 62.2422 10.2344 61.9609 10.5156C61.6849 10.7969 61.3255 11.0286 60.8828 11.2109C60.4401 11.388 59.9089 11.4766 59.2891 11.4766H58.0547V10.6016ZM58.0547 11.7891V10.9219H59.2891C60.013 10.9219 60.612 11.0078 61.0859 11.1797C61.5599 11.3516 61.9323 11.5807 62.2031 11.8672C62.4792 12.1536 62.6719 12.4688 62.7812 12.8125C62.8958 13.151 62.9531 13.4896 62.9531 13.8281C62.9531 14.3594 62.862 14.8307 62.6797 15.2422C62.5026 15.6536 62.25 16.0026 61.9219 16.2891C61.599 16.5755 61.2188 16.7917 60.7812 16.9375C60.3438 17.0833 59.8672 17.1562 59.3516 17.1562C58.8568 17.1562 58.3906 17.0859 57.9531 16.9453C57.5208 16.8047 57.138 16.6016 56.8047 16.3359C56.4714 16.0651 56.2109 15.7344 56.0234 15.3438C55.8359 14.9479 55.7422 14.4974 55.7422 13.9922H57.1875C57.1875 14.388 57.2734 14.7344 57.4453 15.0312C57.6224 15.3281 57.8724 15.5599 58.1953 15.7266C58.5234 15.888 58.9089 15.9688 59.3516 15.9688C59.7943 15.9688 60.1745 15.8932 60.4922 15.7422C60.8151 15.5859 61.0625 15.3516 61.2344 15.0391C61.4115 14.7266 61.5 14.3333 61.5 13.8594C61.5 13.3854 61.401 12.9974 61.2031 12.6953C61.0052 12.388 60.724 12.1615 60.3594 12.0156C60 11.8646 59.5755 11.7891 59.0859 11.7891H58.0547ZM75.3516 14.125C75.3516 13.8594 75.3099 13.625 75.2266 13.4219C75.1484 13.2135 75.0078 13.026 74.8047 12.8594C74.6068 12.6927 74.3307 12.5339 73.9766 12.3828C73.6276 12.2318 73.1849 12.0781 72.6484 11.9219C72.0859 11.7552 71.5781 11.5703 71.125 11.3672C70.6719 11.1589 70.2839 10.9219 69.9609 10.6562C69.638 10.3906 69.3906 10.0859 69.2188 9.74219C69.0469 9.39844 68.9609 9.00521 68.9609 8.5625C68.9609 8.11979 69.0521 7.71094 69.2344 7.33594C69.4167 6.96094 69.6771 6.63542 70.0156 6.35938C70.3594 6.07812 70.7682 5.85938 71.2422 5.70312C71.7161 5.54688 72.2448 5.46875 72.8281 5.46875C73.6823 5.46875 74.4062 5.63281 75 5.96094C75.599 6.28385 76.0547 6.70833 76.3672 7.23438C76.6797 7.75521 76.8359 8.3125 76.8359 8.90625H75.3359C75.3359 8.47917 75.2448 8.10156 75.0625 7.77344C74.8802 7.4401 74.6042 7.17969 74.2344 6.99219C73.8646 6.79948 73.3958 6.70312 72.8281 6.70312C72.2917 6.70312 71.849 6.78385 71.5 6.94531C71.151 7.10677 70.8906 7.32552 70.7188 7.60156C70.5521 7.8776 70.4688 8.19271 70.4688 8.54688C70.4688 8.78646 70.5182 9.00521 70.6172 9.20312C70.7214 9.39583 70.8802 9.57552 71.0938 9.74219C71.3125 9.90885 71.5885 10.0625 71.9219 10.2031C72.2604 10.3438 72.6641 10.4792 73.1328 10.6094C73.7786 10.7917 74.3359 10.9948 74.8047 11.2188C75.2734 11.4427 75.6589 11.6953 75.9609 11.9766C76.2682 12.2526 76.4948 12.5677 76.6406 12.9219C76.7917 13.2708 76.8672 13.6667 76.8672 14.1094C76.8672 14.5729 76.7734 14.9922 76.5859 15.3672C76.3984 15.7422 76.1302 16.0625 75.7812 16.3281C75.4323 16.5938 75.013 16.7995 74.5234 16.9453C74.0391 17.0859 73.4974 17.1562 72.8984 17.1562C72.3724 17.1562 71.8542 17.0833 71.3438 16.9375C70.8385 16.7917 70.3776 16.5729 69.9609 16.2812C69.5495 15.9896 69.2188 15.6302 68.9688 15.2031C68.724 14.7708 68.6016 14.2708 68.6016 13.7031H70.1016C70.1016 14.0938 70.1771 14.4297 70.3281 14.7109C70.4792 14.987 70.6849 15.2161 70.9453 15.3984C71.2109 15.5807 71.5104 15.7161 71.8438 15.8047C72.1823 15.888 72.5339 15.9297 72.8984 15.9297C73.4245 15.9297 73.8698 15.8568 74.2344 15.7109C74.599 15.5651 74.875 15.3568 75.0625 15.0859C75.2552 14.8151 75.3516 14.4948 75.3516 14.125ZM78.1875 12.8672V12.6875C78.1875 12.0781 78.276 11.513 78.4531 10.9922C78.6302 10.4661 78.8854 10.0104 79.2188 9.625C79.5521 9.23438 79.9557 8.93229 80.4297 8.71875C80.9036 8.5 81.4349 8.39062 82.0234 8.39062C82.6172 8.39062 83.151 8.5 83.625 8.71875C84.1042 8.93229 84.5104 9.23438 84.8438 9.625C85.1823 10.0104 85.4401 10.4661 85.6172 10.9922C85.7943 11.513 85.8828 12.0781 85.8828 12.6875V12.8672C85.8828 13.4766 85.7943 14.0417 85.6172 14.5625C85.4401 15.0833 85.1823 15.5391 84.8438 15.9297C84.5104 16.3151 84.1068 16.6172 83.6328 16.8359C83.1641 17.0495 82.6328 17.1562 82.0391 17.1562C81.4453 17.1562 80.9115 17.0495 80.4375 16.8359C79.9635 16.6172 79.5573 16.3151 79.2188 15.9297C78.8854 15.5391 78.6302 15.0833 78.4531 14.5625C78.276 14.0417 78.1875 13.4766 78.1875 12.8672ZM79.6328 12.6875V12.8672C79.6328 13.2891 79.6823 13.6875 79.7812 14.0625C79.8802 14.4323 80.0286 14.7604 80.2266 15.0469C80.4297 15.3333 80.6823 15.5599 80.9844 15.7266C81.2865 15.888 81.638 15.9688 82.0391 15.9688C82.4349 15.9688 82.7812 15.888 83.0781 15.7266C83.3802 15.5599 83.6302 15.3333 83.8281 15.0469C84.026 14.7604 84.1745 14.4323 84.2734 14.0625C84.3776 13.6875 84.4297 13.2891 84.4297 12.8672V12.6875C84.4297 12.2708 84.3776 11.8776 84.2734 11.5078C84.1745 11.1328 84.0234 10.8021 83.8203 10.5156C83.6224 10.224 83.3724 9.99479 83.0703 9.82812C82.7734 9.66146 82.4245 9.57812 82.0234 9.57812C81.6276 9.57812 81.2786 9.66146 80.9766 9.82812C80.6797 9.99479 80.4297 10.224 80.2266 10.5156C80.0286 10.8021 79.8802 11.1328 79.7812 11.5078C79.6823 11.8776 79.6328 12.2708 79.6328 12.6875ZM92.8672 15.0469V8.54688H94.3203V17H92.9375L92.8672 15.0469ZM93.1406 13.2656L93.7422 13.25C93.7422 13.8125 93.6823 14.3333 93.5625 14.8125C93.4479 15.2865 93.2604 15.6979 93 16.0469C92.7396 16.3958 92.3984 16.6693 91.9766 16.8672C91.5547 17.0599 91.0417 17.1562 90.4375 17.1562C90.026 17.1562 89.6484 17.0964 89.3047 16.9766C88.9661 16.8568 88.6745 16.6719 88.4297 16.4219C88.1849 16.1719 87.9948 15.8464 87.8594 15.4453C87.7292 15.0443 87.6641 14.5625 87.6641 14V8.54688H89.1094V14.0156C89.1094 14.3958 89.151 14.7109 89.2344 14.9609C89.3229 15.2057 89.4401 15.401 89.5859 15.5469C89.737 15.6875 89.9036 15.7865 90.0859 15.8438C90.2734 15.901 90.4661 15.9297 90.6641 15.9297C91.2786 15.9297 91.7656 15.8125 92.125 15.5781C92.4844 15.3385 92.7422 15.0182 92.8984 14.6172C93.0599 14.2109 93.1406 13.7604 93.1406 13.2656ZM100.062 8.54688V9.65625H95.4922V8.54688H100.062ZM97.0391 6.49219H98.4844V14.9062C98.4844 15.1927 98.5286 15.4089 98.6172 15.5547C98.7057 15.7005 98.8203 15.7969 98.9609 15.8438C99.1016 15.8906 99.2526 15.9141 99.4141 15.9141C99.5339 15.9141 99.6589 15.9036 99.7891 15.8828C99.9245 15.8568 100.026 15.8359 100.094 15.8203L100.102 17C99.987 17.0365 99.8359 17.0703 99.6484 17.1016C99.4661 17.138 99.2448 17.1562 98.9844 17.1562C98.6302 17.1562 98.3047 17.0859 98.0078 16.9453C97.7109 16.8047 97.474 16.5703 97.2969 16.2422C97.125 15.9089 97.0391 15.4609 97.0391 14.8984V6.49219ZM103.203 5V17H101.758V5H103.203ZM102.859 12.4531L102.258 12.4297C102.263 11.8516 102.349 11.3177 102.516 10.8281C102.682 10.3333 102.917 9.90365 103.219 9.53906C103.521 9.17448 103.88 8.89323 104.297 8.69531C104.719 8.49219 105.185 8.39062 105.695 8.39062C106.112 8.39062 106.487 8.44792 106.82 8.5625C107.154 8.67188 107.438 8.84896 107.672 9.09375C107.911 9.33854 108.094 9.65625 108.219 10.0469C108.344 10.4323 108.406 10.9036 108.406 11.4609V17H106.953V11.4453C106.953 11.0026 106.888 10.6484 106.758 10.3828C106.628 10.112 106.438 9.91667 106.188 9.79688C105.938 9.67188 105.63 9.60938 105.266 9.60938C104.906 9.60938 104.578 9.6849 104.281 9.83594C103.99 9.98698 103.737 10.1953 103.523 10.4609C103.315 10.7266 103.151 11.0312 103.031 11.375C102.917 11.7135 102.859 12.0729 102.859 12.4531ZM112.141 5V17H110.688V5H112.141ZM117.969 17.1562C117.38 17.1562 116.846 17.0573 116.367 16.8594C115.893 16.6562 115.484 16.3724 115.141 16.0078C114.802 15.6432 114.542 15.2109 114.359 14.7109C114.177 14.2109 114.086 13.6641 114.086 13.0703V12.7422C114.086 12.0547 114.188 11.4427 114.391 10.9062C114.594 10.3646 114.87 9.90625 115.219 9.53125C115.568 9.15625 115.964 8.8724 116.406 8.67969C116.849 8.48698 117.307 8.39062 117.781 8.39062C118.385 8.39062 118.906 8.49479 119.344 8.70312C119.786 8.91146 120.148 9.20312 120.43 9.57812C120.711 9.94792 120.919 10.3854 121.055 10.8906C121.19 11.3906 121.258 11.9375 121.258 12.5312V13.1797H114.945V12H119.812V11.8906C119.792 11.5156 119.714 11.151 119.578 10.7969C119.448 10.4427 119.24 10.151 118.953 9.92188C118.667 9.69271 118.276 9.57812 117.781 9.57812C117.453 9.57812 117.151 9.64844 116.875 9.78906C116.599 9.92448 116.362 10.1276 116.164 10.3984C115.966 10.6693 115.812 11 115.703 11.3906C115.594 11.7812 115.539 12.2318 115.539 12.7422V13.0703C115.539 13.4714 115.594 13.849 115.703 14.2031C115.818 14.5521 115.982 14.8594 116.195 15.125C116.414 15.3906 116.677 15.599 116.984 15.75C117.297 15.901 117.651 15.9766 118.047 15.9766C118.557 15.9766 118.99 15.8724 119.344 15.6641C119.698 15.4557 120.008 15.1771 120.273 14.8281L121.148 15.5234C120.966 15.7995 120.734 16.0625 120.453 16.3125C120.172 16.5625 119.826 16.7656 119.414 16.9219C119.008 17.0781 118.526 17.1562 117.969 17.1562ZM127.93 15.5547V11.2031C127.93 10.8698 127.862 10.5807 127.727 10.3359C127.596 10.0859 127.398 9.89323 127.133 9.75781C126.867 9.6224 126.539 9.55469 126.148 9.55469C125.784 9.55469 125.464 9.61719 125.188 9.74219C124.917 9.86719 124.703 10.0312 124.547 10.2344C124.396 10.4375 124.32 10.6562 124.32 10.8906H122.875C122.875 10.5885 122.953 10.2891 123.109 9.99219C123.266 9.69531 123.49 9.42708 123.781 9.1875C124.078 8.94271 124.432 8.75 124.844 8.60938C125.26 8.46354 125.724 8.39062 126.234 8.39062C126.849 8.39062 127.391 8.49479 127.859 8.70312C128.333 8.91146 128.703 9.22656 128.969 9.64844C129.24 10.0651 129.375 10.5885 129.375 11.2188V15.1562C129.375 15.4375 129.398 15.737 129.445 16.0547C129.497 16.3724 129.573 16.6458 129.672 16.875V17H128.164C128.091 16.8333 128.034 16.612 127.992 16.3359C127.951 16.0547 127.93 15.7943 127.93 15.5547ZM128.18 11.875L128.195 12.8906H126.734C126.323 12.8906 125.956 12.9245 125.633 12.9922C125.31 13.0547 125.039 13.151 124.82 13.2812C124.602 13.4115 124.435 13.5755 124.32 13.7734C124.206 13.9661 124.148 14.1927 124.148 14.4531C124.148 14.7188 124.208 14.9609 124.328 15.1797C124.448 15.3984 124.628 15.5729 124.867 15.7031C125.112 15.8281 125.411 15.8906 125.766 15.8906C126.208 15.8906 126.599 15.7969 126.938 15.6094C127.276 15.4219 127.544 15.1927 127.742 14.9219C127.945 14.651 128.055 14.388 128.07 14.1328L128.688 14.8281C128.651 15.0469 128.552 15.2891 128.391 15.5547C128.229 15.8203 128.013 16.0755 127.742 16.3203C127.477 16.5599 127.159 16.7604 126.789 16.9219C126.424 17.0781 126.013 17.1562 125.555 17.1562C124.982 17.1562 124.479 17.0443 124.047 16.8203C123.62 16.5964 123.286 16.2969 123.047 15.9219C122.812 15.5417 122.695 15.1172 122.695 14.6484C122.695 14.1953 122.784 13.7969 122.961 13.4531C123.138 13.1042 123.393 12.8151 123.727 12.5859C124.06 12.3516 124.461 12.1745 124.93 12.0547C125.398 11.9349 125.922 11.875 126.5 11.875H128.18ZM132.961 15.2812V16.4453C132.961 16.9193 132.841 17.4193 132.602 17.9453C132.362 18.4766 132.026 18.9193 131.594 19.2734L130.773 18.7031C130.94 18.474 131.081 18.2396 131.195 18C131.31 17.7656 131.396 17.5208 131.453 17.2656C131.516 17.0156 131.547 16.75 131.547 16.4688V15.2812H132.961ZM145.891 15.7734V17H140.203V15.7734H145.891ZM140.5 5.625V17H138.992V5.625H140.5ZM147.016 12.8672V12.6875C147.016 12.0781 147.104 11.513 147.281 10.9922C147.458 10.4661 147.714 10.0104 148.047 9.625C148.38 9.23438 148.784 8.93229 149.258 8.71875C149.732 8.5 150.263 8.39062 150.852 8.39062C151.445 8.39062 151.979 8.5 152.453 8.71875C152.932 8.93229 153.339 9.23438 153.672 9.625C154.01 10.0104 154.268 10.4661 154.445 10.9922C154.622 11.513 154.711 12.0781 154.711 12.6875V12.8672C154.711 13.4766 154.622 14.0417 154.445 14.5625C154.268 15.0833 154.01 15.5391 153.672 15.9297C153.339 16.3151 152.935 16.6172 152.461 16.8359C151.992 17.0495 151.461 17.1562 150.867 17.1562C150.273 17.1562 149.74 17.0495 149.266 16.8359C148.792 16.6172 148.385 16.3151 148.047 15.9297C147.714 15.5391 147.458 15.0833 147.281 14.5625C147.104 14.0417 147.016 13.4766 147.016 12.8672ZM148.461 12.6875V12.8672C148.461 13.2891 148.51 13.6875 148.609 14.0625C148.708 14.4323 148.857 14.7604 149.055 15.0469C149.258 15.3333 149.51 15.5599 149.812 15.7266C150.115 15.888 150.466 15.9688 150.867 15.9688C151.263 15.9688 151.609 15.888 151.906 15.7266C152.208 15.5599 152.458 15.3333 152.656 15.0469C152.854 14.7604 153.003 14.4323 153.102 14.0625C153.206 13.6875 153.258 13.2891 153.258 12.8672V12.6875C153.258 12.2708 153.206 11.8776 153.102 11.5078C153.003 11.1328 152.852 10.8021 152.648 10.5156C152.451 10.224 152.201 9.99479 151.898 9.82812C151.602 9.66146 151.253 9.57812 150.852 9.57812C150.456 9.57812 150.107 9.66146 149.805 9.82812C149.508 9.99479 149.258 10.224 149.055 10.5156C148.857 10.8021 148.708 11.1328 148.609 11.5078C148.51 11.8776 148.461 12.2708 148.461 12.6875ZM161.445 14.7578C161.445 14.5495 161.398 14.3568 161.305 14.1797C161.216 13.9974 161.031 13.8333 160.75 13.6875C160.474 13.5365 160.057 13.4062 159.5 13.2969C159.031 13.1979 158.607 13.0807 158.227 12.9453C157.852 12.8099 157.531 12.6458 157.266 12.4531C157.005 12.2604 156.805 12.0339 156.664 11.7734C156.523 11.513 156.453 11.2083 156.453 10.8594C156.453 10.526 156.526 10.2109 156.672 9.91406C156.823 9.61719 157.034 9.35417 157.305 9.125C157.581 8.89583 157.911 8.71615 158.297 8.58594C158.682 8.45573 159.112 8.39062 159.586 8.39062C160.263 8.39062 160.841 8.51042 161.32 8.75C161.799 8.98958 162.167 9.3099 162.422 9.71094C162.677 10.1068 162.805 10.5469 162.805 11.0312H161.359C161.359 10.7969 161.289 10.5703 161.148 10.3516C161.013 10.1276 160.812 9.94271 160.547 9.79688C160.286 9.65104 159.966 9.57812 159.586 9.57812C159.185 9.57812 158.859 9.64062 158.609 9.76562C158.365 9.88542 158.185 10.0391 158.07 10.2266C157.961 10.4141 157.906 10.612 157.906 10.8203C157.906 10.9766 157.932 11.1172 157.984 11.2422C158.042 11.362 158.141 11.474 158.281 11.5781C158.422 11.6771 158.62 11.7708 158.875 11.8594C159.13 11.9479 159.456 12.0365 159.852 12.125C160.544 12.2812 161.115 12.4688 161.562 12.6875C162.01 12.9062 162.344 13.1745 162.562 13.4922C162.781 13.8099 162.891 14.1953 162.891 14.6484C162.891 15.0182 162.812 15.3568 162.656 15.6641C162.505 15.9714 162.284 16.237 161.992 16.4609C161.706 16.6797 161.362 16.8516 160.961 16.9766C160.565 17.0964 160.12 17.1562 159.625 17.1562C158.88 17.1562 158.25 17.0234 157.734 16.7578C157.219 16.4922 156.828 16.1484 156.562 15.7266C156.297 15.3047 156.164 14.8594 156.164 14.3906H157.617C157.638 14.7865 157.753 15.1016 157.961 15.3359C158.169 15.5651 158.424 15.7292 158.727 15.8281C159.029 15.9219 159.328 15.9688 159.625 15.9688C160.021 15.9688 160.352 15.9167 160.617 15.8125C160.888 15.7083 161.094 15.5651 161.234 15.3828C161.375 15.2005 161.445 14.9922 161.445 14.7578ZM173.188 6.63281L169.422 17H167.883L172.219 5.625H173.211L173.188 6.63281ZM176.344 17L172.57 6.63281L172.547 5.625H173.539L177.891 17H176.344ZM176.148 12.7891V14.0234H169.758V12.7891H176.148ZM180.641 10.3516V17H179.195V8.54688H180.562L180.641 10.3516ZM180.297 12.4531L179.695 12.4297C179.701 11.8516 179.786 11.3177 179.953 10.8281C180.12 10.3333 180.354 9.90365 180.656 9.53906C180.958 9.17448 181.318 8.89323 181.734 8.69531C182.156 8.49219 182.622 8.39062 183.133 8.39062C183.549 8.39062 183.924 8.44792 184.258 8.5625C184.591 8.67188 184.875 8.84896 185.109 9.09375C185.349 9.33854 185.531 9.65625 185.656 10.0469C185.781 10.4323 185.844 10.9036 185.844 11.4609V17H184.391V11.4453C184.391 11.0026 184.326 10.6484 184.195 10.3828C184.065 10.112 183.875 9.91667 183.625 9.79688C183.375 9.67188 183.068 9.60938 182.703 9.60938C182.344 9.60938 182.016 9.6849 181.719 9.83594C181.427 9.98698 181.174 10.1953 180.961 10.4609C180.753 10.7266 180.589 11.0312 180.469 11.375C180.354 11.7135 180.297 12.0729 180.297 12.4531ZM193.516 8.54688H194.828V16.8203C194.828 17.5651 194.677 18.2005 194.375 18.7266C194.073 19.2526 193.651 19.651 193.109 19.9219C192.573 20.1979 191.953 20.3359 191.25 20.3359C190.958 20.3359 190.615 20.2891 190.219 20.1953C189.828 20.1068 189.443 19.9531 189.062 19.7344C188.688 19.5208 188.372 19.2318 188.117 18.8672L188.875 18.0078C189.229 18.4349 189.599 18.7318 189.984 18.8984C190.375 19.0651 190.76 19.1484 191.141 19.1484C191.599 19.1484 191.995 19.0625 192.328 18.8906C192.661 18.7188 192.919 18.4635 193.102 18.125C193.289 17.7917 193.383 17.3802 193.383 16.8906V10.4062L193.516 8.54688ZM187.695 12.8672V12.7031C187.695 12.0573 187.771 11.4714 187.922 10.9453C188.078 10.4141 188.299 9.95833 188.586 9.57812C188.878 9.19792 189.229 8.90625 189.641 8.70312C190.052 8.49479 190.516 8.39062 191.031 8.39062C191.562 8.39062 192.026 8.48438 192.422 8.67188C192.823 8.85417 193.161 9.1224 193.438 9.47656C193.719 9.82552 193.94 10.2474 194.102 10.7422C194.263 11.237 194.375 11.7969 194.438 12.4219V13.1406C194.38 13.7604 194.268 14.3177 194.102 14.8125C193.94 15.3073 193.719 15.7292 193.438 16.0781C193.161 16.4271 192.823 16.6953 192.422 16.8828C192.021 17.0651 191.552 17.1562 191.016 17.1562C190.51 17.1562 190.052 17.0495 189.641 16.8359C189.234 16.6224 188.885 16.3229 188.594 15.9375C188.302 15.5521 188.078 15.099 187.922 14.5781C187.771 14.0521 187.695 13.4818 187.695 12.8672ZM189.141 12.7031V12.8672C189.141 13.2891 189.182 13.6849 189.266 14.0547C189.354 14.4245 189.487 14.75 189.664 15.0312C189.846 15.3125 190.078 15.5339 190.359 15.6953C190.641 15.8516 190.977 15.9297 191.367 15.9297C191.846 15.9297 192.242 15.8281 192.555 15.625C192.867 15.4219 193.115 15.1536 193.297 14.8203C193.484 14.487 193.63 14.125 193.734 13.7344V11.8516C193.677 11.5651 193.589 11.2891 193.469 11.0234C193.354 10.7526 193.203 10.513 193.016 10.3047C192.833 10.0911 192.607 9.92188 192.336 9.79688C192.065 9.67188 191.747 9.60938 191.383 9.60938C190.987 9.60938 190.646 9.69271 190.359 9.85938C190.078 10.0208 189.846 10.2448 189.664 10.5312C189.487 10.8125 189.354 11.1406 189.266 11.5156C189.182 11.8854 189.141 12.2812 189.141 12.7031ZM200.531 17.1562C199.943 17.1562 199.409 17.0573 198.93 16.8594C198.456 16.6562 198.047 16.3724 197.703 16.0078C197.365 15.6432 197.104 15.2109 196.922 14.7109C196.74 14.2109 196.648 13.6641 196.648 13.0703V12.7422C196.648 12.0547 196.75 11.4427 196.953 10.9062C197.156 10.3646 197.432 9.90625 197.781 9.53125C198.13 9.15625 198.526 8.8724 198.969 8.67969C199.411 8.48698 199.87 8.39062 200.344 8.39062C200.948 8.39062 201.469 8.49479 201.906 8.70312C202.349 8.91146 202.711 9.20312 202.992 9.57812C203.273 9.94792 203.482 10.3854 203.617 10.8906C203.753 11.3906 203.82 11.9375 203.82 12.5312V13.1797H197.508V12H202.375V11.8906C202.354 11.5156 202.276 11.151 202.141 10.7969C202.01 10.4427 201.802 10.151 201.516 9.92188C201.229 9.69271 200.839 9.57812 200.344 9.57812C200.016 9.57812 199.714 9.64844 199.438 9.78906C199.161 9.92448 198.924 10.1276 198.727 10.3984C198.529 10.6693 198.375 11 198.266 11.3906C198.156 11.7812 198.102 12.2318 198.102 12.7422V13.0703C198.102 13.4714 198.156 13.849 198.266 14.2031C198.38 14.5521 198.544 14.8594 198.758 15.125C198.977 15.3906 199.24 15.599 199.547 15.75C199.859 15.901 200.214 15.9766 200.609 15.9766C201.12 15.9766 201.552 15.8724 201.906 15.6641C202.26 15.4557 202.57 15.1771 202.836 14.8281L203.711 15.5234C203.529 15.7995 203.297 16.0625 203.016 16.3125C202.734 16.5625 202.388 16.7656 201.977 16.9219C201.57 17.0781 201.089 17.1562 200.531 17.1562ZM207.078 5V17H205.625V5H207.078ZM212.906 17.1562C212.318 17.1562 211.784 17.0573 211.305 16.8594C210.831 16.6562 210.422 16.3724 210.078 16.0078C209.74 15.6432 209.479 15.2109 209.297 14.7109C209.115 14.2109 209.023 13.6641 209.023 13.0703V12.7422C209.023 12.0547 209.125 11.4427 209.328 10.9062C209.531 10.3646 209.807 9.90625 210.156 9.53125C210.505 9.15625 210.901 8.8724 211.344 8.67969C211.786 8.48698 212.245 8.39062 212.719 8.39062C213.323 8.39062 213.844 8.49479 214.281 8.70312C214.724 8.91146 215.086 9.20312 215.367 9.57812C215.648 9.94792 215.857 10.3854 215.992 10.8906C216.128 11.3906 216.195 11.9375 216.195 12.5312V13.1797H209.883V12H214.75V11.8906C214.729 11.5156 214.651 11.151 214.516 10.7969C214.385 10.4427 214.177 10.151 213.891 9.92188C213.604 9.69271 213.214 9.57812 212.719 9.57812C212.391 9.57812 212.089 9.64844 211.812 9.78906C211.536 9.92448 211.299 10.1276 211.102 10.3984C210.904 10.6693 210.75 11 210.641 11.3906C210.531 11.7812 210.477 12.2318 210.477 12.7422V13.0703C210.477 13.4714 210.531 13.849 210.641 14.2031C210.755 14.5521 210.919 14.8594 211.133 15.125C211.352 15.3906 211.615 15.599 211.922 15.75C212.234 15.901 212.589 15.9766 212.984 15.9766C213.495 15.9766 213.927 15.8724 214.281 15.6641C214.635 15.4557 214.945 15.1771 215.211 14.8281L216.086 15.5234C215.904 15.7995 215.672 16.0625 215.391 16.3125C215.109 16.5625 214.763 16.7656 214.352 16.9219C213.945 17.0781 213.464 17.1562 212.906 17.1562ZM222.805 14.7578C222.805 14.5495 222.758 14.3568 222.664 14.1797C222.576 13.9974 222.391 13.8333 222.109 13.6875C221.833 13.5365 221.417 13.4062 220.859 13.2969C220.391 13.1979 219.966 13.0807 219.586 12.9453C219.211 12.8099 218.891 12.6458 218.625 12.4531C218.365 12.2604 218.164 12.0339 218.023 11.7734C217.883 11.513 217.812 11.2083 217.812 10.8594C217.812 10.526 217.885 10.2109 218.031 9.91406C218.182 9.61719 218.393 9.35417 218.664 9.125C218.94 8.89583 219.271 8.71615 219.656 8.58594C220.042 8.45573 220.471 8.39062 220.945 8.39062C221.622 8.39062 222.201 8.51042 222.68 8.75C223.159 8.98958 223.526 9.3099 223.781 9.71094C224.036 10.1068 224.164 10.5469 224.164 11.0312H222.719C222.719 10.7969 222.648 10.5703 222.508 10.3516C222.372 10.1276 222.172 9.94271 221.906 9.79688C221.646 9.65104 221.326 9.57812 220.945 9.57812C220.544 9.57812 220.219 9.64062 219.969 9.76562C219.724 9.88542 219.544 10.0391 219.43 10.2266C219.32 10.4141 219.266 10.612 219.266 10.8203C219.266 10.9766 219.292 11.1172 219.344 11.2422C219.401 11.362 219.5 11.474 219.641 11.5781C219.781 11.6771 219.979 11.7708 220.234 11.8594C220.49 11.9479 220.815 12.0365 221.211 12.125C221.904 12.2812 222.474 12.4688 222.922 12.6875C223.37 12.9062 223.703 13.1745 223.922 13.4922C224.141 13.8099 224.25 14.1953 224.25 14.6484C224.25 15.0182 224.172 15.3568 224.016 15.6641C223.865 15.9714 223.643 16.237 223.352 16.4609C223.065 16.6797 222.721 16.8516 222.32 16.9766C221.924 17.0964 221.479 17.1562 220.984 17.1562C220.24 17.1562 219.609 17.0234 219.094 16.7578C218.578 16.4922 218.188 16.1484 217.922 15.7266C217.656 15.3047 217.523 14.8594 217.523 14.3906H218.977C218.997 14.7865 219.112 15.1016 219.32 15.3359C219.529 15.5651 219.784 15.7292 220.086 15.8281C220.388 15.9219 220.688 15.9688 220.984 15.9688C221.38 15.9688 221.711 15.9167 221.977 15.8125C222.247 15.7083 222.453 15.5651 222.594 15.3828C222.734 15.2005 222.805 14.9922 222.805 14.7578Z" fill="#65665C"/>
<path d="M8.8125 11.1875C9.14583 11.5 9.54167 11.6562 10 11.6562C10.4583 11.6562 10.8438 11.5 11.1562 11.1875C11.4896 10.8542 11.6562 10.4583 11.6562 10C11.6562 9.54167 11.4896 9.15625 11.1562 8.84375C10.8438 8.51042 10.4583 8.34375 10 8.34375C9.54167 8.34375 9.14583 8.51042 8.8125 8.84375C8.5 9.15625 8.34375 9.54167 8.34375 10C8.34375 10.4583 8.5 10.8542 8.8125 11.1875ZM6.6875 6.71875C7.60417 5.80208 8.70833 5.34375 10 5.34375C11.2917 5.34375 12.3854 5.80208 13.2812 6.71875C14.1979 7.61458 14.6562 8.70833 14.6562 10C14.6562 10.6458 14.4896 11.3854 14.1562 12.2188C13.8438 13.0521 13.4583 13.8333 13 14.5625C12.5417 15.2917 12.0833 15.9792 11.625 16.625C11.1875 17.25 10.8125 17.75 10.5 18.125L10 18.6562C9.875 18.5104 9.70833 18.3229 9.5 18.0938C9.29167 17.8438 8.91667 17.3646 8.375 16.6562C7.83333 15.9271 7.35417 15.2292 6.9375 14.5625C6.54167 13.875 6.17708 13.1042 5.84375 12.25C5.51042 11.3958 5.34375 10.6458 5.34375 10C5.34375 8.70833 5.79167 7.61458 6.6875 6.71875Z" fill="#65665C"/>
</svg>
