<svg width="358" height="25" viewBox="0 0 358 25" fill="none" xmlns="http://www.w3.org/2000/svg">
<path d="M16.3438 13.6562H17.6562V17.6562C17.6562 18.0104 17.5208 18.3229 17.25 18.5938C17 18.8646 16.6979 19 16.3438 19C16.3438 19.1875 16.2708 19.3438 16.125 19.4688C16 19.5938 15.8438 19.6562 15.6562 19.6562H6.34375C6.15625 19.6562 5.98958 19.5938 5.84375 19.4688C5.71875 19.3438 5.65625 19.1875 5.65625 19C5.30208 19 4.98958 18.8646 4.71875 18.5938C4.46875 18.3229 4.34375 18.0104 4.34375 17.6562V13.6562H6.34375V13.1562C6.34375 12.7604 6.48958 12.4167 6.78125 12.125C7.09375 11.8125 7.44792 11.6562 7.84375 11.6562C8.26042 11.6562 8.63542 11.8229 8.96875 12.1562L9.875 13.1875C10 13.3333 10.1875 13.4896 10.4375 13.6562H15V8.21875C15 8.07292 14.9479 7.94792 14.8438 7.84375C14.7396 7.71875 14.6042 7.65625 14.4375 7.65625C14.2917 7.65625 14.1667 7.70833 14.0625 7.8125L13.2188 8.65625C13.2604 8.82292 13.2812 8.9375 13.2812 9C13.2812 9.22917 13.2083 9.46875 13.0625 9.71875L11.2188 7.875C11.4688 7.72917 11.7083 7.65625 11.9375 7.65625C12.0417 7.65625 12.1562 7.67708 12.2812 7.71875L13.125 6.875C13.4792 6.52083 13.9167 6.34375 14.4375 6.34375C14.9583 6.34375 15.4062 6.53125 15.7812 6.90625C16.1562 7.26042 16.3438 7.69792 16.3438 8.21875V13.6562ZM6.71875 10.625C6.46875 10.3542 6.34375 10.0312 6.34375 9.65625C6.34375 9.28125 6.46875 8.96875 6.71875 8.71875C6.96875 8.46875 7.28125 8.34375 7.65625 8.34375C8.03125 8.34375 8.34375 8.46875 8.59375 8.71875C8.86458 8.96875 9 9.28125 9 9.65625C9 10.0312 8.86458 10.3542 8.59375 10.625C8.34375 10.875 8.03125 11 7.65625 11C7.28125 11 6.96875 10.875 6.71875 10.625Z" fill="#65665C"/>
<path d="M34.6953 6.5625V18H33.25V8.36719L30.3359 9.42969V8.125L34.4688 6.5625H34.6953Z" fill="#65665C"/>
<path d="M76 12.1875V10.3438C76 9.96875 75.9062 9.63542 75.7188 9.34375C75.5521 9.03125 75.3125 8.79167 75 8.625C74.7083 8.4375 74.375 8.34375 74 8.34375H71.3438C71.0729 8.34375 70.8229 8.39583 70.5938 8.5C70.3646 8.58333 70.1667 8.69792 70 8.84375C69.8333 8.69792 69.6354 8.58333 69.4062 8.5C69.1771 8.39583 68.9271 8.34375 68.6562 8.34375H66C65.625 8.34375 65.2812 8.4375 64.9688 8.625C64.6771 8.79167 64.4375 9.03125 64.25 9.34375C64.0833 9.63542 64 9.96875 64 10.3438V12.1875C63.7917 12.375 63.625 12.5938 63.5 12.8438C63.3958 13.0938 63.3438 13.3646 63.3438 13.6562V17.6562H64.6562V16.3438H75.3438V17.6562H76.6562V13.6562C76.6562 13.3646 76.5938 13.0938 76.4688 12.8438C76.3646 12.5938 76.2083 12.375 76 12.1875ZM71.3438 9.65625H74C74.1875 9.65625 74.3438 9.72917 74.4688 9.875C74.5938 10 74.6562 10.1562 74.6562 10.3438V11.6562H70.6562V10.3438C70.6562 10.1562 70.7188 10 70.8438 9.875C70.9896 9.72917 71.1562 9.65625 71.3438 9.65625ZM65.3438 10.3438C65.3438 10.1562 65.4062 10 65.5312 9.875C65.6562 9.72917 65.8125 9.65625 66 9.65625H68.6562C68.8438 9.65625 69 9.72917 69.125 9.875C69.2708 10 69.3438 10.1562 69.3438 10.3438V11.6562H65.3438V10.3438ZM64.6562 15V13.6562C64.6562 13.4896 64.7188 13.3438 64.8438 13.2188C64.9896 13.0729 65.1562 13 65.3438 13H74.6562C74.8438 13 75 13.0729 75.125 13.2188C75.2708 13.3438 75.3438 13.4896 75.3438 13.6562V15H64.6562Z" fill="#65665C"/>
<path d="M96.3984 16.8125V18H88.9531V16.9609L92.6797 12.8125C93.138 12.3021 93.4922 11.8698 93.7422 11.5156C93.9974 11.1562 94.1745 10.8359 94.2734 10.5547C94.3776 10.2682 94.4297 9.97656 94.4297 9.67969C94.4297 9.30469 94.3516 8.96615 94.1953 8.66406C94.0443 8.35677 93.8203 8.11198 93.5234 7.92969C93.2266 7.7474 92.8672 7.65625 92.4453 7.65625C91.9401 7.65625 91.5182 7.75521 91.1797 7.95312C90.8464 8.14583 90.5964 8.41667 90.4297 8.76562C90.263 9.11458 90.1797 9.51562 90.1797 9.96875H88.7344C88.7344 9.32812 88.875 8.74219 89.1562 8.21094C89.4375 7.67969 89.8542 7.25781 90.4062 6.94531C90.9583 6.6276 91.638 6.46875 92.4453 6.46875C93.1641 6.46875 93.7786 6.59635 94.2891 6.85156C94.7995 7.10156 95.1901 7.45573 95.4609 7.91406C95.737 8.36719 95.875 8.89844 95.875 9.50781C95.875 9.84115 95.8177 10.1797 95.7031 10.5234C95.5938 10.862 95.4401 11.2005 95.2422 11.5391C95.0495 11.8776 94.8229 12.2109 94.5625 12.5391C94.3073 12.8672 94.0339 13.1901 93.7422 13.5078L90.6953 16.8125H96.3984Z" fill="#65665C"/>
<path d="M128.656 16.3438H132.5L128.656 12.5V16.3438ZM135.781 16.7812L137.344 18.3438H128C127.646 18.3438 127.333 18.2083 127.062 17.9375C126.792 17.6667 126.656 17.3542 126.656 17V7.65625L128.219 9.21875L127.531 9.9375L128 10.4062L128.688 9.6875L130 11L129.281 11.6875L129.75 12.1875L130.469 11.4688L131.781 12.7812L131.062 13.4688L131.531 13.9375L132.25 13.25L133.531 14.5312L132.812 15.25L133.312 15.7188L134 15L135.312 16.3125L134.594 17L135.062 17.4688L135.781 16.7812Z" fill="#65665C"/>
<path d="M156.492 6.60938H156.617V7.83594H156.492C155.727 7.83594 155.086 7.96094 154.57 8.21094C154.055 8.45573 153.646 8.78646 153.344 9.20312C153.042 9.61458 152.823 10.0781 152.688 10.5938C152.557 11.1094 152.492 11.6328 152.492 12.1641V13.8359C152.492 14.3411 152.552 14.7891 152.672 15.1797C152.792 15.5651 152.956 15.8906 153.164 16.1562C153.372 16.4219 153.607 16.6224 153.867 16.7578C154.133 16.8932 154.409 16.9609 154.695 16.9609C155.029 16.9609 155.326 16.8984 155.586 16.7734C155.846 16.6432 156.065 16.4635 156.242 16.2344C156.424 16 156.562 15.724 156.656 15.4062C156.75 15.0885 156.797 14.7396 156.797 14.3594C156.797 14.0208 156.755 13.6953 156.672 13.3828C156.589 13.0651 156.461 12.7839 156.289 12.5391C156.117 12.2891 155.901 12.0938 155.641 11.9531C155.385 11.8073 155.081 11.7344 154.727 11.7344C154.326 11.7344 153.951 11.8333 153.602 12.0312C153.258 12.224 152.974 12.4792 152.75 12.7969C152.531 13.1094 152.406 13.4505 152.375 13.8203L151.609 13.8125C151.682 13.2292 151.818 12.7318 152.016 12.3203C152.219 11.9036 152.469 11.5651 152.766 11.3047C153.068 11.0391 153.404 10.8464 153.773 10.7266C154.148 10.6016 154.544 10.5391 154.961 10.5391C155.529 10.5391 156.018 10.6458 156.43 10.8594C156.841 11.0729 157.18 11.3594 157.445 11.7188C157.711 12.0729 157.906 12.474 158.031 12.9219C158.161 13.3646 158.227 13.8203 158.227 14.2891C158.227 14.8255 158.151 15.3281 158 15.7969C157.849 16.2656 157.622 16.6771 157.32 17.0312C157.023 17.3854 156.656 17.6615 156.219 17.8594C155.781 18.0573 155.273 18.1562 154.695 18.1562C154.081 18.1562 153.544 18.0312 153.086 17.7812C152.628 17.526 152.247 17.1875 151.945 16.7656C151.643 16.3438 151.417 15.875 151.266 15.3594C151.115 14.8438 151.039 14.3203 151.039 13.7891V13.1094C151.039 12.3073 151.12 11.5208 151.281 10.75C151.443 9.97917 151.721 9.28125 152.117 8.65625C152.518 8.03125 153.073 7.53385 153.781 7.16406C154.49 6.79427 155.393 6.60938 156.492 6.60938ZM161.773 12.5859L160.617 12.2891L161.188 6.625H167.023V7.96094H162.414L162.07 11.0547C162.279 10.9349 162.542 10.8229 162.859 10.7188C163.182 10.6146 163.552 10.5625 163.969 10.5625C164.495 10.5625 164.966 10.6536 165.383 10.8359C165.799 11.013 166.154 11.2682 166.445 11.6016C166.742 11.9349 166.969 12.3359 167.125 12.8047C167.281 13.2734 167.359 13.7969 167.359 14.375C167.359 14.9219 167.284 15.4245 167.133 15.8828C166.987 16.3411 166.766 16.7422 166.469 17.0859C166.172 17.4245 165.797 17.6875 165.344 17.875C164.896 18.0625 164.367 18.1562 163.758 18.1562C163.299 18.1562 162.865 18.0938 162.453 17.9688C162.047 17.8385 161.682 17.6432 161.359 17.3828C161.042 17.1172 160.781 16.7891 160.578 16.3984C160.38 16.0026 160.255 15.5391 160.203 15.0078H161.578C161.641 15.4349 161.766 15.7943 161.953 16.0859C162.141 16.3776 162.385 16.599 162.688 16.75C162.995 16.8958 163.352 16.9688 163.758 16.9688C164.102 16.9688 164.406 16.9089 164.672 16.7891C164.938 16.6693 165.161 16.4974 165.344 16.2734C165.526 16.0495 165.664 15.7786 165.758 15.4609C165.857 15.1432 165.906 14.7865 165.906 14.3906C165.906 14.0312 165.857 13.6979 165.758 13.3906C165.659 13.0833 165.51 12.8151 165.312 12.5859C165.12 12.3568 164.883 12.1797 164.602 12.0547C164.32 11.9245 163.997 11.8594 163.633 11.8594C163.148 11.8594 162.781 11.9245 162.531 12.0547C162.286 12.1849 162.034 12.362 161.773 12.5859ZM176.086 11.4062V13.1406C176.086 14.0729 176.003 14.8594 175.836 15.5C175.669 16.1406 175.43 16.6562 175.117 17.0469C174.805 17.4375 174.427 17.7214 173.984 17.8984C173.547 18.0703 173.052 18.1562 172.5 18.1562C172.062 18.1562 171.659 18.1016 171.289 17.9922C170.919 17.8828 170.586 17.7083 170.289 17.4688C169.997 17.224 169.747 16.9062 169.539 16.5156C169.331 16.125 169.172 15.651 169.062 15.0938C168.953 14.5365 168.898 13.8854 168.898 13.1406V11.4062C168.898 10.474 168.982 9.69271 169.148 9.0625C169.32 8.43229 169.562 7.92708 169.875 7.54688C170.188 7.16146 170.562 6.88542 171 6.71875C171.443 6.55208 171.938 6.46875 172.484 6.46875C172.927 6.46875 173.333 6.52344 173.703 6.63281C174.078 6.73698 174.411 6.90625 174.703 7.14062C174.995 7.36979 175.242 7.67708 175.445 8.0625C175.654 8.44271 175.812 8.90885 175.922 9.46094C176.031 10.013 176.086 10.6615 176.086 11.4062ZM174.633 13.375V11.1641C174.633 10.6536 174.602 10.2057 174.539 9.82031C174.482 9.42969 174.396 9.09635 174.281 8.82031C174.167 8.54427 174.021 8.32031 173.844 8.14844C173.672 7.97656 173.471 7.85156 173.242 7.77344C173.018 7.6901 172.766 7.64844 172.484 7.64844C172.141 7.64844 171.836 7.71354 171.57 7.84375C171.305 7.96875 171.081 8.16927 170.898 8.44531C170.721 8.72135 170.586 9.08333 170.492 9.53125C170.398 9.97917 170.352 10.5234 170.352 11.1641V13.375C170.352 13.8854 170.38 14.3359 170.438 14.7266C170.5 15.1172 170.591 15.4557 170.711 15.7422C170.831 16.0234 170.977 16.2552 171.148 16.4375C171.32 16.6198 171.518 16.7552 171.742 16.8438C171.971 16.9271 172.224 16.9688 172.5 16.9688C172.854 16.9688 173.164 16.901 173.43 16.7656C173.695 16.6302 173.917 16.4193 174.094 16.1328C174.276 15.8411 174.411 15.4688 174.5 15.0156C174.589 14.5573 174.633 14.0104 174.633 13.375ZM186.992 15.7578C186.992 15.5495 186.945 15.3568 186.852 15.1797C186.763 14.9974 186.578 14.8333 186.297 14.6875C186.021 14.5365 185.604 14.4062 185.047 14.2969C184.578 14.1979 184.154 14.0807 183.773 13.9453C183.398 13.8099 183.078 13.6458 182.812 13.4531C182.552 13.2604 182.352 13.0339 182.211 12.7734C182.07 12.513 182 12.2083 182 11.8594C182 11.526 182.073 11.2109 182.219 10.9141C182.37 10.6172 182.581 10.3542 182.852 10.125C183.128 9.89583 183.458 9.71615 183.844 9.58594C184.229 9.45573 184.659 9.39062 185.133 9.39062C185.81 9.39062 186.388 9.51042 186.867 9.75C187.346 9.98958 187.714 10.3099 187.969 10.7109C188.224 11.1068 188.352 11.5469 188.352 12.0312H186.906C186.906 11.7969 186.836 11.5703 186.695 11.3516C186.56 11.1276 186.359 10.9427 186.094 10.7969C185.833 10.651 185.513 10.5781 185.133 10.5781C184.732 10.5781 184.406 10.6406 184.156 10.7656C183.911 10.8854 183.732 11.0391 183.617 11.2266C183.508 11.4141 183.453 11.612 183.453 11.8203C183.453 11.9766 183.479 12.1172 183.531 12.2422C183.589 12.362 183.688 12.474 183.828 12.5781C183.969 12.6771 184.167 12.7708 184.422 12.8594C184.677 12.9479 185.003 13.0365 185.398 13.125C186.091 13.2812 186.661 13.4688 187.109 13.6875C187.557 13.9062 187.891 14.1745 188.109 14.4922C188.328 14.8099 188.438 15.1953 188.438 15.6484C188.438 16.0182 188.359 16.3568 188.203 16.6641C188.052 16.9714 187.831 17.237 187.539 17.4609C187.253 17.6797 186.909 17.8516 186.508 17.9766C186.112 18.0964 185.667 18.1562 185.172 18.1562C184.427 18.1562 183.797 18.0234 183.281 17.7578C182.766 17.4922 182.375 17.1484 182.109 16.7266C181.844 16.3047 181.711 15.8594 181.711 15.3906H183.164C183.185 15.7865 183.299 16.1016 183.508 16.3359C183.716 16.5651 183.971 16.7292 184.273 16.8281C184.576 16.9219 184.875 16.9688 185.172 16.9688C185.568 16.9688 185.898 16.9167 186.164 16.8125C186.435 16.7083 186.641 16.5651 186.781 16.3828C186.922 16.2005 186.992 15.9922 186.992 15.7578ZM195.656 21.25V11.1719L195.781 9.54688H197.109V21.25H195.656ZM189.977 13.8672V13.7031C189.977 13.0573 190.052 12.4714 190.203 11.9453C190.354 11.4141 190.576 10.9583 190.867 10.5781C191.159 10.1979 191.51 9.90625 191.922 9.70312C192.339 9.49479 192.812 9.39062 193.344 9.39062C193.875 9.39062 194.341 9.48438 194.742 9.67188C195.148 9.85417 195.492 10.1224 195.773 10.4766C196.06 10.8255 196.286 11.2474 196.453 11.7422C196.62 12.237 196.734 12.7969 196.797 13.4219V14.1406C196.74 14.7604 196.628 15.3177 196.461 15.8125C196.294 16.3073 196.068 16.7292 195.781 17.0781C195.5 17.4271 195.154 17.6953 194.742 17.8828C194.336 18.0651 193.865 18.1562 193.328 18.1562C192.807 18.1562 192.339 18.0495 191.922 17.8359C191.51 17.6224 191.159 17.3229 190.867 16.9375C190.581 16.5521 190.359 16.099 190.203 15.5781C190.052 15.0521 189.977 14.4818 189.977 13.8672ZM191.43 13.7031V13.8672C191.43 14.2891 191.474 14.6875 191.562 15.0625C191.651 15.4323 191.786 15.7604 191.969 16.0469C192.156 16.3333 192.391 16.5599 192.672 16.7266C192.958 16.888 193.297 16.9688 193.688 16.9688C194.167 16.9688 194.565 16.8646 194.883 16.6562C195.206 16.4479 195.464 16.1745 195.656 15.8359C195.849 15.4922 195.997 15.125 196.102 14.7344V12.8516C196.044 12.5651 195.953 12.2865 195.828 12.0156C195.708 11.7448 195.552 11.5026 195.359 11.2891C195.167 11.0703 194.932 10.8984 194.656 10.7734C194.385 10.6432 194.068 10.5781 193.703 10.5781C193.307 10.5781 192.966 10.6615 192.68 10.8281C192.393 10.9948 192.156 11.224 191.969 11.5156C191.786 11.8021 191.651 12.1328 191.562 12.5078C191.474 12.8828 191.43 13.2812 191.43 13.7031ZM201.586 18H200.141V8.65625C200.141 8.04688 200.25 7.53385 200.469 7.11719C200.693 6.69531 201.013 6.3776 201.43 6.16406C201.846 5.94531 202.341 5.83594 202.914 5.83594C203.081 5.83594 203.247 5.84635 203.414 5.86719C203.586 5.88802 203.753 5.91927 203.914 5.96094L203.836 7.14062C203.727 7.11458 203.602 7.09635 203.461 7.08594C203.326 7.07552 203.19 7.07031 203.055 7.07031C202.747 7.07031 202.482 7.13281 202.258 7.25781C202.039 7.3776 201.872 7.55469 201.758 7.78906C201.643 8.02344 201.586 8.3125 201.586 8.65625V18ZM203.383 9.54688V10.6562H198.805V9.54688H203.383ZM208.531 9.54688V10.6562H203.961V9.54688H208.531ZM205.508 7.49219H206.953V15.9062C206.953 16.1927 206.997 16.4089 207.086 16.5547C207.174 16.7005 207.289 16.7969 207.43 16.8438C207.57 16.8906 207.721 16.9141 207.883 16.9141C208.003 16.9141 208.128 16.9036 208.258 16.8828C208.393 16.8568 208.495 16.8359 208.562 16.8203L208.57 18C208.456 18.0365 208.305 18.0703 208.117 18.1016C207.935 18.138 207.714 18.1562 207.453 18.1562C207.099 18.1562 206.773 18.0859 206.477 17.9453C206.18 17.8047 205.943 17.5703 205.766 17.2422C205.594 16.9089 205.508 16.4609 205.508 15.8984V7.49219Z" fill="#65665C"/>
</svg>
