<svg width="358" height="25" viewBox="0 0 358 25" fill="none" xmlns="http://www.w3.org/2000/svg">
<path d="M37.3984 15.8125V17H29.9531V15.9609L33.6797 11.8125C34.138 11.3021 34.4922 10.8698 34.7422 10.5156C34.9974 10.1562 35.1745 9.83594 35.2734 9.55469C35.3776 9.26823 35.4297 8.97656 35.4297 8.67969C35.4297 8.30469 35.3516 7.96615 35.1953 7.66406C35.0443 7.35677 34.8203 7.11198 34.5234 6.92969C34.2266 6.7474 33.8672 6.65625 33.4453 6.65625C32.9401 6.65625 32.5182 6.75521 32.1797 6.95312C31.8464 7.14583 31.5964 7.41667 31.4297 7.76562C31.263 8.11458 31.1797 8.51562 31.1797 8.96875H29.7344C29.7344 8.32812 29.875 7.74219 30.1562 7.21094C30.4375 6.67969 30.8542 6.25781 31.4062 5.94531C31.9583 5.6276 32.638 5.46875 33.4453 5.46875C34.1641 5.46875 34.7786 5.59635 35.2891 5.85156C35.7995 6.10156 36.1901 6.45573 36.4609 6.91406C36.737 7.36719 36.875 7.89844 36.875 8.50781C36.875 8.84115 36.8177 9.17969 36.7031 9.52344C36.5938 9.86198 36.4401 10.2005 36.2422 10.5391C36.0495 10.8776 35.8229 11.2109 35.5625 11.5391C35.3073 11.8672 35.0339 12.1901 34.7422 12.5078L31.6953 15.8125H37.3984Z" fill="#65665C"/>
<path d="M16.3438 12.6562H17.6562V16.6562C17.6562 17.0104 17.5208 17.3229 17.25 17.5938C17 17.8646 16.6979 18 16.3438 18C16.3438 18.1875 16.2708 18.3438 16.125 18.4688C16 18.5938 15.8438 18.6562 15.6562 18.6562H6.34375C6.15625 18.6562 5.98958 18.5938 5.84375 18.4688C5.71875 18.3438 5.65625 18.1875 5.65625 18C5.30208 18 4.98958 17.8646 4.71875 17.5938C4.46875 17.3229 4.34375 17.0104 4.34375 16.6562V12.6562H6.34375V12.1562C6.34375 11.7604 6.48958 11.4167 6.78125 11.125C7.09375 10.8125 7.44792 10.6562 7.84375 10.6562C8.26042 10.6562 8.63542 10.8229 8.96875 11.1562L9.875 12.1875C10 12.3333 10.1875 12.4896 10.4375 12.6562H15V7.21875C15 7.07292 14.9479 6.94792 14.8438 6.84375C14.7396 6.71875 14.6042 6.65625 14.4375 6.65625C14.2917 6.65625 14.1667 6.70833 14.0625 6.8125L13.2188 7.65625C13.2604 7.82292 13.2812 7.9375 13.2812 8C13.2812 8.22917 13.2083 8.46875 13.0625 8.71875L11.2188 6.875C11.4688 6.72917 11.7083 6.65625 11.9375 6.65625C12.0417 6.65625 12.1562 6.67708 12.2812 6.71875L13.125 5.875C13.4792 5.52083 13.9167 5.34375 14.4375 5.34375C14.9583 5.34375 15.4062 5.53125 15.7812 5.90625C16.1562 6.26042 16.3438 6.69792 16.3438 7.21875V12.6562ZM6.71875 9.625C6.46875 9.35417 6.34375 9.03125 6.34375 8.65625C6.34375 8.28125 6.46875 7.96875 6.71875 7.71875C6.96875 7.46875 7.28125 7.34375 7.65625 7.34375C8.03125 7.34375 8.34375 7.46875 8.59375 7.71875C8.86458 7.96875 9 8.28125 9 8.65625C9 9.03125 8.86458 9.35417 8.59375 9.625C8.34375 9.875 8.03125 10 7.65625 10C7.28125 10 6.96875 9.875 6.71875 9.625Z" fill="#65665C"/>
<path d="M99.6328 13.1719V14.3594H91.4141V13.5078L96.5078 5.625H97.6875L96.4219 7.90625L93.0547 13.1719H99.6328ZM98.0469 5.625V17H96.6016V5.625H98.0469Z" fill="#65665C"/>
<path d="M79 11.1875V9.34375C79 8.96875 78.9062 8.63542 78.7188 8.34375C78.5521 8.03125 78.3125 7.79167 78 7.625C77.7083 7.4375 77.375 7.34375 77 7.34375H74.3438C74.0729 7.34375 73.8229 7.39583 73.5938 7.5C73.3646 7.58333 73.1667 7.69792 73 7.84375C72.8333 7.69792 72.6354 7.58333 72.4062 7.5C72.1771 7.39583 71.9271 7.34375 71.6562 7.34375H69C68.625 7.34375 68.2812 7.4375 67.9688 7.625C67.6771 7.79167 67.4375 8.03125 67.25 8.34375C67.0833 8.63542 67 8.96875 67 9.34375V11.1875C66.7917 11.375 66.625 11.5938 66.5 11.8438C66.3958 12.0938 66.3438 12.3646 66.3438 12.6562V16.6562H67.6562V15.3438H78.3438V16.6562H79.6562V12.6562C79.6562 12.3646 79.5938 12.0938 79.4688 11.8438C79.3646 11.5938 79.2083 11.375 79 11.1875ZM74.3438 8.65625H77C77.1875 8.65625 77.3438 8.72917 77.4688 8.875C77.5938 9 77.6562 9.15625 77.6562 9.34375V10.6562H73.6562V9.34375C73.6562 9.15625 73.7188 9 73.8438 8.875C73.9896 8.72917 74.1562 8.65625 74.3438 8.65625ZM68.3438 9.34375C68.3438 9.15625 68.4062 9 68.5312 8.875C68.6562 8.72917 68.8125 8.65625 69 8.65625H71.6562C71.8438 8.65625 72 8.72917 72.125 8.875C72.2708 9 72.3438 9.15625 72.3438 9.34375V10.6562H68.3438V9.34375ZM67.6562 14V12.6562C67.6562 12.4896 67.7188 12.3438 67.8438 12.2188C67.9896 12.0729 68.1562 12 68.3438 12H77.6562C77.8438 12 78 12.0729 78.125 12.2188C78.2708 12.3438 78.3438 12.4896 78.3438 12.6562V14H67.6562Z" fill="#65665C"/>
<path d="M156.055 10.6016H157.086C157.591 10.6016 158.008 10.5182 158.336 10.3516C158.669 10.1797 158.917 9.94792 159.078 9.65625C159.245 9.35938 159.328 9.02604 159.328 8.65625C159.328 8.21875 159.255 7.85156 159.109 7.55469C158.964 7.25781 158.745 7.03385 158.453 6.88281C158.161 6.73177 157.792 6.65625 157.344 6.65625C156.938 6.65625 156.578 6.73698 156.266 6.89844C155.958 7.05469 155.716 7.27865 155.539 7.57031C155.367 7.86198 155.281 8.20573 155.281 8.60156H153.836C153.836 8.02344 153.982 7.4974 154.273 7.02344C154.565 6.54948 154.974 6.17188 155.5 5.89062C156.031 5.60938 156.646 5.46875 157.344 5.46875C158.031 5.46875 158.633 5.59115 159.148 5.83594C159.664 6.07552 160.065 6.4349 160.352 6.91406C160.638 7.38802 160.781 7.97917 160.781 8.6875C160.781 8.97396 160.714 9.28125 160.578 9.60938C160.448 9.93229 160.242 10.2344 159.961 10.5156C159.685 10.7969 159.326 11.0286 158.883 11.2109C158.44 11.388 157.909 11.4766 157.289 11.4766H156.055V10.6016ZM156.055 11.7891V10.9219H157.289C158.013 10.9219 158.612 11.0078 159.086 11.1797C159.56 11.3516 159.932 11.5807 160.203 11.8672C160.479 12.1536 160.672 12.4688 160.781 12.8125C160.896 13.151 160.953 13.4896 160.953 13.8281C160.953 14.3594 160.862 14.8307 160.68 15.2422C160.503 15.6536 160.25 16.0026 159.922 16.2891C159.599 16.5755 159.219 16.7917 158.781 16.9375C158.344 17.0833 157.867 17.1562 157.352 17.1562C156.857 17.1562 156.391 17.0859 155.953 16.9453C155.521 16.8047 155.138 16.6016 154.805 16.3359C154.471 16.0651 154.211 15.7344 154.023 15.3438C153.836 14.9479 153.742 14.4974 153.742 13.9922H155.188C155.188 14.388 155.273 14.7344 155.445 15.0312C155.622 15.3281 155.872 15.5599 156.195 15.7266C156.523 15.888 156.909 15.9688 157.352 15.9688C157.794 15.9688 158.174 15.8932 158.492 15.7422C158.815 15.5859 159.062 15.3516 159.234 15.0391C159.411 14.7266 159.5 14.3333 159.5 13.8594C159.5 13.3854 159.401 12.9974 159.203 12.6953C159.005 12.388 158.724 12.1615 158.359 12.0156C158 11.8646 157.576 11.7891 157.086 11.7891H156.055ZM170.398 15.8125V17H162.953V15.9609L166.68 11.8125C167.138 11.3021 167.492 10.8698 167.742 10.5156C167.997 10.1562 168.174 9.83594 168.273 9.55469C168.378 9.26823 168.43 8.97656 168.43 8.67969C168.43 8.30469 168.352 7.96615 168.195 7.66406C168.044 7.35677 167.82 7.11198 167.523 6.92969C167.227 6.7474 166.867 6.65625 166.445 6.65625C165.94 6.65625 165.518 6.75521 165.18 6.95312C164.846 7.14583 164.596 7.41667 164.43 7.76562C164.263 8.11458 164.18 8.51562 164.18 8.96875H162.734C162.734 8.32812 162.875 7.74219 163.156 7.21094C163.438 6.67969 163.854 6.25781 164.406 5.94531C164.958 5.6276 165.638 5.46875 166.445 5.46875C167.164 5.46875 167.779 5.59635 168.289 5.85156C168.799 6.10156 169.19 6.45573 169.461 6.91406C169.737 7.36719 169.875 7.89844 169.875 8.50781C169.875 8.84115 169.818 9.17969 169.703 9.52344C169.594 9.86198 169.44 10.2005 169.242 10.5391C169.049 10.8776 168.823 11.2109 168.562 11.5391C168.307 11.8672 168.034 12.1901 167.742 12.5078L164.695 15.8125H170.398ZM179.086 10.4062V12.1406C179.086 13.0729 179.003 13.8594 178.836 14.5C178.669 15.1406 178.43 15.6562 178.117 16.0469C177.805 16.4375 177.427 16.7214 176.984 16.8984C176.547 17.0703 176.052 17.1562 175.5 17.1562C175.062 17.1562 174.659 17.1016 174.289 16.9922C173.919 16.8828 173.586 16.7083 173.289 16.4688C172.997 16.224 172.747 15.9062 172.539 15.5156C172.331 15.125 172.172 14.651 172.062 14.0938C171.953 13.5365 171.898 12.8854 171.898 12.1406V10.4062C171.898 9.47396 171.982 8.69271 172.148 8.0625C172.32 7.43229 172.562 6.92708 172.875 6.54688C173.188 6.16146 173.562 5.88542 174 5.71875C174.443 5.55208 174.938 5.46875 175.484 5.46875C175.927 5.46875 176.333 5.52344 176.703 5.63281C177.078 5.73698 177.411 5.90625 177.703 6.14062C177.995 6.36979 178.242 6.67708 178.445 7.0625C178.654 7.44271 178.812 7.90885 178.922 8.46094C179.031 9.01302 179.086 9.66146 179.086 10.4062ZM177.633 12.375V10.1641C177.633 9.65365 177.602 9.20573 177.539 8.82031C177.482 8.42969 177.396 8.09635 177.281 7.82031C177.167 7.54427 177.021 7.32031 176.844 7.14844C176.672 6.97656 176.471 6.85156 176.242 6.77344C176.018 6.6901 175.766 6.64844 175.484 6.64844C175.141 6.64844 174.836 6.71354 174.57 6.84375C174.305 6.96875 174.081 7.16927 173.898 7.44531C173.721 7.72135 173.586 8.08333 173.492 8.53125C173.398 8.97917 173.352 9.52344 173.352 10.1641V12.375C173.352 12.8854 173.38 13.3359 173.438 13.7266C173.5 14.1172 173.591 14.4557 173.711 14.7422C173.831 15.0234 173.977 15.2552 174.148 15.4375C174.32 15.6198 174.518 15.7552 174.742 15.8438C174.971 15.9271 175.224 15.9688 175.5 15.9688C175.854 15.9688 176.164 15.901 176.43 15.7656C176.695 15.6302 176.917 15.4193 177.094 15.1328C177.276 14.8411 177.411 14.4688 177.5 14.0156C177.589 13.5573 177.633 13.0104 177.633 12.375ZM188.086 10.4062V12.1406C188.086 13.0729 188.003 13.8594 187.836 14.5C187.669 15.1406 187.43 15.6562 187.117 16.0469C186.805 16.4375 186.427 16.7214 185.984 16.8984C185.547 17.0703 185.052 17.1562 184.5 17.1562C184.062 17.1562 183.659 17.1016 183.289 16.9922C182.919 16.8828 182.586 16.7083 182.289 16.4688C181.997 16.224 181.747 15.9062 181.539 15.5156C181.331 15.125 181.172 14.651 181.062 14.0938C180.953 13.5365 180.898 12.8854 180.898 12.1406V10.4062C180.898 9.47396 180.982 8.69271 181.148 8.0625C181.32 7.43229 181.562 6.92708 181.875 6.54688C182.188 6.16146 182.562 5.88542 183 5.71875C183.443 5.55208 183.938 5.46875 184.484 5.46875C184.927 5.46875 185.333 5.52344 185.703 5.63281C186.078 5.73698 186.411 5.90625 186.703 6.14062C186.995 6.36979 187.242 6.67708 187.445 7.0625C187.654 7.44271 187.812 7.90885 187.922 8.46094C188.031 9.01302 188.086 9.66146 188.086 10.4062ZM186.633 12.375V10.1641C186.633 9.65365 186.602 9.20573 186.539 8.82031C186.482 8.42969 186.396 8.09635 186.281 7.82031C186.167 7.54427 186.021 7.32031 185.844 7.14844C185.672 6.97656 185.471 6.85156 185.242 6.77344C185.018 6.6901 184.766 6.64844 184.484 6.64844C184.141 6.64844 183.836 6.71354 183.57 6.84375C183.305 6.96875 183.081 7.16927 182.898 7.44531C182.721 7.72135 182.586 8.08333 182.492 8.53125C182.398 8.97917 182.352 9.52344 182.352 10.1641V12.375C182.352 12.8854 182.38 13.3359 182.438 13.7266C182.5 14.1172 182.591 14.4557 182.711 14.7422C182.831 15.0234 182.977 15.2552 183.148 15.4375C183.32 15.6198 183.518 15.7552 183.742 15.8438C183.971 15.9271 184.224 15.9688 184.5 15.9688C184.854 15.9688 185.164 15.901 185.43 15.7656C185.695 15.6302 185.917 15.4193 186.094 15.1328C186.276 14.8411 186.411 14.4688 186.5 14.0156C186.589 13.5573 186.633 13.0104 186.633 12.375ZM198.992 14.7578C198.992 14.5495 198.945 14.3568 198.852 14.1797C198.763 13.9974 198.578 13.8333 198.297 13.6875C198.021 13.5365 197.604 13.4062 197.047 13.2969C196.578 13.1979 196.154 13.0807 195.773 12.9453C195.398 12.8099 195.078 12.6458 194.812 12.4531C194.552 12.2604 194.352 12.0339 194.211 11.7734C194.07 11.513 194 11.2083 194 10.8594C194 10.526 194.073 10.2109 194.219 9.91406C194.37 9.61719 194.581 9.35417 194.852 9.125C195.128 8.89583 195.458 8.71615 195.844 8.58594C196.229 8.45573 196.659 8.39062 197.133 8.39062C197.81 8.39062 198.388 8.51042 198.867 8.75C199.346 8.98958 199.714 9.3099 199.969 9.71094C200.224 10.1068 200.352 10.5469 200.352 11.0312H198.906C198.906 10.7969 198.836 10.5703 198.695 10.3516C198.56 10.1276 198.359 9.94271 198.094 9.79688C197.833 9.65104 197.513 9.57812 197.133 9.57812C196.732 9.57812 196.406 9.64062 196.156 9.76562C195.911 9.88542 195.732 10.0391 195.617 10.2266C195.508 10.4141 195.453 10.612 195.453 10.8203C195.453 10.9766 195.479 11.1172 195.531 11.2422C195.589 11.362 195.688 11.474 195.828 11.5781C195.969 11.6771 196.167 11.7708 196.422 11.8594C196.677 11.9479 197.003 12.0365 197.398 12.125C198.091 12.2812 198.661 12.4688 199.109 12.6875C199.557 12.9062 199.891 13.1745 200.109 13.4922C200.328 13.8099 200.438 14.1953 200.438 14.6484C200.438 15.0182 200.359 15.3568 200.203 15.6641C200.052 15.9714 199.831 16.237 199.539 16.4609C199.253 16.6797 198.909 16.8516 198.508 16.9766C198.112 17.0964 197.667 17.1562 197.172 17.1562C196.427 17.1562 195.797 17.0234 195.281 16.7578C194.766 16.4922 194.375 16.1484 194.109 15.7266C193.844 15.3047 193.711 14.8594 193.711 14.3906H195.164C195.185 14.7865 195.299 15.1016 195.508 15.3359C195.716 15.5651 195.971 15.7292 196.273 15.8281C196.576 15.9219 196.875 15.9688 197.172 15.9688C197.568 15.9688 197.898 15.9167 198.164 15.8125C198.435 15.7083 198.641 15.5651 198.781 15.3828C198.922 15.2005 198.992 14.9922 198.992 14.7578ZM207.656 20.25V10.1719L207.781 8.54688H209.109V20.25H207.656ZM201.977 12.8672V12.7031C201.977 12.0573 202.052 11.4714 202.203 10.9453C202.354 10.4141 202.576 9.95833 202.867 9.57812C203.159 9.19792 203.51 8.90625 203.922 8.70312C204.339 8.49479 204.812 8.39062 205.344 8.39062C205.875 8.39062 206.341 8.48438 206.742 8.67188C207.148 8.85417 207.492 9.1224 207.773 9.47656C208.06 9.82552 208.286 10.2474 208.453 10.7422C208.62 11.237 208.734 11.7969 208.797 12.4219V13.1406C208.74 13.7604 208.628 14.3177 208.461 14.8125C208.294 15.3073 208.068 15.7292 207.781 16.0781C207.5 16.4271 207.154 16.6953 206.742 16.8828C206.336 17.0651 205.865 17.1562 205.328 17.1562C204.807 17.1562 204.339 17.0495 203.922 16.8359C203.51 16.6224 203.159 16.3229 202.867 15.9375C202.581 15.5521 202.359 15.099 202.203 14.5781C202.052 14.0521 201.977 13.4818 201.977 12.8672ZM203.43 12.7031V12.8672C203.43 13.2891 203.474 13.6875 203.562 14.0625C203.651 14.4323 203.786 14.7604 203.969 15.0469C204.156 15.3333 204.391 15.5599 204.672 15.7266C204.958 15.888 205.297 15.9688 205.688 15.9688C206.167 15.9688 206.565 15.8646 206.883 15.6562C207.206 15.4479 207.464 15.1745 207.656 14.8359C207.849 14.4922 207.997 14.125 208.102 13.7344V11.8516C208.044 11.5651 207.953 11.2865 207.828 11.0156C207.708 10.7448 207.552 10.5026 207.359 10.2891C207.167 10.0703 206.932 9.89844 206.656 9.77344C206.385 9.64323 206.068 9.57812 205.703 9.57812C205.307 9.57812 204.966 9.66146 204.68 9.82812C204.393 9.99479 204.156 10.224 203.969 10.5156C203.786 10.8021 203.651 11.1328 203.562 11.5078C203.474 11.8828 203.43 12.2812 203.43 12.7031ZM213.586 17H212.141V7.65625C212.141 7.04688 212.25 6.53385 212.469 6.11719C212.693 5.69531 213.013 5.3776 213.43 5.16406C213.846 4.94531 214.341 4.83594 214.914 4.83594C215.081 4.83594 215.247 4.84635 215.414 4.86719C215.586 4.88802 215.753 4.91927 215.914 4.96094L215.836 6.14062C215.727 6.11458 215.602 6.09635 215.461 6.08594C215.326 6.07552 215.19 6.07031 215.055 6.07031C214.747 6.07031 214.482 6.13281 214.258 6.25781C214.039 6.3776 213.872 6.55469 213.758 6.78906C213.643 7.02344 213.586 7.3125 213.586 7.65625V17ZM215.383 8.54688V9.65625H210.805V8.54688H215.383ZM220.531 8.54688V9.65625H215.961V8.54688H220.531ZM217.508 6.49219H218.953V14.9062C218.953 15.1927 218.997 15.4089 219.086 15.5547C219.174 15.7005 219.289 15.7969 219.43 15.8438C219.57 15.8906 219.721 15.9141 219.883 15.9141C220.003 15.9141 220.128 15.9036 220.258 15.8828C220.393 15.8568 220.495 15.8359 220.562 15.8203L220.57 17C220.456 17.0365 220.305 17.0703 220.117 17.1016C219.935 17.138 219.714 17.1562 219.453 17.1562C219.099 17.1562 218.773 17.0859 218.477 16.9453C218.18 16.8047 217.943 16.5703 217.766 16.2422C217.594 15.9089 217.508 15.4609 217.508 14.8984V6.49219Z" fill="#65665C"/>
<path d="M131.656 15.3438H135.5L131.656 11.5V15.3438ZM138.781 15.7812L140.344 17.3438H131C130.646 17.3438 130.333 17.2083 130.062 16.9375C129.792 16.6667 129.656 16.3542 129.656 16V6.65625L131.219 8.21875L130.531 8.9375L131 9.40625L131.688 8.6875L133 10L132.281 10.6875L132.75 11.1875L133.469 10.4688L134.781 11.7812L134.062 12.4688L134.531 12.9375L135.25 12.25L136.531 13.5312L135.812 14.25L136.312 14.7188L137 14L138.312 15.3125L137.594 16L138.062 16.4688L138.781 15.7812Z" fill="#65665C"/>
</svg>
