<svg width="358" height="25" viewBox="0 0 358 25" fill="none" xmlns="http://www.w3.org/2000/svg">
<path d="M15.3438 13.6562H16.6562V17.6562C16.6562 18.0104 16.5208 18.3229 16.25 18.5938C16 18.8646 15.6979 19 15.3438 19C15.3438 19.1875 15.2708 19.3438 15.125 19.4688C15 19.5938 14.8438 19.6562 14.6562 19.6562H5.34375C5.15625 19.6562 4.98958 19.5938 4.84375 19.4688C4.71875 19.3438 4.65625 19.1875 4.65625 19C4.30208 19 3.98958 18.8646 3.71875 18.5938C3.46875 18.3229 3.34375 18.0104 3.34375 17.6562V13.6562H5.34375V13.1562C5.34375 12.7604 5.48958 12.4167 5.78125 12.125C6.09375 11.8125 6.44792 11.6562 6.84375 11.6562C7.26042 11.6562 7.63542 11.8229 7.96875 12.1562L8.875 13.1875C9 13.3333 9.1875 13.4896 9.4375 13.6562H14V8.21875C14 8.07292 13.9479 7.94792 13.8438 7.84375C13.7396 7.71875 13.6042 7.65625 13.4375 7.65625C13.2917 7.65625 13.1667 7.70833 13.0625 7.8125L12.2188 8.65625C12.2604 8.82292 12.2812 8.9375 12.2812 9C12.2812 9.22917 12.2083 9.46875 12.0625 9.71875L10.2188 7.875C10.4688 7.72917 10.7083 7.65625 10.9375 7.65625C11.0417 7.65625 11.1562 7.67708 11.2812 7.71875L12.125 6.875C12.4792 6.52083 12.9167 6.34375 13.4375 6.34375C13.9583 6.34375 14.4062 6.53125 14.7812 6.90625C15.1562 7.26042 15.3438 7.69792 15.3438 8.21875V13.6562ZM5.71875 10.625C5.46875 10.3542 5.34375 10.0312 5.34375 9.65625C5.34375 9.28125 5.46875 8.96875 5.71875 8.71875C5.96875 8.46875 6.28125 8.34375 6.65625 8.34375C7.03125 8.34375 7.34375 8.46875 7.59375 8.71875C7.86458 8.96875 8 9.28125 8 9.65625C8 10.0312 7.86458 10.3542 7.59375 10.625C7.34375 10.875 7.03125 11 6.65625 11C6.28125 11 5.96875 10.875 5.71875 10.625Z" fill="#65665C"/>
<path d="M36.3984 16.8125V18H28.9531V16.9609L32.6797 12.8125C33.138 12.3021 33.4922 11.8698 33.7422 11.5156C33.9974 11.1562 34.1745 10.8359 34.2734 10.5547C34.3776 10.2682 34.4297 9.97656 34.4297 9.67969C34.4297 9.30469 34.3516 8.96615 34.1953 8.66406C34.0443 8.35677 33.8203 8.11198 33.5234 7.92969C33.2266 7.7474 32.8672 7.65625 32.4453 7.65625C31.9401 7.65625 31.5182 7.75521 31.1797 7.95312C30.8464 8.14583 30.5964 8.41667 30.4297 8.76562C30.263 9.11458 30.1797 9.51562 30.1797 9.96875H28.7344C28.7344 9.32812 28.875 8.74219 29.1562 8.21094C29.4375 7.67969 29.8542 7.25781 30.4062 6.94531C30.9583 6.6276 31.638 6.46875 32.4453 6.46875C33.1641 6.46875 33.7786 6.59635 34.2891 6.85156C34.7995 7.10156 35.1901 7.45573 35.4609 7.91406C35.737 8.36719 35.875 8.89844 35.875 9.50781C35.875 9.84115 35.8177 10.1797 35.7031 10.5234C35.5938 10.862 35.4401 11.2005 35.2422 11.5391C35.0495 11.8776 34.8229 12.2109 34.5625 12.5391C34.3073 12.8672 34.0339 13.1901 33.7422 13.5078L30.6953 16.8125H36.3984Z" fill="#65665C"/>
<path d="M78 12.1875V10.3438C78 9.96875 77.9062 9.63542 77.7188 9.34375C77.5521 9.03125 77.3125 8.79167 77 8.625C76.7083 8.4375 76.375 8.34375 76 8.34375H73.3438C73.0729 8.34375 72.8229 8.39583 72.5938 8.5C72.3646 8.58333 72.1667 8.69792 72 8.84375C71.8333 8.69792 71.6354 8.58333 71.4062 8.5C71.1771 8.39583 70.9271 8.34375 70.6562 8.34375H68C67.625 8.34375 67.2812 8.4375 66.9688 8.625C66.6771 8.79167 66.4375 9.03125 66.25 9.34375C66.0833 9.63542 66 9.96875 66 10.3438V12.1875C65.7917 12.375 65.625 12.5938 65.5 12.8438C65.3958 13.0938 65.3438 13.3646 65.3438 13.6562V17.6562H66.6562V16.3438H77.3438V17.6562H78.6562V13.6562C78.6562 13.3646 78.5938 13.0938 78.4688 12.8438C78.3646 12.5938 78.2083 12.375 78 12.1875ZM73.3438 9.65625H76C76.1875 9.65625 76.3438 9.72917 76.4688 9.875C76.5938 10 76.6562 10.1562 76.6562 10.3438V11.6562H72.6562V10.3438C72.6562 10.1562 72.7188 10 72.8438 9.875C72.9896 9.72917 73.1562 9.65625 73.3438 9.65625ZM67.3438 10.3438C67.3438 10.1562 67.4062 10 67.5312 9.875C67.6562 9.72917 67.8125 9.65625 68 9.65625H70.6562C70.8438 9.65625 71 9.72917 71.125 9.875C71.2708 10 71.3438 10.1562 71.3438 10.3438V11.6562H67.3438V10.3438ZM66.6562 15V13.6562C66.6562 13.4896 66.7188 13.3438 66.8438 13.2188C66.9896 13.0729 67.1562 13 67.3438 13H76.6562C76.8438 13 77 13.0729 77.125 13.2188C77.2708 13.3438 77.3438 13.4896 77.3438 13.6562V15H66.6562Z" fill="#65665C"/>
<path d="M93.0547 11.6016H94.0859C94.5911 11.6016 95.0078 11.5182 95.3359 11.3516C95.6693 11.1797 95.9167 10.9479 96.0781 10.6562C96.2448 10.3594 96.3281 10.026 96.3281 9.65625C96.3281 9.21875 96.2552 8.85156 96.1094 8.55469C95.9635 8.25781 95.7448 8.03385 95.4531 7.88281C95.1615 7.73177 94.7917 7.65625 94.3438 7.65625C93.9375 7.65625 93.5781 7.73698 93.2656 7.89844C92.9583 8.05469 92.7161 8.27865 92.5391 8.57031C92.3672 8.86198 92.2812 9.20573 92.2812 9.60156H90.8359C90.8359 9.02344 90.9818 8.4974 91.2734 8.02344C91.5651 7.54948 91.974 7.17188 92.5 6.89062C93.0312 6.60938 93.6458 6.46875 94.3438 6.46875C95.0312 6.46875 95.6328 6.59115 96.1484 6.83594C96.6641 7.07552 97.0651 7.4349 97.3516 7.91406C97.638 8.38802 97.7812 8.97917 97.7812 9.6875C97.7812 9.97396 97.7135 10.2812 97.5781 10.6094C97.4479 10.9323 97.2422 11.2344 96.9609 11.5156C96.6849 11.7969 96.3255 12.0286 95.8828 12.2109C95.4401 12.388 94.9089 12.4766 94.2891 12.4766H93.0547V11.6016ZM93.0547 12.7891V11.9219H94.2891C95.013 11.9219 95.612 12.0078 96.0859 12.1797C96.5599 12.3516 96.9323 12.5807 97.2031 12.8672C97.4792 13.1536 97.6719 13.4688 97.7812 13.8125C97.8958 14.151 97.9531 14.4896 97.9531 14.8281C97.9531 15.3594 97.862 15.8307 97.6797 16.2422C97.5026 16.6536 97.25 17.0026 96.9219 17.2891C96.599 17.5755 96.2188 17.7917 95.7812 17.9375C95.3438 18.0833 94.8672 18.1562 94.3516 18.1562C93.8568 18.1562 93.3906 18.0859 92.9531 17.9453C92.5208 17.8047 92.138 17.6016 91.8047 17.3359C91.4714 17.0651 91.2109 16.7344 91.0234 16.3438C90.8359 15.9479 90.7422 15.4974 90.7422 14.9922H92.1875C92.1875 15.388 92.2734 15.7344 92.4453 16.0312C92.6224 16.3281 92.8724 16.5599 93.1953 16.7266C93.5234 16.888 93.9089 16.9688 94.3516 16.9688C94.7943 16.9688 95.1745 16.8932 95.4922 16.7422C95.8151 16.5859 96.0625 16.3516 96.2344 16.0391C96.4115 15.7266 96.5 15.3333 96.5 14.8594C96.5 14.3854 96.401 13.9974 96.2031 13.6953C96.0052 13.388 95.724 13.1615 95.3594 13.0156C95 12.8646 94.5755 12.7891 94.0859 12.7891H93.0547Z" fill="#65665C"/>
<path d="M130.656 16.3438H134.5L130.656 12.5V16.3438ZM137.781 16.7812L139.344 18.3438H130C129.646 18.3438 129.333 18.2083 129.062 17.9375C128.792 17.6667 128.656 17.3542 128.656 17V7.65625L130.219 9.21875L129.531 9.9375L130 10.4062L130.688 9.6875L132 11L131.281 11.6875L131.75 12.1875L132.469 11.4688L133.781 12.7812L133.062 13.4688L133.531 13.9375L134.25 13.25L135.531 14.5312L134.812 15.25L135.312 15.7188L136 15L137.312 16.3125L136.594 17L137.062 17.4688L137.781 16.7812Z" fill="#65665C"/>
<path d="M157.695 6.5625V18H156.25V8.36719L153.336 9.42969V8.125L157.469 6.5625H157.695ZM169.633 14.1719V15.3594H161.414V14.5078L166.508 6.625H167.688L166.422 8.90625L163.055 14.1719H169.633ZM168.047 6.625V18H166.602V6.625H168.047ZM178.086 11.4062V13.1406C178.086 14.0729 178.003 14.8594 177.836 15.5C177.669 16.1406 177.43 16.6562 177.117 17.0469C176.805 17.4375 176.427 17.7214 175.984 17.8984C175.547 18.0703 175.052 18.1562 174.5 18.1562C174.062 18.1562 173.659 18.1016 173.289 17.9922C172.919 17.8828 172.586 17.7083 172.289 17.4688C171.997 17.224 171.747 16.9062 171.539 16.5156C171.331 16.125 171.172 15.651 171.062 15.0938C170.953 14.5365 170.898 13.8854 170.898 13.1406V11.4062C170.898 10.474 170.982 9.69271 171.148 9.0625C171.32 8.43229 171.562 7.92708 171.875 7.54688C172.188 7.16146 172.562 6.88542 173 6.71875C173.443 6.55208 173.938 6.46875 174.484 6.46875C174.927 6.46875 175.333 6.52344 175.703 6.63281C176.078 6.73698 176.411 6.90625 176.703 7.14062C176.995 7.36979 177.242 7.67708 177.445 8.0625C177.654 8.44271 177.812 8.90885 177.922 9.46094C178.031 10.013 178.086 10.6615 178.086 11.4062ZM176.633 13.375V11.1641C176.633 10.6536 176.602 10.2057 176.539 9.82031C176.482 9.42969 176.396 9.09635 176.281 8.82031C176.167 8.54427 176.021 8.32031 175.844 8.14844C175.672 7.97656 175.471 7.85156 175.242 7.77344C175.018 7.6901 174.766 7.64844 174.484 7.64844C174.141 7.64844 173.836 7.71354 173.57 7.84375C173.305 7.96875 173.081 8.16927 172.898 8.44531C172.721 8.72135 172.586 9.08333 172.492 9.53125C172.398 9.97917 172.352 10.5234 172.352 11.1641V13.375C172.352 13.8854 172.38 14.3359 172.438 14.7266C172.5 15.1172 172.591 15.4557 172.711 15.7422C172.831 16.0234 172.977 16.2552 173.148 16.4375C173.32 16.6198 173.518 16.7552 173.742 16.8438C173.971 16.9271 174.224 16.9688 174.5 16.9688C174.854 16.9688 175.164 16.901 175.43 16.7656C175.695 16.6302 175.917 16.4193 176.094 16.1328C176.276 15.8411 176.411 15.4688 176.5 15.0156C176.589 14.5573 176.633 14.0104 176.633 13.375ZM187.086 11.4062V13.1406C187.086 14.0729 187.003 14.8594 186.836 15.5C186.669 16.1406 186.43 16.6562 186.117 17.0469C185.805 17.4375 185.427 17.7214 184.984 17.8984C184.547 18.0703 184.052 18.1562 183.5 18.1562C183.062 18.1562 182.659 18.1016 182.289 17.9922C181.919 17.8828 181.586 17.7083 181.289 17.4688C180.997 17.224 180.747 16.9062 180.539 16.5156C180.331 16.125 180.172 15.651 180.062 15.0938C179.953 14.5365 179.898 13.8854 179.898 13.1406V11.4062C179.898 10.474 179.982 9.69271 180.148 9.0625C180.32 8.43229 180.562 7.92708 180.875 7.54688C181.188 7.16146 181.562 6.88542 182 6.71875C182.443 6.55208 182.938 6.46875 183.484 6.46875C183.927 6.46875 184.333 6.52344 184.703 6.63281C185.078 6.73698 185.411 6.90625 185.703 7.14062C185.995 7.36979 186.242 7.67708 186.445 8.0625C186.654 8.44271 186.812 8.90885 186.922 9.46094C187.031 10.013 187.086 10.6615 187.086 11.4062ZM185.633 13.375V11.1641C185.633 10.6536 185.602 10.2057 185.539 9.82031C185.482 9.42969 185.396 9.09635 185.281 8.82031C185.167 8.54427 185.021 8.32031 184.844 8.14844C184.672 7.97656 184.471 7.85156 184.242 7.77344C184.018 7.6901 183.766 7.64844 183.484 7.64844C183.141 7.64844 182.836 7.71354 182.57 7.84375C182.305 7.96875 182.081 8.16927 181.898 8.44531C181.721 8.72135 181.586 9.08333 181.492 9.53125C181.398 9.97917 181.352 10.5234 181.352 11.1641V13.375C181.352 13.8854 181.38 14.3359 181.438 14.7266C181.5 15.1172 181.591 15.4557 181.711 15.7422C181.831 16.0234 181.977 16.2552 182.148 16.4375C182.32 16.6198 182.518 16.7552 182.742 16.8438C182.971 16.9271 183.224 16.9688 183.5 16.9688C183.854 16.9688 184.164 16.901 184.43 16.7656C184.695 16.6302 184.917 16.4193 185.094 16.1328C185.276 15.8411 185.411 15.4688 185.5 15.0156C185.589 14.5573 185.633 14.0104 185.633 13.375ZM197.992 15.7578C197.992 15.5495 197.945 15.3568 197.852 15.1797C197.763 14.9974 197.578 14.8333 197.297 14.6875C197.021 14.5365 196.604 14.4062 196.047 14.2969C195.578 14.1979 195.154 14.0807 194.773 13.9453C194.398 13.8099 194.078 13.6458 193.812 13.4531C193.552 13.2604 193.352 13.0339 193.211 12.7734C193.07 12.513 193 12.2083 193 11.8594C193 11.526 193.073 11.2109 193.219 10.9141C193.37 10.6172 193.581 10.3542 193.852 10.125C194.128 9.89583 194.458 9.71615 194.844 9.58594C195.229 9.45573 195.659 9.39062 196.133 9.39062C196.81 9.39062 197.388 9.51042 197.867 9.75C198.346 9.98958 198.714 10.3099 198.969 10.7109C199.224 11.1068 199.352 11.5469 199.352 12.0312H197.906C197.906 11.7969 197.836 11.5703 197.695 11.3516C197.56 11.1276 197.359 10.9427 197.094 10.7969C196.833 10.651 196.513 10.5781 196.133 10.5781C195.732 10.5781 195.406 10.6406 195.156 10.7656C194.911 10.8854 194.732 11.0391 194.617 11.2266C194.508 11.4141 194.453 11.612 194.453 11.8203C194.453 11.9766 194.479 12.1172 194.531 12.2422C194.589 12.362 194.688 12.474 194.828 12.5781C194.969 12.6771 195.167 12.7708 195.422 12.8594C195.677 12.9479 196.003 13.0365 196.398 13.125C197.091 13.2812 197.661 13.4688 198.109 13.6875C198.557 13.9062 198.891 14.1745 199.109 14.4922C199.328 14.8099 199.438 15.1953 199.438 15.6484C199.438 16.0182 199.359 16.3568 199.203 16.6641C199.052 16.9714 198.831 17.237 198.539 17.4609C198.253 17.6797 197.909 17.8516 197.508 17.9766C197.112 18.0964 196.667 18.1562 196.172 18.1562C195.427 18.1562 194.797 18.0234 194.281 17.7578C193.766 17.4922 193.375 17.1484 193.109 16.7266C192.844 16.3047 192.711 15.8594 192.711 15.3906H194.164C194.185 15.7865 194.299 16.1016 194.508 16.3359C194.716 16.5651 194.971 16.7292 195.273 16.8281C195.576 16.9219 195.875 16.9688 196.172 16.9688C196.568 16.9688 196.898 16.9167 197.164 16.8125C197.435 16.7083 197.641 16.5651 197.781 16.3828C197.922 16.2005 197.992 15.9922 197.992 15.7578ZM206.656 21.25V11.1719L206.781 9.54688H208.109V21.25H206.656ZM200.977 13.8672V13.7031C200.977 13.0573 201.052 12.4714 201.203 11.9453C201.354 11.4141 201.576 10.9583 201.867 10.5781C202.159 10.1979 202.51 9.90625 202.922 9.70312C203.339 9.49479 203.812 9.39062 204.344 9.39062C204.875 9.39062 205.341 9.48438 205.742 9.67188C206.148 9.85417 206.492 10.1224 206.773 10.4766C207.06 10.8255 207.286 11.2474 207.453 11.7422C207.62 12.237 207.734 12.7969 207.797 13.4219V14.1406C207.74 14.7604 207.628 15.3177 207.461 15.8125C207.294 16.3073 207.068 16.7292 206.781 17.0781C206.5 17.4271 206.154 17.6953 205.742 17.8828C205.336 18.0651 204.865 18.1562 204.328 18.1562C203.807 18.1562 203.339 18.0495 202.922 17.8359C202.51 17.6224 202.159 17.3229 201.867 16.9375C201.581 16.5521 201.359 16.099 201.203 15.5781C201.052 15.0521 200.977 14.4818 200.977 13.8672ZM202.43 13.7031V13.8672C202.43 14.2891 202.474 14.6875 202.562 15.0625C202.651 15.4323 202.786 15.7604 202.969 16.0469C203.156 16.3333 203.391 16.5599 203.672 16.7266C203.958 16.888 204.297 16.9688 204.688 16.9688C205.167 16.9688 205.565 16.8646 205.883 16.6562C206.206 16.4479 206.464 16.1745 206.656 15.8359C206.849 15.4922 206.997 15.125 207.102 14.7344V12.8516C207.044 12.5651 206.953 12.2865 206.828 12.0156C206.708 11.7448 206.552 11.5026 206.359 11.2891C206.167 11.0703 205.932 10.8984 205.656 10.7734C205.385 10.6432 205.068 10.5781 204.703 10.5781C204.307 10.5781 203.966 10.6615 203.68 10.8281C203.393 10.9948 203.156 11.224 202.969 11.5156C202.786 11.8021 202.651 12.1328 202.562 12.5078C202.474 12.8828 202.43 13.2812 202.43 13.7031ZM212.586 18H211.141V8.65625C211.141 8.04688 211.25 7.53385 211.469 7.11719C211.693 6.69531 212.013 6.3776 212.43 6.16406C212.846 5.94531 213.341 5.83594 213.914 5.83594C214.081 5.83594 214.247 5.84635 214.414 5.86719C214.586 5.88802 214.753 5.91927 214.914 5.96094L214.836 7.14062C214.727 7.11458 214.602 7.09635 214.461 7.08594C214.326 7.07552 214.19 7.07031 214.055 7.07031C213.747 7.07031 213.482 7.13281 213.258 7.25781C213.039 7.3776 212.872 7.55469 212.758 7.78906C212.643 8.02344 212.586 8.3125 212.586 8.65625V18ZM214.383 9.54688V10.6562H209.805V9.54688H214.383ZM219.531 9.54688V10.6562H214.961V9.54688H219.531ZM216.508 7.49219H217.953V15.9062C217.953 16.1927 217.997 16.4089 218.086 16.5547C218.174 16.7005 218.289 16.7969 218.43 16.8438C218.57 16.8906 218.721 16.9141 218.883 16.9141C219.003 16.9141 219.128 16.9036 219.258 16.8828C219.393 16.8568 219.495 16.8359 219.562 16.8203L219.57 18C219.456 18.0365 219.305 18.0703 219.117 18.1016C218.935 18.138 218.714 18.1562 218.453 18.1562C218.099 18.1562 217.773 18.0859 217.477 17.9453C217.18 17.8047 216.943 17.5703 216.766 17.2422C216.594 16.9089 216.508 16.4609 216.508 15.8984V7.49219Z" fill="#65665C"/>
</svg>
