<svg width="358" height="25" viewBox="0 0 358 25" fill="none" xmlns="http://www.w3.org/2000/svg">
<path d="M15.3438 12.6562H16.6562V16.6562C16.6562 17.0104 16.5208 17.3229 16.25 17.5938C16 17.8646 15.6979 18 15.3438 18C15.3438 18.1875 15.2708 18.3438 15.125 18.4688C15 18.5938 14.8438 18.6562 14.6562 18.6562H5.34375C5.15625 18.6562 4.98958 18.5938 4.84375 18.4688C4.71875 18.3438 4.65625 18.1875 4.65625 18C4.30208 18 3.98958 17.8646 3.71875 17.5938C3.46875 17.3229 3.34375 17.0104 3.34375 16.6562V12.6562H5.34375V12.1562C5.34375 11.7604 5.48958 11.4167 5.78125 11.125C6.09375 10.8125 6.44792 10.6562 6.84375 10.6562C7.26042 10.6562 7.63542 10.8229 7.96875 11.1562L8.875 12.1875C9 12.3333 9.1875 12.4896 9.4375 12.6562H14V7.21875C14 7.07292 13.9479 6.94792 13.8438 6.84375C13.7396 6.71875 13.6042 6.65625 13.4375 6.65625C13.2917 6.65625 13.1667 6.70833 13.0625 6.8125L12.2188 7.65625C12.2604 7.82292 12.2812 7.9375 12.2812 8C12.2812 8.22917 12.2083 8.46875 12.0625 8.71875L10.2188 6.875C10.4688 6.72917 10.7083 6.65625 10.9375 6.65625C11.0417 6.65625 11.1562 6.67708 11.2812 6.71875L12.125 5.875C12.4792 5.52083 12.9167 5.34375 13.4375 5.34375C13.9583 5.34375 14.4062 5.53125 14.7812 5.90625C15.1562 6.26042 15.3438 6.69792 15.3438 7.21875V12.6562ZM5.71875 9.625C5.46875 9.35417 5.34375 9.03125 5.34375 8.65625C5.34375 8.28125 5.46875 7.96875 5.71875 7.71875C5.96875 7.46875 6.28125 7.34375 6.65625 7.34375C7.03125 7.34375 7.34375 7.46875 7.59375 7.71875C7.86458 7.96875 8 8.28125 8 8.65625C8 9.03125 7.86458 9.35417 7.59375 9.625C7.34375 9.875 7.03125 10 6.65625 10C6.28125 10 5.96875 9.875 5.71875 9.625Z" fill="#65665C"/>
<path d="M33.6953 5.5625V17H32.25V7.36719L29.3359 8.42969V7.125L33.4688 5.5625H33.6953Z" fill="#65665C"/>
<path d="M75 11.1875V9.34375C75 8.96875 74.9062 8.63542 74.7188 8.34375C74.5521 8.03125 74.3125 7.79167 74 7.625C73.7083 7.4375 73.375 7.34375 73 7.34375H70.3438C70.0729 7.34375 69.8229 7.39583 69.5938 7.5C69.3646 7.58333 69.1667 7.69792 69 7.84375C68.8333 7.69792 68.6354 7.58333 68.4062 7.5C68.1771 7.39583 67.9271 7.34375 67.6562 7.34375H65C64.625 7.34375 64.2812 7.4375 63.9688 7.625C63.6771 7.79167 63.4375 8.03125 63.25 8.34375C63.0833 8.63542 63 8.96875 63 9.34375V11.1875C62.7917 11.375 62.625 11.5938 62.5 11.8438C62.3958 12.0938 62.3438 12.3646 62.3438 12.6562V16.6562H63.6562V15.3438H74.3438V16.6562H75.6562V12.6562C75.6562 12.3646 75.5938 12.0938 75.4688 11.8438C75.3646 11.5938 75.2083 11.375 75 11.1875ZM70.3438 8.65625H73C73.1875 8.65625 73.3438 8.72917 73.4688 8.875C73.5938 9 73.6562 9.15625 73.6562 9.34375V10.6562H69.6562V9.34375C69.6562 9.15625 69.7188 9 69.8438 8.875C69.9896 8.72917 70.1562 8.65625 70.3438 8.65625ZM64.3438 9.34375C64.3438 9.15625 64.4062 9 64.5312 8.875C64.6562 8.72917 64.8125 8.65625 65 8.65625H67.6562C67.8438 8.65625 68 8.72917 68.125 8.875C68.2708 9 68.3438 9.15625 68.3438 9.34375V10.6562H64.3438V9.34375ZM63.6562 14V12.6562C63.6562 12.4896 63.7188 12.3438 63.8438 12.2188C63.9896 12.0729 64.1562 12 64.3438 12H73.6562C73.8438 12 74 12.0729 74.125 12.2188C74.2708 12.3438 74.3438 12.4896 74.3438 12.6562V14H63.6562Z" fill="#65665C"/>
<path d="M95.3984 15.8125V17H87.9531V15.9609L91.6797 11.8125C92.138 11.3021 92.4922 10.8698 92.7422 10.5156C92.9974 10.1562 93.1745 9.83594 93.2734 9.55469C93.3776 9.26823 93.4297 8.97656 93.4297 8.67969C93.4297 8.30469 93.3516 7.96615 93.1953 7.66406C93.0443 7.35677 92.8203 7.11198 92.5234 6.92969C92.2266 6.7474 91.8672 6.65625 91.4453 6.65625C90.9401 6.65625 90.5182 6.75521 90.1797 6.95312C89.8464 7.14583 89.5964 7.41667 89.4297 7.76562C89.263 8.11458 89.1797 8.51562 89.1797 8.96875H87.7344C87.7344 8.32812 87.875 7.74219 88.1562 7.21094C88.4375 6.67969 88.8542 6.25781 89.4062 5.94531C89.9583 5.6276 90.638 5.46875 91.4453 5.46875C92.1641 5.46875 92.7786 5.59635 93.2891 5.85156C93.7995 6.10156 94.1901 6.45573 94.4609 6.91406C94.737 7.36719 94.875 7.89844 94.875 8.50781C94.875 8.84115 94.8177 9.17969 94.7031 9.52344C94.5938 9.86198 94.4401 10.2005 94.2422 10.5391C94.0495 10.8776 93.8229 11.2109 93.5625 11.5391C93.3073 11.8672 93.0339 12.1901 92.7422 12.5078L89.6953 15.8125H95.3984Z" fill="#65665C"/>
<path d="M127.656 15.3438H131.5L127.656 11.5V15.3438ZM134.781 15.7812L136.344 17.3438H127C126.646 17.3438 126.333 17.2083 126.062 16.9375C125.792 16.6667 125.656 16.3542 125.656 16V6.65625L127.219 8.21875L126.531 8.9375L127 9.40625L127.688 8.6875L129 10L128.281 10.6875L128.75 11.1875L129.469 10.4688L130.781 11.7812L130.062 12.4688L130.531 12.9375L131.25 12.25L132.531 13.5312L131.812 14.25L132.312 14.7188L133 14L134.312 15.3125L133.594 16L134.062 16.4688L134.781 15.7812Z" fill="#65665C"/>
<path d="M157.633 13.1719V14.3594H149.414V13.5078L154.508 5.625H155.688L154.422 7.90625L151.055 13.1719H157.633ZM156.047 5.625V17H154.602V5.625H156.047ZM166.086 10.4062V12.1406C166.086 13.0729 166.003 13.8594 165.836 14.5C165.669 15.1406 165.43 15.6562 165.117 16.0469C164.805 16.4375 164.427 16.7214 163.984 16.8984C163.547 17.0703 163.052 17.1562 162.5 17.1562C162.062 17.1562 161.659 17.1016 161.289 16.9922C160.919 16.8828 160.586 16.7083 160.289 16.4688C159.997 16.224 159.747 15.9062 159.539 15.5156C159.331 15.125 159.172 14.651 159.062 14.0938C158.953 13.5365 158.898 12.8854 158.898 12.1406V10.4062C158.898 9.47396 158.982 8.69271 159.148 8.0625C159.32 7.43229 159.562 6.92708 159.875 6.54688C160.188 6.16146 160.562 5.88542 161 5.71875C161.443 5.55208 161.938 5.46875 162.484 5.46875C162.927 5.46875 163.333 5.52344 163.703 5.63281C164.078 5.73698 164.411 5.90625 164.703 6.14062C164.995 6.36979 165.242 6.67708 165.445 7.0625C165.654 7.44271 165.812 7.90885 165.922 8.46094C166.031 9.01302 166.086 9.66146 166.086 10.4062ZM164.633 12.375V10.1641C164.633 9.65365 164.602 9.20573 164.539 8.82031C164.482 8.42969 164.396 8.09635 164.281 7.82031C164.167 7.54427 164.021 7.32031 163.844 7.14844C163.672 6.97656 163.471 6.85156 163.242 6.77344C163.018 6.6901 162.766 6.64844 162.484 6.64844C162.141 6.64844 161.836 6.71354 161.57 6.84375C161.305 6.96875 161.081 7.16927 160.898 7.44531C160.721 7.72135 160.586 8.08333 160.492 8.53125C160.398 8.97917 160.352 9.52344 160.352 10.1641V12.375C160.352 12.8854 160.38 13.3359 160.438 13.7266C160.5 14.1172 160.591 14.4557 160.711 14.7422C160.831 15.0234 160.977 15.2552 161.148 15.4375C161.32 15.6198 161.518 15.7552 161.742 15.8438C161.971 15.9271 162.224 15.9688 162.5 15.9688C162.854 15.9688 163.164 15.901 163.43 15.7656C163.695 15.6302 163.917 15.4193 164.094 15.1328C164.276 14.8411 164.411 14.4688 164.5 14.0156C164.589 13.5573 164.633 13.0104 164.633 12.375ZM175.086 10.4062V12.1406C175.086 13.0729 175.003 13.8594 174.836 14.5C174.669 15.1406 174.43 15.6562 174.117 16.0469C173.805 16.4375 173.427 16.7214 172.984 16.8984C172.547 17.0703 172.052 17.1562 171.5 17.1562C171.062 17.1562 170.659 17.1016 170.289 16.9922C169.919 16.8828 169.586 16.7083 169.289 16.4688C168.997 16.224 168.747 15.9062 168.539 15.5156C168.331 15.125 168.172 14.651 168.062 14.0938C167.953 13.5365 167.898 12.8854 167.898 12.1406V10.4062C167.898 9.47396 167.982 8.69271 168.148 8.0625C168.32 7.43229 168.562 6.92708 168.875 6.54688C169.188 6.16146 169.562 5.88542 170 5.71875C170.443 5.55208 170.938 5.46875 171.484 5.46875C171.927 5.46875 172.333 5.52344 172.703 5.63281C173.078 5.73698 173.411 5.90625 173.703 6.14062C173.995 6.36979 174.242 6.67708 174.445 7.0625C174.654 7.44271 174.812 7.90885 174.922 8.46094C175.031 9.01302 175.086 9.66146 175.086 10.4062ZM173.633 12.375V10.1641C173.633 9.65365 173.602 9.20573 173.539 8.82031C173.482 8.42969 173.396 8.09635 173.281 7.82031C173.167 7.54427 173.021 7.32031 172.844 7.14844C172.672 6.97656 172.471 6.85156 172.242 6.77344C172.018 6.6901 171.766 6.64844 171.484 6.64844C171.141 6.64844 170.836 6.71354 170.57 6.84375C170.305 6.96875 170.081 7.16927 169.898 7.44531C169.721 7.72135 169.586 8.08333 169.492 8.53125C169.398 8.97917 169.352 9.52344 169.352 10.1641V12.375C169.352 12.8854 169.38 13.3359 169.438 13.7266C169.5 14.1172 169.591 14.4557 169.711 14.7422C169.831 15.0234 169.977 15.2552 170.148 15.4375C170.32 15.6198 170.518 15.7552 170.742 15.8438C170.971 15.9271 171.224 15.9688 171.5 15.9688C171.854 15.9688 172.164 15.901 172.43 15.7656C172.695 15.6302 172.917 15.4193 173.094 15.1328C173.276 14.8411 173.411 14.4688 173.5 14.0156C173.589 13.5573 173.633 13.0104 173.633 12.375ZM185.992 14.7578C185.992 14.5495 185.945 14.3568 185.852 14.1797C185.763 13.9974 185.578 13.8333 185.297 13.6875C185.021 13.5365 184.604 13.4062 184.047 13.2969C183.578 13.1979 183.154 13.0807 182.773 12.9453C182.398 12.8099 182.078 12.6458 181.812 12.4531C181.552 12.2604 181.352 12.0339 181.211 11.7734C181.07 11.513 181 11.2083 181 10.8594C181 10.526 181.073 10.2109 181.219 9.91406C181.37 9.61719 181.581 9.35417 181.852 9.125C182.128 8.89583 182.458 8.71615 182.844 8.58594C183.229 8.45573 183.659 8.39062 184.133 8.39062C184.81 8.39062 185.388 8.51042 185.867 8.75C186.346 8.98958 186.714 9.3099 186.969 9.71094C187.224 10.1068 187.352 10.5469 187.352 11.0312H185.906C185.906 10.7969 185.836 10.5703 185.695 10.3516C185.56 10.1276 185.359 9.94271 185.094 9.79688C184.833 9.65104 184.513 9.57812 184.133 9.57812C183.732 9.57812 183.406 9.64062 183.156 9.76562C182.911 9.88542 182.732 10.0391 182.617 10.2266C182.508 10.4141 182.453 10.612 182.453 10.8203C182.453 10.9766 182.479 11.1172 182.531 11.2422C182.589 11.362 182.688 11.474 182.828 11.5781C182.969 11.6771 183.167 11.7708 183.422 11.8594C183.677 11.9479 184.003 12.0365 184.398 12.125C185.091 12.2812 185.661 12.4688 186.109 12.6875C186.557 12.9062 186.891 13.1745 187.109 13.4922C187.328 13.8099 187.438 14.1953 187.438 14.6484C187.438 15.0182 187.359 15.3568 187.203 15.6641C187.052 15.9714 186.831 16.237 186.539 16.4609C186.253 16.6797 185.909 16.8516 185.508 16.9766C185.112 17.0964 184.667 17.1562 184.172 17.1562C183.427 17.1562 182.797 17.0234 182.281 16.7578C181.766 16.4922 181.375 16.1484 181.109 15.7266C180.844 15.3047 180.711 14.8594 180.711 14.3906H182.164C182.185 14.7865 182.299 15.1016 182.508 15.3359C182.716 15.5651 182.971 15.7292 183.273 15.8281C183.576 15.9219 183.875 15.9688 184.172 15.9688C184.568 15.9688 184.898 15.9167 185.164 15.8125C185.435 15.7083 185.641 15.5651 185.781 15.3828C185.922 15.2005 185.992 14.9922 185.992 14.7578ZM194.656 20.25V10.1719L194.781 8.54688H196.109V20.25H194.656ZM188.977 12.8672V12.7031C188.977 12.0573 189.052 11.4714 189.203 10.9453C189.354 10.4141 189.576 9.95833 189.867 9.57812C190.159 9.19792 190.51 8.90625 190.922 8.70312C191.339 8.49479 191.812 8.39062 192.344 8.39062C192.875 8.39062 193.341 8.48438 193.742 8.67188C194.148 8.85417 194.492 9.1224 194.773 9.47656C195.06 9.82552 195.286 10.2474 195.453 10.7422C195.62 11.237 195.734 11.7969 195.797 12.4219V13.1406C195.74 13.7604 195.628 14.3177 195.461 14.8125C195.294 15.3073 195.068 15.7292 194.781 16.0781C194.5 16.4271 194.154 16.6953 193.742 16.8828C193.336 17.0651 192.865 17.1562 192.328 17.1562C191.807 17.1562 191.339 17.0495 190.922 16.8359C190.51 16.6224 190.159 16.3229 189.867 15.9375C189.581 15.5521 189.359 15.099 189.203 14.5781C189.052 14.0521 188.977 13.4818 188.977 12.8672ZM190.43 12.7031V12.8672C190.43 13.2891 190.474 13.6875 190.562 14.0625C190.651 14.4323 190.786 14.7604 190.969 15.0469C191.156 15.3333 191.391 15.5599 191.672 15.7266C191.958 15.888 192.297 15.9688 192.688 15.9688C193.167 15.9688 193.565 15.8646 193.883 15.6562C194.206 15.4479 194.464 15.1745 194.656 14.8359C194.849 14.4922 194.997 14.125 195.102 13.7344V11.8516C195.044 11.5651 194.953 11.2865 194.828 11.0156C194.708 10.7448 194.552 10.5026 194.359 10.2891C194.167 10.0703 193.932 9.89844 193.656 9.77344C193.385 9.64323 193.068 9.57812 192.703 9.57812C192.307 9.57812 191.966 9.66146 191.68 9.82812C191.393 9.99479 191.156 10.224 190.969 10.5156C190.786 10.8021 190.651 11.1328 190.562 11.5078C190.474 11.8828 190.43 12.2812 190.43 12.7031ZM200.586 17H199.141V7.65625C199.141 7.04688 199.25 6.53385 199.469 6.11719C199.693 5.69531 200.013 5.3776 200.43 5.16406C200.846 4.94531 201.341 4.83594 201.914 4.83594C202.081 4.83594 202.247 4.84635 202.414 4.86719C202.586 4.88802 202.753 4.91927 202.914 4.96094L202.836 6.14062C202.727 6.11458 202.602 6.09635 202.461 6.08594C202.326 6.07552 202.19 6.07031 202.055 6.07031C201.747 6.07031 201.482 6.13281 201.258 6.25781C201.039 6.3776 200.872 6.55469 200.758 6.78906C200.643 7.02344 200.586 7.3125 200.586 7.65625V17ZM202.383 8.54688V9.65625H197.805V8.54688H202.383ZM207.531 8.54688V9.65625H202.961V8.54688H207.531ZM204.508 6.49219H205.953V14.9062C205.953 15.1927 205.997 15.4089 206.086 15.5547C206.174 15.7005 206.289 15.7969 206.43 15.8438C206.57 15.8906 206.721 15.9141 206.883 15.9141C207.003 15.9141 207.128 15.9036 207.258 15.8828C207.393 15.8568 207.495 15.8359 207.562 15.8203L207.57 17C207.456 17.0365 207.305 17.0703 207.117 17.1016C206.935 17.138 206.714 17.1562 206.453 17.1562C206.099 17.1562 205.773 17.0859 205.477 16.9453C205.18 16.8047 204.943 16.5703 204.766 16.2422C204.594 15.9089 204.508 15.4609 204.508 14.8984V6.49219Z" fill="#65665C"/>
</svg>
