<svg width="358" height="25" viewBox="0 0 358 25" fill="none" xmlns="http://www.w3.org/2000/svg">
<path d="M36.3984 16.8125V18H28.9531V16.9609L32.6797 12.8125C33.138 12.3021 33.4922 11.8698 33.7422 11.5156C33.9974 11.1562 34.1745 10.8359 34.2734 10.5547C34.3776 10.2682 34.4297 9.97656 34.4297 9.67969C34.4297 9.30469 34.3516 8.96615 34.1953 8.66406C34.0443 8.35677 33.8203 8.11198 33.5234 7.92969C33.2266 7.7474 32.8672 7.65625 32.4453 7.65625C31.9401 7.65625 31.5182 7.75521 31.1797 7.95312C30.8464 8.14583 30.5964 8.41667 30.4297 8.76562C30.263 9.11458 30.1797 9.51562 30.1797 9.96875H28.7344C28.7344 9.32812 28.875 8.74219 29.1562 8.21094C29.4375 7.67969 29.8542 7.25781 30.4062 6.94531C30.9583 6.6276 31.638 6.46875 32.4453 6.46875C33.1641 6.46875 33.7786 6.59635 34.2891 6.85156C34.7995 7.10156 35.1901 7.45573 35.4609 7.91406C35.737 8.36719 35.875 8.89844 35.875 9.50781C35.875 9.84115 35.8177 10.1797 35.7031 10.5234C35.5938 10.862 35.4401 11.2005 35.2422 11.5391C35.0495 11.8776 34.8229 12.2109 34.5625 12.5391C34.3073 12.8672 34.0339 13.1901 33.7422 13.5078L30.6953 16.8125H36.3984ZM39.7734 12.5859L38.6172 12.2891L39.1875 6.625H45.0234V7.96094H40.4141L40.0703 11.0547C40.2786 10.9349 40.5417 10.8229 40.8594 10.7188C41.1823 10.6146 41.5521 10.5625 41.9688 10.5625C42.4948 10.5625 42.9661 10.6536 43.3828 10.8359C43.7995 11.013 44.1536 11.2682 44.4453 11.6016C44.7422 11.9349 44.9688 12.3359 45.125 12.8047C45.2812 13.2734 45.3594 13.7969 45.3594 14.375C45.3594 14.9219 45.2839 15.4245 45.1328 15.8828C44.987 16.3411 44.7656 16.7422 44.4688 17.0859C44.1719 17.4245 43.7969 17.6875 43.3438 17.875C42.8958 18.0625 42.3672 18.1562 41.7578 18.1562C41.2995 18.1562 40.8646 18.0938 40.4531 17.9688C40.0469 17.8385 39.6823 17.6432 39.3594 17.3828C39.0417 17.1172 38.7812 16.7891 38.5781 16.3984C38.3802 16.0026 38.2552 15.5391 38.2031 15.0078H39.5781C39.6406 15.4349 39.7656 15.7943 39.9531 16.0859C40.1406 16.3776 40.3854 16.599 40.6875 16.75C40.9948 16.8958 41.3516 16.9688 41.7578 16.9688C42.1016 16.9688 42.4062 16.9089 42.6719 16.7891C42.9375 16.6693 43.1615 16.4974 43.3438 16.2734C43.526 16.0495 43.6641 15.7786 43.7578 15.4609C43.8568 15.1432 43.9062 14.7865 43.9062 14.3906C43.9062 14.0312 43.8568 13.6979 43.7578 13.3906C43.6589 13.0833 43.5104 12.8151 43.3125 12.5859C43.1198 12.3568 42.8828 12.1797 42.6016 12.0547C42.3203 11.9245 41.9974 11.8594 41.6328 11.8594C41.1484 11.8594 40.7812 11.9245 40.5312 12.0547C40.2865 12.1849 40.0339 12.362 39.7734 12.5859ZM52.4922 6.60938H52.6172V7.83594H52.4922C51.7266 7.83594 51.0859 7.96094 50.5703 8.21094C50.0547 8.45573 49.6458 8.78646 49.3438 9.20312C49.0417 9.61458 48.8229 10.0781 48.6875 10.5938C48.5573 11.1094 48.4922 11.6328 48.4922 12.1641V13.8359C48.4922 14.3411 48.5521 14.7891 48.6719 15.1797C48.7917 15.5651 48.9557 15.8906 49.1641 16.1562C49.3724 16.4219 49.6068 16.6224 49.8672 16.7578C50.1328 16.8932 50.4089 16.9609 50.6953 16.9609C51.0286 16.9609 51.3255 16.8984 51.5859 16.7734C51.8464 16.6432 52.0651 16.4635 52.2422 16.2344C52.4245 16 52.5625 15.724 52.6562 15.4062C52.75 15.0885 52.7969 14.7396 52.7969 14.3594C52.7969 14.0208 52.7552 13.6953 52.6719 13.3828C52.5885 13.0651 52.4609 12.7839 52.2891 12.5391C52.1172 12.2891 51.901 12.0938 51.6406 11.9531C51.3854 11.8073 51.0807 11.7344 50.7266 11.7344C50.3255 11.7344 49.9505 11.8333 49.6016 12.0312C49.2578 12.224 48.974 12.4792 48.75 12.7969C48.5312 13.1094 48.4062 13.4505 48.375 13.8203L47.6094 13.8125C47.6823 13.2292 47.8177 12.7318 48.0156 12.3203C48.2188 11.9036 48.4688 11.5651 48.7656 11.3047C49.0677 11.0391 49.4036 10.8464 49.7734 10.7266C50.1484 10.6016 50.5443 10.5391 50.9609 10.5391C51.5286 10.5391 52.0182 10.6458 52.4297 10.8594C52.8411 11.0729 53.1797 11.3594 53.4453 11.7188C53.7109 12.0729 53.9062 12.474 54.0312 12.9219C54.1615 13.3646 54.2266 13.8203 54.2266 14.2891C54.2266 14.8255 54.151 15.3281 54 15.7969C53.849 16.2656 53.6224 16.6771 53.3203 17.0312C53.0234 17.3854 52.6562 17.6615 52.2188 17.8594C51.7812 18.0573 51.2734 18.1562 50.6953 18.1562C50.0807 18.1562 49.5443 18.0312 49.0859 17.7812C48.6276 17.526 48.2474 17.1875 47.9453 16.7656C47.6432 16.3438 47.4167 15.875 47.2656 15.3594C47.1146 14.8438 47.0391 14.3203 47.0391 13.7891V13.1094C47.0391 12.3073 47.1198 11.5208 47.2812 10.75C47.4427 9.97917 47.7214 9.28125 48.1172 8.65625C48.5182 8.03125 49.0729 7.53385 49.7812 7.16406C50.4896 6.79427 51.3932 6.60938 52.4922 6.60938ZM57.3828 16.7891H57.5312C58.3646 16.7891 59.0417 16.6719 59.5625 16.4375C60.0833 16.2031 60.4844 15.888 60.7656 15.4922C61.0469 15.0964 61.2396 14.651 61.3438 14.1562C61.4479 13.6562 61.5 13.1432 61.5 12.6172V10.875C61.5 10.3594 61.4401 9.90104 61.3203 9.5C61.2057 9.09896 61.0443 8.76302 60.8359 8.49219C60.6328 8.22135 60.401 8.01562 60.1406 7.875C59.8802 7.73438 59.6042 7.66406 59.3125 7.66406C58.9792 7.66406 58.6797 7.73177 58.4141 7.86719C58.1536 7.9974 57.9323 8.18229 57.75 8.42188C57.5729 8.66146 57.4375 8.94271 57.3438 9.26562C57.25 9.58854 57.2031 9.9401 57.2031 10.3203C57.2031 10.6589 57.2448 10.987 57.3281 11.3047C57.4115 11.6224 57.5391 11.9089 57.7109 12.1641C57.8828 12.4193 58.0964 12.6224 58.3516 12.7734C58.612 12.9193 58.9167 12.9922 59.2656 12.9922C59.5885 12.9922 59.8906 12.9297 60.1719 12.8047C60.4583 12.6745 60.7109 12.5 60.9297 12.2812C61.1536 12.0573 61.3307 11.8047 61.4609 11.5234C61.5964 11.2422 61.6745 10.9479 61.6953 10.6406H62.3828C62.3828 11.0729 62.2969 11.5 62.125 11.9219C61.9583 12.3385 61.724 12.7188 61.4219 13.0625C61.1198 13.4062 60.7656 13.6823 60.3594 13.8906C59.9531 14.0938 59.5104 14.1953 59.0312 14.1953C58.4688 14.1953 57.9818 14.0859 57.5703 13.8672C57.1589 13.6484 56.8203 13.3568 56.5547 12.9922C56.2943 12.6276 56.099 12.2214 55.9688 11.7734C55.8438 11.3203 55.7812 10.862 55.7812 10.3984C55.7812 9.85677 55.8568 9.34896 56.0078 8.875C56.1589 8.40104 56.3828 7.98438 56.6797 7.625C56.9766 7.26042 57.3438 6.97656 57.7812 6.77344C58.224 6.57031 58.7344 6.46875 59.3125 6.46875C59.9635 6.46875 60.5182 6.59896 60.9766 6.85938C61.4349 7.11979 61.8073 7.46875 62.0938 7.90625C62.3854 8.34375 62.599 8.83594 62.7344 9.38281C62.8698 9.92969 62.9375 10.4922 62.9375 11.0703V11.5938C62.9375 12.1823 62.8984 12.7812 62.8203 13.3906C62.7474 13.9948 62.6042 14.5729 62.3906 15.125C62.1823 15.6771 61.8776 16.1719 61.4766 16.6094C61.0755 17.0417 60.5521 17.3854 59.9062 17.6406C59.2656 17.8906 58.474 18.0156 57.5312 18.0156H57.3828V16.7891ZM76.7188 11.5156V12.7422H70.5625V11.5156H76.7188ZM70.7969 6.625V18H69.2891V6.625H70.7969ZM78.0312 6.625V18H76.5312V6.625H78.0312ZM85.4766 16.5547V12.2031C85.4766 11.8698 85.4089 11.5807 85.2734 11.3359C85.1432 11.0859 84.9453 10.8932 84.6797 10.7578C84.4141 10.6224 84.0859 10.5547 83.6953 10.5547C83.3307 10.5547 83.0104 10.6172 82.7344 10.7422C82.4635 10.8672 82.25 11.0312 82.0938 11.2344C81.9427 11.4375 81.8672 11.6562 81.8672 11.8906H80.4219C80.4219 11.5885 80.5 11.2891 80.6562 10.9922C80.8125 10.6953 81.0365 10.4271 81.3281 10.1875C81.625 9.94271 81.9792 9.75 82.3906 9.60938C82.8073 9.46354 83.2708 9.39062 83.7812 9.39062C84.3958 9.39062 84.9375 9.49479 85.4062 9.70312C85.8802 9.91146 86.25 10.2266 86.5156 10.6484C86.7865 11.0651 86.9219 11.5885 86.9219 12.2188V16.1562C86.9219 16.4375 86.9453 16.737 86.9922 17.0547C87.0443 17.3724 87.1198 17.6458 87.2188 17.875V18H85.7109C85.638 17.8333 85.5807 17.612 85.5391 17.3359C85.4974 17.0547 85.4766 16.7943 85.4766 16.5547ZM85.7266 12.875L85.7422 13.8906H84.2812C83.8698 13.8906 83.5026 13.9245 83.1797 13.9922C82.8568 14.0547 82.5859 14.151 82.3672 14.2812C82.1484 14.4115 81.9818 14.5755 81.8672 14.7734C81.7526 14.9661 81.6953 15.1927 81.6953 15.4531C81.6953 15.7188 81.7552 15.9609 81.875 16.1797C81.9948 16.3984 82.1745 16.5729 82.4141 16.7031C82.6589 16.8281 82.9583 16.8906 83.3125 16.8906C83.7552 16.8906 84.1458 16.7969 84.4844 16.6094C84.8229 16.4219 85.0911 16.1927 85.2891 15.9219C85.4922 15.651 85.6016 15.388 85.6172 15.1328L86.2344 15.8281C86.1979 16.0469 86.099 16.2891 85.9375 16.5547C85.776 16.8203 85.5599 17.0755 85.2891 17.3203C85.0234 17.5599 84.7057 17.7604 84.3359 17.9219C83.9714 18.0781 83.5599 18.1562 83.1016 18.1562C82.5286 18.1562 82.026 18.0443 81.5938 17.8203C81.1667 17.5964 80.8333 17.2969 80.5938 16.9219C80.3594 16.5417 80.2422 16.1172 80.2422 15.6484C80.2422 15.1953 80.3307 14.7969 80.5078 14.4531C80.6849 14.1042 80.9401 13.8151 81.2734 13.5859C81.6068 13.3516 82.0078 13.1745 82.4766 13.0547C82.9453 12.9349 83.4688 12.875 84.0469 12.875H85.7266ZM90.7656 6V18H89.3125V6H90.7656ZM94.6562 6V18H93.2031V6H94.6562ZM101.898 15.7578C101.898 15.5495 101.852 15.3568 101.758 15.1797C101.669 14.9974 101.484 14.8333 101.203 14.6875C100.927 14.5365 100.51 14.4062 99.9531 14.2969C99.4844 14.1979 99.0599 14.0807 98.6797 13.9453C98.3047 13.8099 97.9844 13.6458 97.7188 13.4531C97.4583 13.2604 97.2578 13.0339 97.1172 12.7734C96.9766 12.513 96.9062 12.2083 96.9062 11.8594C96.9062 11.526 96.9792 11.2109 97.125 10.9141C97.276 10.6172 97.487 10.3542 97.7578 10.125C98.0339 9.89583 98.3646 9.71615 98.75 9.58594C99.1354 9.45573 99.5651 9.39062 100.039 9.39062C100.716 9.39062 101.294 9.51042 101.773 9.75C102.253 9.98958 102.62 10.3099 102.875 10.7109C103.13 11.1068 103.258 11.5469 103.258 12.0312H101.812C101.812 11.7969 101.742 11.5703 101.602 11.3516C101.466 11.1276 101.266 10.9427 101 10.7969C100.74 10.651 100.419 10.5781 100.039 10.5781C99.638 10.5781 99.3125 10.6406 99.0625 10.7656C98.8177 10.8854 98.638 11.0391 98.5234 11.2266C98.4141 11.4141 98.3594 11.612 98.3594 11.8203C98.3594 11.9766 98.3854 12.1172 98.4375 12.2422C98.4948 12.362 98.5938 12.474 98.7344 12.5781C98.875 12.6771 99.0729 12.7708 99.3281 12.8594C99.5833 12.9479 99.9089 13.0365 100.305 13.125C100.997 13.2812 101.568 13.4688 102.016 13.6875C102.464 13.9062 102.797 14.1745 103.016 14.4922C103.234 14.8099 103.344 15.1953 103.344 15.6484C103.344 16.0182 103.266 16.3568 103.109 16.6641C102.958 16.9714 102.737 17.237 102.445 17.4609C102.159 17.6797 101.815 17.8516 101.414 17.9766C101.018 18.0964 100.573 18.1562 100.078 18.1562C99.3333 18.1562 98.7031 18.0234 98.1875 17.7578C97.6719 17.4922 97.2812 17.1484 97.0156 16.7266C96.75 16.3047 96.6172 15.8594 96.6172 15.3906H98.0703C98.0911 15.7865 98.2057 16.1016 98.4141 16.3359C98.6224 16.5651 98.8776 16.7292 99.1797 16.8281C99.4818 16.9219 99.7812 16.9688 100.078 16.9688C100.474 16.9688 100.805 16.9167 101.07 16.8125C101.341 16.7083 101.547 16.5651 101.688 16.3828C101.828 16.2005 101.898 15.9922 101.898 15.7578ZM116.297 14.3828H117.797C117.719 15.1016 117.513 15.7448 117.18 16.3125C116.846 16.8802 116.375 17.3307 115.766 17.6641C115.156 17.9922 114.396 18.1562 113.484 18.1562C112.818 18.1562 112.211 18.0312 111.664 17.7812C111.122 17.5312 110.656 17.1771 110.266 16.7188C109.875 16.2552 109.573 15.7005 109.359 15.0547C109.151 14.4036 109.047 13.6797 109.047 12.8828V11.75C109.047 10.9531 109.151 10.2318 109.359 9.58594C109.573 8.9349 109.878 8.3776 110.273 7.91406C110.674 7.45052 111.156 7.09375 111.719 6.84375C112.281 6.59375 112.914 6.46875 113.617 6.46875C114.477 6.46875 115.203 6.63021 115.797 6.95312C116.391 7.27604 116.852 7.72396 117.18 8.29688C117.513 8.86458 117.719 9.52344 117.797 10.2734H116.297C116.224 9.74219 116.089 9.28646 115.891 8.90625C115.693 8.52083 115.411 8.22396 115.047 8.01562C114.682 7.80729 114.206 7.70312 113.617 7.70312C113.112 7.70312 112.667 7.79948 112.281 7.99219C111.901 8.1849 111.581 8.45833 111.32 8.8125C111.065 9.16667 110.872 9.59115 110.742 10.0859C110.612 10.5807 110.547 11.1302 110.547 11.7344V12.8828C110.547 13.4401 110.604 13.9635 110.719 14.4531C110.839 14.9427 111.018 15.3724 111.258 15.7422C111.497 16.112 111.802 16.4036 112.172 16.6172C112.542 16.8255 112.979 16.9297 113.484 16.9297C114.125 16.9297 114.635 16.8281 115.016 16.625C115.396 16.4219 115.682 16.1302 115.875 15.75C116.073 15.3698 116.214 14.9141 116.297 14.3828ZM119.25 13.8672V13.6875C119.25 13.0781 119.339 12.513 119.516 11.9922C119.693 11.4661 119.948 11.0104 120.281 10.625C120.615 10.2344 121.018 9.93229 121.492 9.71875C121.966 9.5 122.497 9.39062 123.086 9.39062C123.68 9.39062 124.214 9.5 124.688 9.71875C125.167 9.93229 125.573 10.2344 125.906 10.625C126.245 11.0104 126.503 11.4661 126.68 11.9922C126.857 12.513 126.945 13.0781 126.945 13.6875V13.8672C126.945 14.4766 126.857 15.0417 126.68 15.5625C126.503 16.0833 126.245 16.5391 125.906 16.9297C125.573 17.3151 125.169 17.6172 124.695 17.8359C124.227 18.0495 123.695 18.1562 123.102 18.1562C122.508 18.1562 121.974 18.0495 121.5 17.8359C121.026 17.6172 120.62 17.3151 120.281 16.9297C119.948 16.5391 119.693 16.0833 119.516 15.5625C119.339 15.0417 119.25 14.4766 119.25 13.8672ZM120.695 13.6875V13.8672C120.695 14.2891 120.745 14.6875 120.844 15.0625C120.943 15.4323 121.091 15.7604 121.289 16.0469C121.492 16.3333 121.745 16.5599 122.047 16.7266C122.349 16.888 122.701 16.9688 123.102 16.9688C123.497 16.9688 123.844 16.888 124.141 16.7266C124.443 16.5599 124.693 16.3333 124.891 16.0469C125.089 15.7604 125.237 15.4323 125.336 15.0625C125.44 14.6875 125.492 14.2891 125.492 13.8672V13.6875C125.492 13.2708 125.44 12.8776 125.336 12.5078C125.237 12.1328 125.086 11.8021 124.883 11.5156C124.685 11.224 124.435 10.9948 124.133 10.8281C123.836 10.6615 123.487 10.5781 123.086 10.5781C122.69 10.5781 122.341 10.6615 122.039 10.8281C121.742 10.9948 121.492 11.224 121.289 11.5156C121.091 11.8021 120.943 12.1328 120.844 12.5078C120.745 12.8776 120.695 13.2708 120.695 13.6875ZM130.203 10.875V18H128.758V9.54688H130.164L130.203 10.875ZM132.844 9.5L132.836 10.8438C132.716 10.8177 132.602 10.8021 132.492 10.7969C132.388 10.7865 132.268 10.7812 132.133 10.7812C131.799 10.7812 131.505 10.8333 131.25 10.9375C130.995 11.0417 130.779 11.1875 130.602 11.375C130.424 11.5625 130.284 11.7865 130.18 12.0469C130.081 12.3021 130.016 12.5833 129.984 12.8906L129.578 13.125C129.578 12.6146 129.628 12.1354 129.727 11.6875C129.831 11.2396 129.99 10.8438 130.203 10.5C130.417 10.151 130.688 9.88021 131.016 9.6875C131.349 9.48958 131.745 9.39062 132.203 9.39062C132.307 9.39062 132.427 9.40365 132.562 9.42969C132.698 9.45052 132.792 9.47396 132.844 9.5ZM135.625 11.3516V18H134.18V9.54688H135.547L135.625 11.3516ZM135.281 13.4531L134.68 13.4297C134.685 12.8516 134.771 12.3177 134.938 11.8281C135.104 11.3333 135.339 10.9036 135.641 10.5391C135.943 10.1745 136.302 9.89323 136.719 9.69531C137.141 9.49219 137.607 9.39062 138.117 9.39062C138.534 9.39062 138.909 9.44792 139.242 9.5625C139.576 9.67188 139.859 9.84896 140.094 10.0938C140.333 10.3385 140.516 10.6562 140.641 11.0469C140.766 11.4323 140.828 11.9036 140.828 12.4609V18H139.375V12.4453C139.375 12.0026 139.31 11.6484 139.18 11.3828C139.049 11.112 138.859 10.9167 138.609 10.7969C138.359 10.6719 138.052 10.6094 137.688 10.6094C137.328 10.6094 137 10.6849 136.703 10.8359C136.411 10.987 136.159 11.1953 135.945 11.4609C135.737 11.7266 135.573 12.0312 135.453 12.375C135.339 12.7135 135.281 13.0729 135.281 13.4531ZM146.531 18.1562C145.943 18.1562 145.409 18.0573 144.93 17.8594C144.456 17.6562 144.047 17.3724 143.703 17.0078C143.365 16.6432 143.104 16.2109 142.922 15.7109C142.74 15.2109 142.648 14.6641 142.648 14.0703V13.7422C142.648 13.0547 142.75 12.4427 142.953 11.9062C143.156 11.3646 143.432 10.9062 143.781 10.5312C144.13 10.1562 144.526 9.8724 144.969 9.67969C145.411 9.48698 145.87 9.39062 146.344 9.39062C146.948 9.39062 147.469 9.49479 147.906 9.70312C148.349 9.91146 148.711 10.2031 148.992 10.5781C149.273 10.9479 149.482 11.3854 149.617 11.8906C149.753 12.3906 149.82 12.9375 149.82 13.5312V14.1797H143.508V13H148.375V12.8906C148.354 12.5156 148.276 12.151 148.141 11.7969C148.01 11.4427 147.802 11.151 147.516 10.9219C147.229 10.6927 146.839 10.5781 146.344 10.5781C146.016 10.5781 145.714 10.6484 145.438 10.7891C145.161 10.9245 144.924 11.1276 144.727 11.3984C144.529 11.6693 144.375 12 144.266 12.3906C144.156 12.7812 144.102 13.2318 144.102 13.7422V14.0703C144.102 14.4714 144.156 14.849 144.266 15.2031C144.38 15.5521 144.544 15.8594 144.758 16.125C144.977 16.3906 145.24 16.599 145.547 16.75C145.859 16.901 146.214 16.9766 146.609 16.9766C147.12 16.9766 147.552 16.8724 147.906 16.6641C148.26 16.4557 148.57 16.1771 148.836 15.8281L149.711 16.5234C149.529 16.7995 149.297 17.0625 149.016 17.3125C148.734 17.5625 148.388 17.7656 147.977 17.9219C147.57 18.0781 147.089 18.1562 146.531 18.1562ZM152.953 10.875V18H151.508V9.54688H152.914L152.953 10.875ZM155.594 9.5L155.586 10.8438C155.466 10.8177 155.352 10.8021 155.242 10.7969C155.138 10.7865 155.018 10.7812 154.883 10.7812C154.549 10.7812 154.255 10.8333 154 10.9375C153.745 11.0417 153.529 11.1875 153.352 11.375C153.174 11.5625 153.034 11.7865 152.93 12.0469C152.831 12.3021 152.766 12.5833 152.734 12.8906L152.328 13.125C152.328 12.6146 152.378 12.1354 152.477 11.6875C152.581 11.2396 152.74 10.8438 152.953 10.5C153.167 10.151 153.438 9.88021 153.766 9.6875C154.099 9.48958 154.495 9.39062 154.953 9.39062C155.057 9.39062 155.177 9.40365 155.312 9.42969C155.448 9.45052 155.542 9.47396 155.594 9.5ZM157.273 16.2812V17.4453C157.273 17.9193 157.154 18.4193 156.914 18.9453C156.674 19.4766 156.339 19.9193 155.906 20.2734L155.086 19.7031C155.253 19.474 155.393 19.2396 155.508 19C155.622 18.7656 155.708 18.5208 155.766 18.2656C155.828 18.0156 155.859 17.75 155.859 17.4688V16.2812H157.273ZM170.203 16.7734V18H164.516V16.7734H170.203ZM164.812 6.625V18H163.305V6.625H164.812ZM176.695 16.5547V12.2031C176.695 11.8698 176.628 11.5807 176.492 11.3359C176.362 11.0859 176.164 10.8932 175.898 10.7578C175.633 10.6224 175.305 10.5547 174.914 10.5547C174.549 10.5547 174.229 10.6172 173.953 10.7422C173.682 10.8672 173.469 11.0312 173.312 11.2344C173.161 11.4375 173.086 11.6562 173.086 11.8906H171.641C171.641 11.5885 171.719 11.2891 171.875 10.9922C172.031 10.6953 172.255 10.4271 172.547 10.1875C172.844 9.94271 173.198 9.75 173.609 9.60938C174.026 9.46354 174.49 9.39062 175 9.39062C175.615 9.39062 176.156 9.49479 176.625 9.70312C177.099 9.91146 177.469 10.2266 177.734 10.6484C178.005 11.0651 178.141 11.5885 178.141 12.2188V16.1562C178.141 16.4375 178.164 16.737 178.211 17.0547C178.263 17.3724 178.339 17.6458 178.438 17.875V18H176.93C176.857 17.8333 176.799 17.612 176.758 17.3359C176.716 17.0547 176.695 16.7943 176.695 16.5547ZM176.945 12.875L176.961 13.8906H175.5C175.089 13.8906 174.721 13.9245 174.398 13.9922C174.076 14.0547 173.805 14.151 173.586 14.2812C173.367 14.4115 173.201 14.5755 173.086 14.7734C172.971 14.9661 172.914 15.1927 172.914 15.4531C172.914 15.7188 172.974 15.9609 173.094 16.1797C173.214 16.3984 173.393 16.5729 173.633 16.7031C173.878 16.8281 174.177 16.8906 174.531 16.8906C174.974 16.8906 175.365 16.7969 175.703 16.6094C176.042 16.4219 176.31 16.1927 176.508 15.9219C176.711 15.651 176.82 15.388 176.836 15.1328L177.453 15.8281C177.417 16.0469 177.318 16.2891 177.156 16.5547C176.995 16.8203 176.779 17.0755 176.508 17.3203C176.242 17.5599 175.924 17.7604 175.555 17.9219C175.19 18.0781 174.779 18.1562 174.32 18.1562C173.747 18.1562 173.245 18.0443 172.812 17.8203C172.385 17.5964 172.052 17.2969 171.812 16.9219C171.578 16.5417 171.461 16.1172 171.461 15.6484C171.461 15.1953 171.549 14.7969 171.727 14.4531C171.904 14.1042 172.159 13.8151 172.492 13.5859C172.826 13.3516 173.227 13.1745 173.695 13.0547C174.164 12.9349 174.688 12.875 175.266 12.875H176.945ZM185.336 15.7578C185.336 15.5495 185.289 15.3568 185.195 15.1797C185.107 14.9974 184.922 14.8333 184.641 14.6875C184.365 14.5365 183.948 14.4062 183.391 14.2969C182.922 14.1979 182.497 14.0807 182.117 13.9453C181.742 13.8099 181.422 13.6458 181.156 13.4531C180.896 13.2604 180.695 13.0339 180.555 12.7734C180.414 12.513 180.344 12.2083 180.344 11.8594C180.344 11.526 180.417 11.2109 180.562 10.9141C180.714 10.6172 180.924 10.3542 181.195 10.125C181.471 9.89583 181.802 9.71615 182.188 9.58594C182.573 9.45573 183.003 9.39062 183.477 9.39062C184.154 9.39062 184.732 9.51042 185.211 9.75C185.69 9.98958 186.057 10.3099 186.312 10.7109C186.568 11.1068 186.695 11.5469 186.695 12.0312H185.25C185.25 11.7969 185.18 11.5703 185.039 11.3516C184.904 11.1276 184.703 10.9427 184.438 10.7969C184.177 10.651 183.857 10.5781 183.477 10.5781C183.076 10.5781 182.75 10.6406 182.5 10.7656C182.255 10.8854 182.076 11.0391 181.961 11.2266C181.852 11.4141 181.797 11.612 181.797 11.8203C181.797 11.9766 181.823 12.1172 181.875 12.2422C181.932 12.362 182.031 12.474 182.172 12.5781C182.312 12.6771 182.51 12.7708 182.766 12.8594C183.021 12.9479 183.346 13.0365 183.742 13.125C184.435 13.2812 185.005 13.4688 185.453 13.6875C185.901 13.9062 186.234 14.1745 186.453 14.4922C186.672 14.8099 186.781 15.1953 186.781 15.6484C186.781 16.0182 186.703 16.3568 186.547 16.6641C186.396 16.9714 186.174 17.237 185.883 17.4609C185.596 17.6797 185.253 17.8516 184.852 17.9766C184.456 18.0964 184.01 18.1562 183.516 18.1562C182.771 18.1562 182.141 18.0234 181.625 17.7578C181.109 17.4922 180.719 17.1484 180.453 16.7266C180.188 16.3047 180.055 15.8594 180.055 15.3906H181.508C181.529 15.7865 181.643 16.1016 181.852 16.3359C182.06 16.5651 182.315 16.7292 182.617 16.8281C182.919 16.9219 183.219 16.9688 183.516 16.9688C183.911 16.9688 184.242 16.9167 184.508 16.8125C184.779 16.7083 184.984 16.5651 185.125 16.3828C185.266 16.2005 185.336 15.9922 185.336 15.7578ZM196.539 16.2734L199.891 6.625H201.523L197.312 18H196.148L196.539 16.2734ZM193.406 6.625L196.727 16.2734L197.141 18H195.977L191.773 6.625H193.406ZM206 18.1562C205.411 18.1562 204.878 18.0573 204.398 17.8594C203.924 17.6562 203.516 17.3724 203.172 17.0078C202.833 16.6432 202.573 16.2109 202.391 15.7109C202.208 15.2109 202.117 14.6641 202.117 14.0703V13.7422C202.117 13.0547 202.219 12.4427 202.422 11.9062C202.625 11.3646 202.901 10.9062 203.25 10.5312C203.599 10.1562 203.995 9.8724 204.438 9.67969C204.88 9.48698 205.339 9.39062 205.812 9.39062C206.417 9.39062 206.938 9.49479 207.375 9.70312C207.818 9.91146 208.18 10.2031 208.461 10.5781C208.742 10.9479 208.951 11.3854 209.086 11.8906C209.221 12.3906 209.289 12.9375 209.289 13.5312V14.1797H202.977V13H207.844V12.8906C207.823 12.5156 207.745 12.151 207.609 11.7969C207.479 11.4427 207.271 11.151 206.984 10.9219C206.698 10.6927 206.307 10.5781 205.812 10.5781C205.484 10.5781 205.182 10.6484 204.906 10.7891C204.63 10.9245 204.393 11.1276 204.195 11.3984C203.997 11.6693 203.844 12 203.734 12.3906C203.625 12.7812 203.57 13.2318 203.57 13.7422V14.0703C203.57 14.4714 203.625 14.849 203.734 15.2031C203.849 15.5521 204.013 15.8594 204.227 16.125C204.445 16.3906 204.708 16.599 205.016 16.75C205.328 16.901 205.682 16.9766 206.078 16.9766C206.589 16.9766 207.021 16.8724 207.375 16.6641C207.729 16.4557 208.039 16.1771 208.305 15.8281L209.18 16.5234C208.997 16.7995 208.766 17.0625 208.484 17.3125C208.203 17.5625 207.857 17.7656 207.445 17.9219C207.039 18.0781 206.557 18.1562 206 18.1562ZM216.453 9.54688H217.766V17.8203C217.766 18.5651 217.615 19.2005 217.312 19.7266C217.01 20.2526 216.589 20.651 216.047 20.9219C215.51 21.1979 214.891 21.3359 214.188 21.3359C213.896 21.3359 213.552 21.2891 213.156 21.1953C212.766 21.1068 212.38 20.9531 212 20.7344C211.625 20.5208 211.31 20.2318 211.055 19.8672L211.812 19.0078C212.167 19.4349 212.536 19.7318 212.922 19.8984C213.312 20.0651 213.698 20.1484 214.078 20.1484C214.536 20.1484 214.932 20.0625 215.266 19.8906C215.599 19.7188 215.857 19.4635 216.039 19.125C216.227 18.7917 216.32 18.3802 216.32 17.8906V11.4062L216.453 9.54688ZM210.633 13.8672V13.7031C210.633 13.0573 210.708 12.4714 210.859 11.9453C211.016 11.4141 211.237 10.9583 211.523 10.5781C211.815 10.1979 212.167 9.90625 212.578 9.70312C212.99 9.49479 213.453 9.39062 213.969 9.39062C214.5 9.39062 214.964 9.48438 215.359 9.67188C215.76 9.85417 216.099 10.1224 216.375 10.4766C216.656 10.8255 216.878 11.2474 217.039 11.7422C217.201 12.237 217.312 12.7969 217.375 13.4219V14.1406C217.318 14.7604 217.206 15.3177 217.039 15.8125C216.878 16.3073 216.656 16.7292 216.375 17.0781C216.099 17.4271 215.76 17.6953 215.359 17.8828C214.958 18.0651 214.49 18.1562 213.953 18.1562C213.448 18.1562 212.99 18.0495 212.578 17.8359C212.172 17.6224 211.823 17.3229 211.531 16.9375C211.24 16.5521 211.016 16.099 210.859 15.5781C210.708 15.0521 210.633 14.4818 210.633 13.8672ZM212.078 13.7031V13.8672C212.078 14.2891 212.12 14.6849 212.203 15.0547C212.292 15.4245 212.424 15.75 212.602 16.0312C212.784 16.3125 213.016 16.5339 213.297 16.6953C213.578 16.8516 213.914 16.9297 214.305 16.9297C214.784 16.9297 215.18 16.8281 215.492 16.625C215.805 16.4219 216.052 16.1536 216.234 15.8203C216.422 15.487 216.568 15.125 216.672 14.7344V12.8516C216.615 12.5651 216.526 12.2891 216.406 12.0234C216.292 11.7526 216.141 11.513 215.953 11.3047C215.771 11.0911 215.544 10.9219 215.273 10.7969C215.003 10.6719 214.685 10.6094 214.32 10.6094C213.924 10.6094 213.583 10.6927 213.297 10.8594C213.016 11.0208 212.784 11.2448 212.602 11.5312C212.424 11.8125 212.292 12.1406 212.203 12.5156C212.12 12.8854 212.078 13.2812 212.078 13.7031ZM224.945 16.5547V12.2031C224.945 11.8698 224.878 11.5807 224.742 11.3359C224.612 11.0859 224.414 10.8932 224.148 10.7578C223.883 10.6224 223.555 10.5547 223.164 10.5547C222.799 10.5547 222.479 10.6172 222.203 10.7422C221.932 10.8672 221.719 11.0312 221.562 11.2344C221.411 11.4375 221.336 11.6562 221.336 11.8906H219.891C219.891 11.5885 219.969 11.2891 220.125 10.9922C220.281 10.6953 220.505 10.4271 220.797 10.1875C221.094 9.94271 221.448 9.75 221.859 9.60938C222.276 9.46354 222.74 9.39062 223.25 9.39062C223.865 9.39062 224.406 9.49479 224.875 9.70312C225.349 9.91146 225.719 10.2266 225.984 10.6484C226.255 11.0651 226.391 11.5885 226.391 12.2188V16.1562C226.391 16.4375 226.414 16.737 226.461 17.0547C226.513 17.3724 226.589 17.6458 226.688 17.875V18H225.18C225.107 17.8333 225.049 17.612 225.008 17.3359C224.966 17.0547 224.945 16.7943 224.945 16.5547ZM225.195 12.875L225.211 13.8906H223.75C223.339 13.8906 222.971 13.9245 222.648 13.9922C222.326 14.0547 222.055 14.151 221.836 14.2812C221.617 14.4115 221.451 14.5755 221.336 14.7734C221.221 14.9661 221.164 15.1927 221.164 15.4531C221.164 15.7188 221.224 15.9609 221.344 16.1797C221.464 16.3984 221.643 16.5729 221.883 16.7031C222.128 16.8281 222.427 16.8906 222.781 16.8906C223.224 16.8906 223.615 16.7969 223.953 16.6094C224.292 16.4219 224.56 16.1927 224.758 15.9219C224.961 15.651 225.07 15.388 225.086 15.1328L225.703 15.8281C225.667 16.0469 225.568 16.2891 225.406 16.5547C225.245 16.8203 225.029 17.0755 224.758 17.3203C224.492 17.5599 224.174 17.7604 223.805 17.9219C223.44 18.0781 223.029 18.1562 222.57 18.1562C221.997 18.1562 221.495 18.0443 221.062 17.8203C220.635 17.5964 220.302 17.2969 220.062 16.9219C219.828 16.5417 219.711 16.1172 219.711 15.6484C219.711 15.1953 219.799 14.7969 219.977 14.4531C220.154 14.1042 220.409 13.8151 220.742 13.5859C221.076 13.3516 221.477 13.1745 221.945 13.0547C222.414 12.9349 222.938 12.875 223.516 12.875H225.195ZM233.586 15.7578C233.586 15.5495 233.539 15.3568 233.445 15.1797C233.357 14.9974 233.172 14.8333 232.891 14.6875C232.615 14.5365 232.198 14.4062 231.641 14.2969C231.172 14.1979 230.747 14.0807 230.367 13.9453C229.992 13.8099 229.672 13.6458 229.406 13.4531C229.146 13.2604 228.945 13.0339 228.805 12.7734C228.664 12.513 228.594 12.2083 228.594 11.8594C228.594 11.526 228.667 11.2109 228.812 10.9141C228.964 10.6172 229.174 10.3542 229.445 10.125C229.721 9.89583 230.052 9.71615 230.438 9.58594C230.823 9.45573 231.253 9.39062 231.727 9.39062C232.404 9.39062 232.982 9.51042 233.461 9.75C233.94 9.98958 234.307 10.3099 234.562 10.7109C234.818 11.1068 234.945 11.5469 234.945 12.0312H233.5C233.5 11.7969 233.43 11.5703 233.289 11.3516C233.154 11.1276 232.953 10.9427 232.688 10.7969C232.427 10.651 232.107 10.5781 231.727 10.5781C231.326 10.5781 231 10.6406 230.75 10.7656C230.505 10.8854 230.326 11.0391 230.211 11.2266C230.102 11.4141 230.047 11.612 230.047 11.8203C230.047 11.9766 230.073 12.1172 230.125 12.2422C230.182 12.362 230.281 12.474 230.422 12.5781C230.562 12.6771 230.76 12.7708 231.016 12.8594C231.271 12.9479 231.596 13.0365 231.992 13.125C232.685 13.2812 233.255 13.4688 233.703 13.6875C234.151 13.9062 234.484 14.1745 234.703 14.4922C234.922 14.8099 235.031 15.1953 235.031 15.6484C235.031 16.0182 234.953 16.3568 234.797 16.6641C234.646 16.9714 234.424 17.237 234.133 17.4609C233.846 17.6797 233.503 17.8516 233.102 17.9766C232.706 18.0964 232.26 18.1562 231.766 18.1562C231.021 18.1562 230.391 18.0234 229.875 17.7578C229.359 17.4922 228.969 17.1484 228.703 16.7266C228.438 16.3047 228.305 15.8594 228.305 15.3906H229.758C229.779 15.7865 229.893 16.1016 230.102 16.3359C230.31 16.5651 230.565 16.7292 230.867 16.8281C231.169 16.9219 231.469 16.9688 231.766 16.9688C232.161 16.9688 232.492 16.9167 232.758 16.8125C233.029 16.7083 233.234 16.5651 233.375 16.3828C233.516 16.2005 233.586 15.9922 233.586 15.7578Z" fill="#65665C"/>
<path d="M8.8125 12.1875C9.14583 12.5 9.54167 12.6562 10 12.6562C10.4583 12.6562 10.8438 12.5 11.1562 12.1875C11.4896 11.8542 11.6562 11.4583 11.6562 11C11.6562 10.5417 11.4896 10.1562 11.1562 9.84375C10.8438 9.51042 10.4583 9.34375 10 9.34375C9.54167 9.34375 9.14583 9.51042 8.8125 9.84375C8.5 10.1562 8.34375 10.5417 8.34375 11C8.34375 11.4583 8.5 11.8542 8.8125 12.1875ZM6.6875 7.71875C7.60417 6.80208 8.70833 6.34375 10 6.34375C11.2917 6.34375 12.3854 6.80208 13.2812 7.71875C14.1979 8.61458 14.6562 9.70833 14.6562 11C14.6562 11.6458 14.4896 12.3854 14.1562 13.2188C13.8438 14.0521 13.4583 14.8333 13 15.5625C12.5417 16.2917 12.0833 16.9792 11.625 17.625C11.1875 18.25 10.8125 18.75 10.5 19.125L10 19.6562C9.875 19.5104 9.70833 19.3229 9.5 19.0938C9.29167 18.8438 8.91667 18.3646 8.375 17.6562C7.83333 16.9271 7.35417 16.2292 6.9375 15.5625C6.54167 14.875 6.17708 14.1042 5.84375 13.25C5.51042 12.3958 5.34375 11.6458 5.34375 11C5.34375 9.70833 5.79167 8.61458 6.6875 7.71875Z" fill="#65665C"/>
</svg>
