<svg width="358" height="25" viewBox="0 0 358 25" fill="none" xmlns="http://www.w3.org/2000/svg">
<path d="M8.8125 11.1875C9.14583 11.5 9.54167 11.6562 10 11.6562C10.4583 11.6562 10.8438 11.5 11.1562 11.1875C11.4896 10.8542 11.6562 10.4583 11.6562 10C11.6562 9.54167 11.4896 9.15625 11.1562 8.84375C10.8438 8.51042 10.4583 8.34375 10 8.34375C9.54167 8.34375 9.14583 8.51042 8.8125 8.84375C8.5 9.15625 8.34375 9.54167 8.34375 10C8.34375 10.4583 8.5 10.8542 8.8125 11.1875ZM6.6875 6.71875C7.60417 5.80208 8.70833 5.34375 10 5.34375C11.2917 5.34375 12.3854 5.80208 13.2812 6.71875C14.1979 7.61458 14.6562 8.70833 14.6562 10C14.6562 10.6458 14.4896 11.3854 14.1562 12.2188C13.8438 13.0521 13.4583 13.8333 13 14.5625C12.5417 15.2917 12.0833 15.9792 11.625 16.625C11.1875 17.25 10.8125 17.75 10.5 18.125L10 18.6562C9.875 18.5104 9.70833 18.3229 9.5 18.0938C9.29167 17.8438 8.91667 17.3646 8.375 16.6562C7.83333 15.9271 7.35417 15.2292 6.9375 14.5625C6.54167 13.875 6.17708 13.1042 5.84375 12.25C5.51042 11.3958 5.34375 10.6458 5.34375 10C5.34375 8.70833 5.79167 7.61458 6.6875 6.71875Z" fill="#65665C"/>
<path d="M36.3984 15.8125V17H28.9531V15.9609L32.6797 11.8125C33.138 11.3021 33.4922 10.8698 33.7422 10.5156C33.9974 10.1562 34.1745 9.83594 34.2734 9.55469C34.3776 9.26823 34.4297 8.97656 34.4297 8.67969C34.4297 8.30469 34.3516 7.96615 34.1953 7.66406C34.0443 7.35677 33.8203 7.11198 33.5234 6.92969C33.2266 6.7474 32.8672 6.65625 32.4453 6.65625C31.9401 6.65625 31.5182 6.75521 31.1797 6.95312C30.8464 7.14583 30.5964 7.41667 30.4297 7.76562C30.263 8.11458 30.1797 8.51562 30.1797 8.96875H28.7344C28.7344 8.32812 28.875 7.74219 29.1562 7.21094C29.4375 6.67969 29.8542 6.25781 30.4062 5.94531C30.9583 5.6276 31.638 5.46875 32.4453 5.46875C33.1641 5.46875 33.7786 5.59635 34.2891 5.85156C34.7995 6.10156 35.1901 6.45573 35.4609 6.91406C35.737 7.36719 35.875 7.89844 35.875 8.50781C35.875 8.84115 35.8177 9.17969 35.7031 9.52344C35.5938 9.86198 35.4401 10.2005 35.2422 10.5391C35.0495 10.8776 34.8229 11.2109 34.5625 11.5391C34.3073 11.8672 34.0339 12.1901 33.7422 12.5078L30.6953 15.8125H36.3984ZM39.7734 11.5859L38.6172 11.2891L39.1875 5.625H45.0234V6.96094H40.4141L40.0703 10.0547C40.2786 9.9349 40.5417 9.82292 40.8594 9.71875C41.1823 9.61458 41.5521 9.5625 41.9688 9.5625C42.4948 9.5625 42.9661 9.65365 43.3828 9.83594C43.7995 10.013 44.1536 10.2682 44.4453 10.6016C44.7422 10.9349 44.9688 11.3359 45.125 11.8047C45.2812 12.2734 45.3594 12.7969 45.3594 13.375C45.3594 13.9219 45.2839 14.4245 45.1328 14.8828C44.987 15.3411 44.7656 15.7422 44.4688 16.0859C44.1719 16.4245 43.7969 16.6875 43.3438 16.875C42.8958 17.0625 42.3672 17.1562 41.7578 17.1562C41.2995 17.1562 40.8646 17.0938 40.4531 16.9688C40.0469 16.8385 39.6823 16.6432 39.3594 16.3828C39.0417 16.1172 38.7812 15.7891 38.5781 15.3984C38.3802 15.0026 38.2552 14.5391 38.2031 14.0078H39.5781C39.6406 14.4349 39.7656 14.7943 39.9531 15.0859C40.1406 15.3776 40.3854 15.599 40.6875 15.75C40.9948 15.8958 41.3516 15.9688 41.7578 15.9688C42.1016 15.9688 42.4062 15.9089 42.6719 15.7891C42.9375 15.6693 43.1615 15.4974 43.3438 15.2734C43.526 15.0495 43.6641 14.7786 43.7578 14.4609C43.8568 14.1432 43.9062 13.7865 43.9062 13.3906C43.9062 13.0312 43.8568 12.6979 43.7578 12.3906C43.6589 12.0833 43.5104 11.8151 43.3125 11.5859C43.1198 11.3568 42.8828 11.1797 42.6016 11.0547C42.3203 10.9245 41.9974 10.8594 41.6328 10.8594C41.1484 10.8594 40.7812 10.9245 40.5312 11.0547C40.2865 11.1849 40.0339 11.362 39.7734 11.5859ZM52.4922 5.60938H52.6172V6.83594H52.4922C51.7266 6.83594 51.0859 6.96094 50.5703 7.21094C50.0547 7.45573 49.6458 7.78646 49.3438 8.20312C49.0417 8.61458 48.8229 9.07812 48.6875 9.59375C48.5573 10.1094 48.4922 10.6328 48.4922 11.1641V12.8359C48.4922 13.3411 48.5521 13.7891 48.6719 14.1797C48.7917 14.5651 48.9557 14.8906 49.1641 15.1562C49.3724 15.4219 49.6068 15.6224 49.8672 15.7578C50.1328 15.8932 50.4089 15.9609 50.6953 15.9609C51.0286 15.9609 51.3255 15.8984 51.5859 15.7734C51.8464 15.6432 52.0651 15.4635 52.2422 15.2344C52.4245 15 52.5625 14.724 52.6562 14.4062C52.75 14.0885 52.7969 13.7396 52.7969 13.3594C52.7969 13.0208 52.7552 12.6953 52.6719 12.3828C52.5885 12.0651 52.4609 11.7839 52.2891 11.5391C52.1172 11.2891 51.901 11.0938 51.6406 10.9531C51.3854 10.8073 51.0807 10.7344 50.7266 10.7344C50.3255 10.7344 49.9505 10.8333 49.6016 11.0312C49.2578 11.224 48.974 11.4792 48.75 11.7969C48.5312 12.1094 48.4062 12.4505 48.375 12.8203L47.6094 12.8125C47.6823 12.2292 47.8177 11.7318 48.0156 11.3203C48.2188 10.9036 48.4688 10.5651 48.7656 10.3047C49.0677 10.0391 49.4036 9.84635 49.7734 9.72656C50.1484 9.60156 50.5443 9.53906 50.9609 9.53906C51.5286 9.53906 52.0182 9.64583 52.4297 9.85938C52.8411 10.0729 53.1797 10.3594 53.4453 10.7188C53.7109 11.0729 53.9062 11.474 54.0312 11.9219C54.1615 12.3646 54.2266 12.8203 54.2266 13.2891C54.2266 13.8255 54.151 14.3281 54 14.7969C53.849 15.2656 53.6224 15.6771 53.3203 16.0312C53.0234 16.3854 52.6562 16.6615 52.2188 16.8594C51.7812 17.0573 51.2734 17.1562 50.6953 17.1562C50.0807 17.1562 49.5443 17.0312 49.0859 16.7812C48.6276 16.526 48.2474 16.1875 47.9453 15.7656C47.6432 15.3438 47.4167 14.875 47.2656 14.3594C47.1146 13.8438 47.0391 13.3203 47.0391 12.7891V12.1094C47.0391 11.3073 47.1198 10.5208 47.2812 9.75C47.4427 8.97917 47.7214 8.28125 48.1172 7.65625C48.5182 7.03125 49.0729 6.53385 49.7812 6.16406C50.4896 5.79427 51.3932 5.60938 52.4922 5.60938ZM57.3828 15.7891H57.5312C58.3646 15.7891 59.0417 15.6719 59.5625 15.4375C60.0833 15.2031 60.4844 14.888 60.7656 14.4922C61.0469 14.0964 61.2396 13.651 61.3438 13.1562C61.4479 12.6562 61.5 12.1432 61.5 11.6172V9.875C61.5 9.35938 61.4401 8.90104 61.3203 8.5C61.2057 8.09896 61.0443 7.76302 60.8359 7.49219C60.6328 7.22135 60.401 7.01562 60.1406 6.875C59.8802 6.73438 59.6042 6.66406 59.3125 6.66406C58.9792 6.66406 58.6797 6.73177 58.4141 6.86719C58.1536 6.9974 57.9323 7.18229 57.75 7.42188C57.5729 7.66146 57.4375 7.94271 57.3438 8.26562C57.25 8.58854 57.2031 8.9401 57.2031 9.32031C57.2031 9.65885 57.2448 9.98698 57.3281 10.3047C57.4115 10.6224 57.5391 10.9089 57.7109 11.1641C57.8828 11.4193 58.0964 11.6224 58.3516 11.7734C58.612 11.9193 58.9167 11.9922 59.2656 11.9922C59.5885 11.9922 59.8906 11.9297 60.1719 11.8047C60.4583 11.6745 60.7109 11.5 60.9297 11.2812C61.1536 11.0573 61.3307 10.8047 61.4609 10.5234C61.5964 10.2422 61.6745 9.94792 61.6953 9.64062H62.3828C62.3828 10.0729 62.2969 10.5 62.125 10.9219C61.9583 11.3385 61.724 11.7188 61.4219 12.0625C61.1198 12.4062 60.7656 12.6823 60.3594 12.8906C59.9531 13.0938 59.5104 13.1953 59.0312 13.1953C58.4688 13.1953 57.9818 13.0859 57.5703 12.8672C57.1589 12.6484 56.8203 12.3568 56.5547 11.9922C56.2943 11.6276 56.099 11.2214 55.9688 10.7734C55.8438 10.3203 55.7812 9.86198 55.7812 9.39844C55.7812 8.85677 55.8568 8.34896 56.0078 7.875C56.1589 7.40104 56.3828 6.98438 56.6797 6.625C56.9766 6.26042 57.3438 5.97656 57.7812 5.77344C58.224 5.57031 58.7344 5.46875 59.3125 5.46875C59.9635 5.46875 60.5182 5.59896 60.9766 5.85938C61.4349 6.11979 61.8073 6.46875 62.0938 6.90625C62.3854 7.34375 62.599 7.83594 62.7344 8.38281C62.8698 8.92969 62.9375 9.49219 62.9375 10.0703V10.5938C62.9375 11.1823 62.8984 11.7812 62.8203 12.3906C62.7474 12.9948 62.6042 13.5729 62.3906 14.125C62.1823 14.6771 61.8776 15.1719 61.4766 15.6094C61.0755 16.0417 60.5521 16.3854 59.9062 16.6406C59.2656 16.8906 58.474 17.0156 57.5312 17.0156H57.3828V15.7891ZM76.5156 15.7734V17H70.4922V15.7734H76.5156ZM70.7969 5.625V17H69.2891V5.625H70.7969ZM75.7188 10.5156V11.7422H70.4922V10.5156H75.7188ZM76.4375 5.625V6.85938H70.4922V5.625H76.4375ZM79.7344 5V17H78.2812V5H79.7344ZM92.3047 14.125C92.3047 13.8594 92.263 13.625 92.1797 13.4219C92.1016 13.2135 91.9609 13.026 91.7578 12.8594C91.5599 12.6927 91.2839 12.5339 90.9297 12.3828C90.5807 12.2318 90.138 12.0781 89.6016 11.9219C89.0391 11.7552 88.5312 11.5703 88.0781 11.3672C87.625 11.1589 87.237 10.9219 86.9141 10.6562C86.5911 10.3906 86.3438 10.0859 86.1719 9.74219C86 9.39844 85.9141 9.00521 85.9141 8.5625C85.9141 8.11979 86.0052 7.71094 86.1875 7.33594C86.3698 6.96094 86.6302 6.63542 86.9688 6.35938C87.3125 6.07812 87.7214 5.85938 88.1953 5.70312C88.6693 5.54688 89.1979 5.46875 89.7812 5.46875C90.6354 5.46875 91.3594 5.63281 91.9531 5.96094C92.5521 6.28385 93.0078 6.70833 93.3203 7.23438C93.6328 7.75521 93.7891 8.3125 93.7891 8.90625H92.2891C92.2891 8.47917 92.1979 8.10156 92.0156 7.77344C91.8333 7.4401 91.5573 7.17969 91.1875 6.99219C90.8177 6.79948 90.349 6.70312 89.7812 6.70312C89.2448 6.70312 88.8021 6.78385 88.4531 6.94531C88.1042 7.10677 87.8438 7.32552 87.6719 7.60156C87.5052 7.8776 87.4219 8.19271 87.4219 8.54688C87.4219 8.78646 87.4714 9.00521 87.5703 9.20312C87.6745 9.39583 87.8333 9.57552 88.0469 9.74219C88.2656 9.90885 88.5417 10.0625 88.875 10.2031C89.2135 10.3438 89.6172 10.4792 90.0859 10.6094C90.7318 10.7917 91.2891 10.9948 91.7578 11.2188C92.2266 11.4427 92.612 11.6953 92.9141 11.9766C93.2214 12.2526 93.4479 12.5677 93.5938 12.9219C93.7448 13.2708 93.8203 13.6667 93.8203 14.1094C93.8203 14.5729 93.7266 14.9922 93.5391 15.3672C93.3516 15.7422 93.0833 16.0625 92.7344 16.3281C92.3854 16.5938 91.9661 16.7995 91.4766 16.9453C90.9922 17.0859 90.4505 17.1562 89.8516 17.1562C89.3255 17.1562 88.8073 17.0833 88.2969 16.9375C87.7917 16.7917 87.3307 16.5729 86.9141 16.2812C86.5026 15.9896 86.1719 15.6302 85.9219 15.2031C85.6771 14.7708 85.5547 14.2708 85.5547 13.7031H87.0547C87.0547 14.0938 87.1302 14.4297 87.2812 14.7109C87.4323 14.987 87.638 15.2161 87.8984 15.3984C88.1641 15.5807 88.4635 15.7161 88.7969 15.8047C89.1354 15.888 89.487 15.9297 89.8516 15.9297C90.3776 15.9297 90.8229 15.8568 91.1875 15.7109C91.5521 15.5651 91.8281 15.3568 92.0156 15.0859C92.2083 14.8151 92.3047 14.4948 92.3047 14.125ZM99.0312 17.1562C98.4427 17.1562 97.9089 17.0573 97.4297 16.8594C96.9557 16.6562 96.5469 16.3724 96.2031 16.0078C95.8646 15.6432 95.6042 15.2109 95.4219 14.7109C95.2396 14.2109 95.1484 13.6641 95.1484 13.0703V12.7422C95.1484 12.0547 95.25 11.4427 95.4531 10.9062C95.6562 10.3646 95.9323 9.90625 96.2812 9.53125C96.6302 9.15625 97.026 8.8724 97.4688 8.67969C97.9115 8.48698 98.3698 8.39062 98.8438 8.39062C99.4479 8.39062 99.9688 8.49479 100.406 8.70312C100.849 8.91146 101.211 9.20312 101.492 9.57812C101.773 9.94792 101.982 10.3854 102.117 10.8906C102.253 11.3906 102.32 11.9375 102.32 12.5312V13.1797H96.0078V12H100.875V11.8906C100.854 11.5156 100.776 11.151 100.641 10.7969C100.51 10.4427 100.302 10.151 100.016 9.92188C99.7292 9.69271 99.3385 9.57812 98.8438 9.57812C98.5156 9.57812 98.2135 9.64844 97.9375 9.78906C97.6615 9.92448 97.4245 10.1276 97.2266 10.3984C97.0286 10.6693 96.875 11 96.7656 11.3906C96.6562 11.7812 96.6016 12.2318 96.6016 12.7422V13.0703C96.6016 13.4714 96.6562 13.849 96.7656 14.2031C96.8802 14.5521 97.0443 14.8594 97.2578 15.125C97.4766 15.3906 97.7396 15.599 98.0469 15.75C98.3594 15.901 98.7135 15.9766 99.1094 15.9766C99.6198 15.9766 100.052 15.8724 100.406 15.6641C100.76 15.4557 101.07 15.1771 101.336 14.8281L102.211 15.5234C102.029 15.7995 101.797 16.0625 101.516 16.3125C101.234 16.5625 100.888 16.7656 100.477 16.9219C100.07 17.0781 99.5885 17.1562 99.0312 17.1562ZM109.484 8.54688H110.797V16.8203C110.797 17.5651 110.646 18.2005 110.344 18.7266C110.042 19.2526 109.62 19.651 109.078 19.9219C108.542 20.1979 107.922 20.3359 107.219 20.3359C106.927 20.3359 106.583 20.2891 106.188 20.1953C105.797 20.1068 105.411 19.9531 105.031 19.7344C104.656 19.5208 104.341 19.2318 104.086 18.8672L104.844 18.0078C105.198 18.4349 105.568 18.7318 105.953 18.8984C106.344 19.0651 106.729 19.1484 107.109 19.1484C107.568 19.1484 107.964 19.0625 108.297 18.8906C108.63 18.7188 108.888 18.4635 109.07 18.125C109.258 17.7917 109.352 17.3802 109.352 16.8906V10.4062L109.484 8.54688ZM103.664 12.8672V12.7031C103.664 12.0573 103.74 11.4714 103.891 10.9453C104.047 10.4141 104.268 9.95833 104.555 9.57812C104.846 9.19792 105.198 8.90625 105.609 8.70312C106.021 8.49479 106.484 8.39062 107 8.39062C107.531 8.39062 107.995 8.48438 108.391 8.67188C108.792 8.85417 109.13 9.1224 109.406 9.47656C109.688 9.82552 109.909 10.2474 110.07 10.7422C110.232 11.237 110.344 11.7969 110.406 12.4219V13.1406C110.349 13.7604 110.237 14.3177 110.07 14.8125C109.909 15.3073 109.688 15.7292 109.406 16.0781C109.13 16.4271 108.792 16.6953 108.391 16.8828C107.99 17.0651 107.521 17.1562 106.984 17.1562C106.479 17.1562 106.021 17.0495 105.609 16.8359C105.203 16.6224 104.854 16.3229 104.562 15.9375C104.271 15.5521 104.047 15.099 103.891 14.5781C103.74 14.0521 103.664 13.4818 103.664 12.8672ZM105.109 12.7031V12.8672C105.109 13.2891 105.151 13.6849 105.234 14.0547C105.323 14.4245 105.456 14.75 105.633 15.0312C105.815 15.3125 106.047 15.5339 106.328 15.6953C106.609 15.8516 106.945 15.9297 107.336 15.9297C107.815 15.9297 108.211 15.8281 108.523 15.625C108.836 15.4219 109.083 15.1536 109.266 14.8203C109.453 14.487 109.599 14.125 109.703 13.7344V11.8516C109.646 11.5651 109.557 11.2891 109.438 11.0234C109.323 10.7526 109.172 10.513 108.984 10.3047C108.802 10.0911 108.576 9.92188 108.305 9.79688C108.034 9.67188 107.716 9.60938 107.352 9.60938C106.956 9.60938 106.615 9.69271 106.328 9.85938C106.047 10.0208 105.815 10.2448 105.633 10.5312C105.456 10.8125 105.323 11.1406 105.234 11.5156C105.151 11.8854 105.109 12.2812 105.109 12.7031ZM118.164 15.0469V8.54688H119.617V17H118.234L118.164 15.0469ZM118.438 13.2656L119.039 13.25C119.039 13.8125 118.979 14.3333 118.859 14.8125C118.745 15.2865 118.557 15.6979 118.297 16.0469C118.036 16.3958 117.695 16.6693 117.273 16.8672C116.852 17.0599 116.339 17.1562 115.734 17.1562C115.323 17.1562 114.945 17.0964 114.602 16.9766C114.263 16.8568 113.971 16.6719 113.727 16.4219C113.482 16.1719 113.292 15.8464 113.156 15.4453C113.026 15.0443 112.961 14.5625 112.961 14V8.54688H114.406V14.0156C114.406 14.3958 114.448 14.7109 114.531 14.9609C114.62 15.2057 114.737 15.401 114.883 15.5469C115.034 15.6875 115.201 15.7865 115.383 15.8438C115.57 15.901 115.763 15.9297 115.961 15.9297C116.576 15.9297 117.062 15.8125 117.422 15.5781C117.781 15.3385 118.039 15.0182 118.195 14.6172C118.357 14.2109 118.438 13.7604 118.438 13.2656ZM123.266 10.3516V17H121.82V8.54688H123.188L123.266 10.3516ZM122.922 12.4531L122.32 12.4297C122.326 11.8516 122.411 11.3177 122.578 10.8281C122.745 10.3333 122.979 9.90365 123.281 9.53906C123.583 9.17448 123.943 8.89323 124.359 8.69531C124.781 8.49219 125.247 8.39062 125.758 8.39062C126.174 8.39062 126.549 8.44792 126.883 8.5625C127.216 8.67188 127.5 8.84896 127.734 9.09375C127.974 9.33854 128.156 9.65625 128.281 10.0469C128.406 10.4323 128.469 10.9036 128.469 11.4609V17H127.016V11.4453C127.016 11.0026 126.951 10.6484 126.82 10.3828C126.69 10.112 126.5 9.91667 126.25 9.79688C126 9.67188 125.693 9.60938 125.328 9.60938C124.969 9.60938 124.641 9.6849 124.344 9.83594C124.052 9.98698 123.799 10.1953 123.586 10.4609C123.378 10.7266 123.214 11.0312 123.094 11.375C122.979 11.7135 122.922 12.0729 122.922 12.4531ZM135.992 15.3594V5H137.445V17H136.117L135.992 15.3594ZM130.305 12.8672V12.7031C130.305 12.0573 130.383 11.4714 130.539 10.9453C130.701 10.4141 130.927 9.95833 131.219 9.57812C131.516 9.19792 131.867 8.90625 132.273 8.70312C132.685 8.49479 133.143 8.39062 133.648 8.39062C134.18 8.39062 134.643 8.48438 135.039 8.67188C135.44 8.85417 135.779 9.1224 136.055 9.47656C136.336 9.82552 136.557 10.2474 136.719 10.7422C136.88 11.237 136.992 11.7969 137.055 12.4219V13.1406C136.997 13.7604 136.885 14.3177 136.719 14.8125C136.557 15.3073 136.336 15.7292 136.055 16.0781C135.779 16.4271 135.44 16.6953 135.039 16.8828C134.638 17.0651 134.169 17.1562 133.633 17.1562C133.138 17.1562 132.685 17.0495 132.273 16.8359C131.867 16.6224 131.516 16.3229 131.219 15.9375C130.927 15.5521 130.701 15.099 130.539 14.5781C130.383 14.0521 130.305 13.4818 130.305 12.8672ZM131.758 12.7031V12.8672C131.758 13.2891 131.799 13.6849 131.883 14.0547C131.971 14.4245 132.107 14.75 132.289 15.0312C132.471 15.3125 132.703 15.5339 132.984 15.6953C133.266 15.8516 133.602 15.9297 133.992 15.9297C134.471 15.9297 134.865 15.8281 135.172 15.625C135.484 15.4219 135.734 15.1536 135.922 14.8203C136.109 14.487 136.255 14.125 136.359 13.7344V11.8516C136.297 11.5651 136.206 11.2891 136.086 11.0234C135.971 10.7526 135.82 10.513 135.633 10.3047C135.451 10.0911 135.224 9.92188 134.953 9.79688C134.688 9.67188 134.372 9.60938 134.008 9.60938C133.612 9.60938 133.271 9.69271 132.984 9.85938C132.703 10.0208 132.471 10.2448 132.289 10.5312C132.107 10.8125 131.971 11.1406 131.883 11.5156C131.799 11.8854 131.758 12.2812 131.758 12.7031ZM139.312 12.8672V12.6875C139.312 12.0781 139.401 11.513 139.578 10.9922C139.755 10.4661 140.01 10.0104 140.344 9.625C140.677 9.23438 141.081 8.93229 141.555 8.71875C142.029 8.5 142.56 8.39062 143.148 8.39062C143.742 8.39062 144.276 8.5 144.75 8.71875C145.229 8.93229 145.635 9.23438 145.969 9.625C146.307 10.0104 146.565 10.4661 146.742 10.9922C146.919 11.513 147.008 12.0781 147.008 12.6875V12.8672C147.008 13.4766 146.919 14.0417 146.742 14.5625C146.565 15.0833 146.307 15.5391 145.969 15.9297C145.635 16.3151 145.232 16.6172 144.758 16.8359C144.289 17.0495 143.758 17.1562 143.164 17.1562C142.57 17.1562 142.036 17.0495 141.562 16.8359C141.089 16.6172 140.682 16.3151 140.344 15.9297C140.01 15.5391 139.755 15.0833 139.578 14.5625C139.401 14.0417 139.312 13.4766 139.312 12.8672ZM140.758 12.6875V12.8672C140.758 13.2891 140.807 13.6875 140.906 14.0625C141.005 14.4323 141.154 14.7604 141.352 15.0469C141.555 15.3333 141.807 15.5599 142.109 15.7266C142.411 15.888 142.763 15.9688 143.164 15.9688C143.56 15.9688 143.906 15.888 144.203 15.7266C144.505 15.5599 144.755 15.3333 144.953 15.0469C145.151 14.7604 145.299 14.4323 145.398 14.0625C145.503 13.6875 145.555 13.2891 145.555 12.8672V12.6875C145.555 12.2708 145.503 11.8776 145.398 11.5078C145.299 11.1328 145.148 10.8021 144.945 10.5156C144.747 10.224 144.497 9.99479 144.195 9.82812C143.898 9.66146 143.549 9.57812 143.148 9.57812C142.753 9.57812 142.404 9.66146 142.102 9.82812C141.805 9.99479 141.555 10.224 141.352 10.5156C141.154 10.8021 141.005 11.1328 140.906 11.5078C140.807 11.8776 140.758 12.2708 140.758 12.6875ZM150.133 15.2812V16.4453C150.133 16.9193 150.013 17.4193 149.773 17.9453C149.534 18.4766 149.198 18.9193 148.766 19.2734L147.945 18.7031C148.112 18.474 148.253 18.2396 148.367 18C148.482 17.7656 148.568 17.5208 148.625 17.2656C148.688 17.0156 148.719 16.75 148.719 16.4688V15.2812H150.133ZM162.227 14.125C162.227 13.8594 162.185 13.625 162.102 13.4219C162.023 13.2135 161.883 13.026 161.68 12.8594C161.482 12.6927 161.206 12.5339 160.852 12.3828C160.503 12.2318 160.06 12.0781 159.523 11.9219C158.961 11.7552 158.453 11.5703 158 11.3672C157.547 11.1589 157.159 10.9219 156.836 10.6562C156.513 10.3906 156.266 10.0859 156.094 9.74219C155.922 9.39844 155.836 9.00521 155.836 8.5625C155.836 8.11979 155.927 7.71094 156.109 7.33594C156.292 6.96094 156.552 6.63542 156.891 6.35938C157.234 6.07812 157.643 5.85938 158.117 5.70312C158.591 5.54688 159.12 5.46875 159.703 5.46875C160.557 5.46875 161.281 5.63281 161.875 5.96094C162.474 6.28385 162.93 6.70833 163.242 7.23438C163.555 7.75521 163.711 8.3125 163.711 8.90625H162.211C162.211 8.47917 162.12 8.10156 161.938 7.77344C161.755 7.4401 161.479 7.17969 161.109 6.99219C160.74 6.79948 160.271 6.70312 159.703 6.70312C159.167 6.70312 158.724 6.78385 158.375 6.94531C158.026 7.10677 157.766 7.32552 157.594 7.60156C157.427 7.8776 157.344 8.19271 157.344 8.54688C157.344 8.78646 157.393 9.00521 157.492 9.20312C157.596 9.39583 157.755 9.57552 157.969 9.74219C158.188 9.90885 158.464 10.0625 158.797 10.2031C159.135 10.3438 159.539 10.4792 160.008 10.6094C160.654 10.7917 161.211 10.9948 161.68 11.2188C162.148 11.4427 162.534 11.6953 162.836 11.9766C163.143 12.2526 163.37 12.5677 163.516 12.9219C163.667 13.2708 163.742 13.6667 163.742 14.1094C163.742 14.5729 163.648 14.9922 163.461 15.3672C163.273 15.7422 163.005 16.0625 162.656 16.3281C162.307 16.5938 161.888 16.7995 161.398 16.9453C160.914 17.0859 160.372 17.1562 159.773 17.1562C159.247 17.1562 158.729 17.0833 158.219 16.9375C157.714 16.7917 157.253 16.5729 156.836 16.2812C156.424 15.9896 156.094 15.6302 155.844 15.2031C155.599 14.7708 155.477 14.2708 155.477 13.7031H156.977C156.977 14.0938 157.052 14.4297 157.203 14.7109C157.354 14.987 157.56 15.2161 157.82 15.3984C158.086 15.5807 158.385 15.7161 158.719 15.8047C159.057 15.888 159.409 15.9297 159.773 15.9297C160.299 15.9297 160.745 15.8568 161.109 15.7109C161.474 15.5651 161.75 15.3568 161.938 15.0859C162.13 14.8151 162.227 14.4948 162.227 14.125ZM170.43 15.5547V11.2031C170.43 10.8698 170.362 10.5807 170.227 10.3359C170.096 10.0859 169.898 9.89323 169.633 9.75781C169.367 9.6224 169.039 9.55469 168.648 9.55469C168.284 9.55469 167.964 9.61719 167.688 9.74219C167.417 9.86719 167.203 10.0312 167.047 10.2344C166.896 10.4375 166.82 10.6562 166.82 10.8906H165.375C165.375 10.5885 165.453 10.2891 165.609 9.99219C165.766 9.69531 165.99 9.42708 166.281 9.1875C166.578 8.94271 166.932 8.75 167.344 8.60938C167.76 8.46354 168.224 8.39062 168.734 8.39062C169.349 8.39062 169.891 8.49479 170.359 8.70312C170.833 8.91146 171.203 9.22656 171.469 9.64844C171.74 10.0651 171.875 10.5885 171.875 11.2188V15.1562C171.875 15.4375 171.898 15.737 171.945 16.0547C171.997 16.3724 172.073 16.6458 172.172 16.875V17H170.664C170.591 16.8333 170.534 16.612 170.492 16.3359C170.451 16.0547 170.43 15.7943 170.43 15.5547ZM170.68 11.875L170.695 12.8906H169.234C168.823 12.8906 168.456 12.9245 168.133 12.9922C167.81 13.0547 167.539 13.151 167.32 13.2812C167.102 13.4115 166.935 13.5755 166.82 13.7734C166.706 13.9661 166.648 14.1927 166.648 14.4531C166.648 14.7188 166.708 14.9609 166.828 15.1797C166.948 15.3984 167.128 15.5729 167.367 15.7031C167.612 15.8281 167.911 15.8906 168.266 15.8906C168.708 15.8906 169.099 15.7969 169.438 15.6094C169.776 15.4219 170.044 15.1927 170.242 14.9219C170.445 14.651 170.555 14.388 170.57 14.1328L171.188 14.8281C171.151 15.0469 171.052 15.2891 170.891 15.5547C170.729 15.8203 170.513 16.0755 170.242 16.3203C169.977 16.5599 169.659 16.7604 169.289 16.9219C168.924 17.0781 168.513 17.1562 168.055 17.1562C167.482 17.1562 166.979 17.0443 166.547 16.8203C166.12 16.5964 165.786 16.2969 165.547 15.9219C165.312 15.5417 165.195 15.1172 165.195 14.6484C165.195 14.1953 165.284 13.7969 165.461 13.4531C165.638 13.1042 165.893 12.8151 166.227 12.5859C166.56 12.3516 166.961 12.1745 167.43 12.0547C167.898 11.9349 168.422 11.875 169 11.875H170.68ZM175.594 10.3516V17H174.148V8.54688H175.516L175.594 10.3516ZM175.25 12.4531L174.648 12.4297C174.654 11.8516 174.74 11.3177 174.906 10.8281C175.073 10.3333 175.307 9.90365 175.609 9.53906C175.911 9.17448 176.271 8.89323 176.688 8.69531C177.109 8.49219 177.576 8.39062 178.086 8.39062C178.503 8.39062 178.878 8.44792 179.211 8.5625C179.544 8.67188 179.828 8.84896 180.062 9.09375C180.302 9.33854 180.484 9.65625 180.609 10.0469C180.734 10.4323 180.797 10.9036 180.797 11.4609V17H179.344V11.4453C179.344 11.0026 179.279 10.6484 179.148 10.3828C179.018 10.112 178.828 9.91667 178.578 9.79688C178.328 9.67188 178.021 9.60938 177.656 9.60938C177.297 9.60938 176.969 9.6849 176.672 9.83594C176.38 9.98698 176.128 10.1953 175.914 10.4609C175.706 10.7266 175.542 11.0312 175.422 11.375C175.307 11.7135 175.25 12.0729 175.25 12.4531ZM190.258 17H187.883L187.898 15.7734H190.258C191.07 15.7734 191.747 15.6042 192.289 15.2656C192.831 14.9219 193.237 14.4427 193.508 13.8281C193.784 13.2083 193.922 12.4844 193.922 11.6562V10.9609C193.922 10.3099 193.844 9.73177 193.688 9.22656C193.531 8.71615 193.302 8.28646 193 7.9375C192.698 7.58333 192.328 7.3151 191.891 7.13281C191.458 6.95052 190.961 6.85938 190.398 6.85938H187.836V5.625H190.398C191.143 5.625 191.823 5.75 192.438 6C193.052 6.24479 193.581 6.60156 194.023 7.07031C194.471 7.53385 194.815 8.09635 195.055 8.75781C195.294 9.41406 195.414 10.1536 195.414 10.9766V11.6562C195.414 12.4792 195.294 13.2214 195.055 13.8828C194.815 14.5391 194.469 15.099 194.016 15.5625C193.568 16.026 193.026 16.3828 192.391 16.6328C191.76 16.8776 191.049 17 190.258 17ZM188.688 5.625V17H187.18V5.625H188.688ZM199.031 8.54688V17H197.578V8.54688H199.031ZM197.469 6.30469C197.469 6.07031 197.539 5.8724 197.68 5.71094C197.826 5.54948 198.039 5.46875 198.32 5.46875C198.596 5.46875 198.807 5.54948 198.953 5.71094C199.104 5.8724 199.18 6.07031 199.18 6.30469C199.18 6.52865 199.104 6.72135 198.953 6.88281C198.807 7.03906 198.596 7.11719 198.32 7.11719C198.039 7.11719 197.826 7.03906 197.68 6.88281C197.539 6.72135 197.469 6.52865 197.469 6.30469ZM204.859 17.1562C204.271 17.1562 203.737 17.0573 203.258 16.8594C202.784 16.6562 202.375 16.3724 202.031 16.0078C201.693 15.6432 201.432 15.2109 201.25 14.7109C201.068 14.2109 200.977 13.6641 200.977 13.0703V12.7422C200.977 12.0547 201.078 11.4427 201.281 10.9062C201.484 10.3646 201.76 9.90625 202.109 9.53125C202.458 9.15625 202.854 8.8724 203.297 8.67969C203.74 8.48698 204.198 8.39062 204.672 8.39062C205.276 8.39062 205.797 8.49479 206.234 8.70312C206.677 8.91146 207.039 9.20312 207.32 9.57812C207.602 9.94792 207.81 10.3854 207.945 10.8906C208.081 11.3906 208.148 11.9375 208.148 12.5312V13.1797H201.836V12H206.703V11.8906C206.682 11.5156 206.604 11.151 206.469 10.7969C206.339 10.4427 206.13 10.151 205.844 9.92188C205.557 9.69271 205.167 9.57812 204.672 9.57812C204.344 9.57812 204.042 9.64844 203.766 9.78906C203.49 9.92448 203.253 10.1276 203.055 10.3984C202.857 10.6693 202.703 11 202.594 11.3906C202.484 11.7812 202.43 12.2318 202.43 12.7422V13.0703C202.43 13.4714 202.484 13.849 202.594 14.2031C202.708 14.5521 202.872 14.8594 203.086 15.125C203.305 15.3906 203.568 15.599 203.875 15.75C204.188 15.901 204.542 15.9766 204.938 15.9766C205.448 15.9766 205.88 15.8724 206.234 15.6641C206.589 15.4557 206.898 15.1771 207.164 14.8281L208.039 15.5234C207.857 15.7995 207.625 16.0625 207.344 16.3125C207.062 16.5625 206.716 16.7656 206.305 16.9219C205.898 17.0781 205.417 17.1562 204.859 17.1562ZM215.312 8.54688H216.625V16.8203C216.625 17.5651 216.474 18.2005 216.172 18.7266C215.87 19.2526 215.448 19.651 214.906 19.9219C214.37 20.1979 213.75 20.3359 213.047 20.3359C212.755 20.3359 212.411 20.2891 212.016 20.1953C211.625 20.1068 211.24 19.9531 210.859 19.7344C210.484 19.5208 210.169 19.2318 209.914 18.8672L210.672 18.0078C211.026 18.4349 211.396 18.7318 211.781 18.8984C212.172 19.0651 212.557 19.1484 212.938 19.1484C213.396 19.1484 213.792 19.0625 214.125 18.8906C214.458 18.7188 214.716 18.4635 214.898 18.125C215.086 17.7917 215.18 17.3802 215.18 16.8906V10.4062L215.312 8.54688ZM209.492 12.8672V12.7031C209.492 12.0573 209.568 11.4714 209.719 10.9453C209.875 10.4141 210.096 9.95833 210.383 9.57812C210.674 9.19792 211.026 8.90625 211.438 8.70312C211.849 8.49479 212.312 8.39062 212.828 8.39062C213.359 8.39062 213.823 8.48438 214.219 8.67188C214.62 8.85417 214.958 9.1224 215.234 9.47656C215.516 9.82552 215.737 10.2474 215.898 10.7422C216.06 11.237 216.172 11.7969 216.234 12.4219V13.1406C216.177 13.7604 216.065 14.3177 215.898 14.8125C215.737 15.3073 215.516 15.7292 215.234 16.0781C214.958 16.4271 214.62 16.6953 214.219 16.8828C213.818 17.0651 213.349 17.1562 212.812 17.1562C212.307 17.1562 211.849 17.0495 211.438 16.8359C211.031 16.6224 210.682 16.3229 210.391 15.9375C210.099 15.5521 209.875 15.099 209.719 14.5781C209.568 14.0521 209.492 13.4818 209.492 12.8672ZM210.938 12.7031V12.8672C210.938 13.2891 210.979 13.6849 211.062 14.0547C211.151 14.4245 211.284 14.75 211.461 15.0312C211.643 15.3125 211.875 15.5339 212.156 15.6953C212.438 15.8516 212.773 15.9297 213.164 15.9297C213.643 15.9297 214.039 15.8281 214.352 15.625C214.664 15.4219 214.911 15.1536 215.094 14.8203C215.281 14.487 215.427 14.125 215.531 13.7344V11.8516C215.474 11.5651 215.385 11.2891 215.266 11.0234C215.151 10.7526 215 10.513 214.812 10.3047C214.63 10.0911 214.404 9.92188 214.133 9.79688C213.862 9.67188 213.544 9.60938 213.18 9.60938C212.784 9.60938 212.443 9.69271 212.156 9.85938C211.875 10.0208 211.643 10.2448 211.461 10.5312C211.284 10.8125 211.151 11.1406 211.062 11.5156C210.979 11.8854 210.938 12.2812 210.938 12.7031ZM218.438 12.8672V12.6875C218.438 12.0781 218.526 11.513 218.703 10.9922C218.88 10.4661 219.135 10.0104 219.469 9.625C219.802 9.23438 220.206 8.93229 220.68 8.71875C221.154 8.5 221.685 8.39062 222.273 8.39062C222.867 8.39062 223.401 8.5 223.875 8.71875C224.354 8.93229 224.76 9.23438 225.094 9.625C225.432 10.0104 225.69 10.4661 225.867 10.9922C226.044 11.513 226.133 12.0781 226.133 12.6875V12.8672C226.133 13.4766 226.044 14.0417 225.867 14.5625C225.69 15.0833 225.432 15.5391 225.094 15.9297C224.76 16.3151 224.357 16.6172 223.883 16.8359C223.414 17.0495 222.883 17.1562 222.289 17.1562C221.695 17.1562 221.161 17.0495 220.688 16.8359C220.214 16.6172 219.807 16.3151 219.469 15.9297C219.135 15.5391 218.88 15.0833 218.703 14.5625C218.526 14.0417 218.438 13.4766 218.438 12.8672ZM219.883 12.6875V12.8672C219.883 13.2891 219.932 13.6875 220.031 14.0625C220.13 14.4323 220.279 14.7604 220.477 15.0469C220.68 15.3333 220.932 15.5599 221.234 15.7266C221.536 15.888 221.888 15.9688 222.289 15.9688C222.685 15.9688 223.031 15.888 223.328 15.7266C223.63 15.5599 223.88 15.3333 224.078 15.0469C224.276 14.7604 224.424 14.4323 224.523 14.0625C224.628 13.6875 224.68 13.2891 224.68 12.8672V12.6875C224.68 12.2708 224.628 11.8776 224.523 11.5078C224.424 11.1328 224.273 10.8021 224.07 10.5156C223.872 10.224 223.622 9.99479 223.32 9.82812C223.023 9.66146 222.674 9.57812 222.273 9.57812C221.878 9.57812 221.529 9.66146 221.227 9.82812C220.93 9.99479 220.68 10.224 220.477 10.5156C220.279 10.8021 220.13 11.1328 220.031 11.5078C219.932 11.8776 219.883 12.2708 219.883 12.6875Z" fill="#65665C"/>
</svg>
