<svg width="358" height="25" viewBox="0 0 358 25" fill="none" xmlns="http://www.w3.org/2000/svg">
<path d="M8.8125 12.1875C9.14583 12.5 9.54167 12.6562 10 12.6562C10.4583 12.6562 10.8438 12.5 11.1562 12.1875C11.4896 11.8542 11.6562 11.4583 11.6562 11C11.6562 10.5417 11.4896 10.1562 11.1562 9.84375C10.8438 9.51042 10.4583 9.34375 10 9.34375C9.54167 9.34375 9.14583 9.51042 8.8125 9.84375C8.5 10.1562 8.34375 10.5417 8.34375 11C8.34375 11.4583 8.5 11.8542 8.8125 12.1875ZM6.6875 7.71875C7.60417 6.80208 8.70833 6.34375 10 6.34375C11.2917 6.34375 12.3854 6.80208 13.2812 7.71875C14.1979 8.61458 14.6562 9.70833 14.6562 11C14.6562 11.6458 14.4896 12.3854 14.1562 13.2188C13.8438 14.0521 13.4583 14.8333 13 15.5625C12.5417 16.2917 12.0833 16.9792 11.625 17.625C11.1875 18.25 10.8125 18.75 10.5 19.125L10 19.6562C9.875 19.5104 9.70833 19.3229 9.5 19.0938C9.29167 18.8438 8.91667 18.3646 8.375 17.6562C7.83333 16.9271 7.35417 16.2292 6.9375 15.5625C6.54167 14.875 6.17708 14.1042 5.84375 13.25C5.51042 12.3958 5.34375 11.6458 5.34375 11C5.34375 9.70833 5.79167 8.61458 6.6875 7.71875Z" fill="#65665C"/>
<path d="M36.3984 16.8125V18H28.9531V16.9609L32.6797 12.8125C33.138 12.3021 33.4922 11.8698 33.7422 11.5156C33.9974 11.1562 34.1745 10.8359 34.2734 10.5547C34.3776 10.2682 34.4297 9.97656 34.4297 9.67969C34.4297 9.30469 34.3516 8.96615 34.1953 8.66406C34.0443 8.35677 33.8203 8.11198 33.5234 7.92969C33.2266 7.7474 32.8672 7.65625 32.4453 7.65625C31.9401 7.65625 31.5182 7.75521 31.1797 7.95312C30.8464 8.14583 30.5964 8.41667 30.4297 8.76562C30.263 9.11458 30.1797 9.51562 30.1797 9.96875H28.7344C28.7344 9.32812 28.875 8.74219 29.1562 8.21094C29.4375 7.67969 29.8542 7.25781 30.4062 6.94531C30.9583 6.6276 31.638 6.46875 32.4453 6.46875C33.1641 6.46875 33.7786 6.59635 34.2891 6.85156C34.7995 7.10156 35.1901 7.45573 35.4609 7.91406C35.737 8.36719 35.875 8.89844 35.875 9.50781C35.875 9.84115 35.8177 10.1797 35.7031 10.5234C35.5938 10.862 35.4401 11.2005 35.2422 11.5391C35.0495 11.8776 34.8229 12.2109 34.5625 12.5391C34.3073 12.8672 34.0339 13.1901 33.7422 13.5078L30.6953 16.8125H36.3984ZM45.3984 16.8125V18H37.9531V16.9609L41.6797 12.8125C42.138 12.3021 42.4922 11.8698 42.7422 11.5156C42.9974 11.1562 43.1745 10.8359 43.2734 10.5547C43.3776 10.2682 43.4297 9.97656 43.4297 9.67969C43.4297 9.30469 43.3516 8.96615 43.1953 8.66406C43.0443 8.35677 42.8203 8.11198 42.5234 7.92969C42.2266 7.7474 41.8672 7.65625 41.4453 7.65625C40.9401 7.65625 40.5182 7.75521 40.1797 7.95312C39.8464 8.14583 39.5964 8.41667 39.4297 8.76562C39.263 9.11458 39.1797 9.51562 39.1797 9.96875H37.7344C37.7344 9.32812 37.875 8.74219 38.1562 8.21094C38.4375 7.67969 38.8542 7.25781 39.4062 6.94531C39.9583 6.6276 40.638 6.46875 41.4453 6.46875C42.1641 6.46875 42.7786 6.59635 43.2891 6.85156C43.7995 7.10156 44.1901 7.45573 44.4609 7.91406C44.737 8.36719 44.875 8.89844 44.875 9.50781C44.875 9.84115 44.8177 10.1797 44.7031 10.5234C44.5938 10.862 44.4401 11.2005 44.2422 11.5391C44.0495 11.8776 43.8229 12.2109 43.5625 12.5391C43.3073 12.8672 43.0339 13.1901 42.7422 13.5078L39.6953 16.8125H45.3984ZM52.4922 6.60938H52.6172V7.83594H52.4922C51.7266 7.83594 51.0859 7.96094 50.5703 8.21094C50.0547 8.45573 49.6458 8.78646 49.3438 9.20312C49.0417 9.61458 48.8229 10.0781 48.6875 10.5938C48.5573 11.1094 48.4922 11.6328 48.4922 12.1641V13.8359C48.4922 14.3411 48.5521 14.7891 48.6719 15.1797C48.7917 15.5651 48.9557 15.8906 49.1641 16.1562C49.3724 16.4219 49.6068 16.6224 49.8672 16.7578C50.1328 16.8932 50.4089 16.9609 50.6953 16.9609C51.0286 16.9609 51.3255 16.8984 51.5859 16.7734C51.8464 16.6432 52.0651 16.4635 52.2422 16.2344C52.4245 16 52.5625 15.724 52.6562 15.4062C52.75 15.0885 52.7969 14.7396 52.7969 14.3594C52.7969 14.0208 52.7552 13.6953 52.6719 13.3828C52.5885 13.0651 52.4609 12.7839 52.2891 12.5391C52.1172 12.2891 51.901 12.0938 51.6406 11.9531C51.3854 11.8073 51.0807 11.7344 50.7266 11.7344C50.3255 11.7344 49.9505 11.8333 49.6016 12.0312C49.2578 12.224 48.974 12.4792 48.75 12.7969C48.5312 13.1094 48.4062 13.4505 48.375 13.8203L47.6094 13.8125C47.6823 13.2292 47.8177 12.7318 48.0156 12.3203C48.2188 11.9036 48.4688 11.5651 48.7656 11.3047C49.0677 11.0391 49.4036 10.8464 49.7734 10.7266C50.1484 10.6016 50.5443 10.5391 50.9609 10.5391C51.5286 10.5391 52.0182 10.6458 52.4297 10.8594C52.8411 11.0729 53.1797 11.3594 53.4453 11.7188C53.7109 12.0729 53.9062 12.474 54.0312 12.9219C54.1615 13.3646 54.2266 13.8203 54.2266 14.2891C54.2266 14.8255 54.151 15.3281 54 15.7969C53.849 16.2656 53.6224 16.6771 53.3203 17.0312C53.0234 17.3854 52.6562 17.6615 52.2188 17.8594C51.7812 18.0573 51.2734 18.1562 50.6953 18.1562C50.0807 18.1562 49.5443 18.0312 49.0859 17.7812C48.6276 17.526 48.2474 17.1875 47.9453 16.7656C47.6432 16.3438 47.4167 15.875 47.2656 15.3594C47.1146 14.8438 47.0391 14.3203 47.0391 13.7891V13.1094C47.0391 12.3073 47.1198 11.5208 47.2812 10.75C47.4427 9.97917 47.7214 9.28125 48.1172 8.65625C48.5182 8.03125 49.0729 7.53385 49.7812 7.16406C50.4896 6.79427 51.3932 6.60938 52.4922 6.60938ZM58.0547 11.6016H59.0859C59.5911 11.6016 60.0078 11.5182 60.3359 11.3516C60.6693 11.1797 60.9167 10.9479 61.0781 10.6562C61.2448 10.3594 61.3281 10.026 61.3281 9.65625C61.3281 9.21875 61.2552 8.85156 61.1094 8.55469C60.9635 8.25781 60.7448 8.03385 60.4531 7.88281C60.1615 7.73177 59.7917 7.65625 59.3438 7.65625C58.9375 7.65625 58.5781 7.73698 58.2656 7.89844C57.9583 8.05469 57.7161 8.27865 57.5391 8.57031C57.3672 8.86198 57.2812 9.20573 57.2812 9.60156H55.8359C55.8359 9.02344 55.9818 8.4974 56.2734 8.02344C56.5651 7.54948 56.974 7.17188 57.5 6.89062C58.0312 6.60938 58.6458 6.46875 59.3438 6.46875C60.0312 6.46875 60.6328 6.59115 61.1484 6.83594C61.6641 7.07552 62.0651 7.4349 62.3516 7.91406C62.638 8.38802 62.7812 8.97917 62.7812 9.6875C62.7812 9.97396 62.7135 10.2812 62.5781 10.6094C62.4479 10.9323 62.2422 11.2344 61.9609 11.5156C61.6849 11.7969 61.3255 12.0286 60.8828 12.2109C60.4401 12.388 59.9089 12.4766 59.2891 12.4766H58.0547V11.6016ZM58.0547 12.7891V11.9219H59.2891C60.013 11.9219 60.612 12.0078 61.0859 12.1797C61.5599 12.3516 61.9323 12.5807 62.2031 12.8672C62.4792 13.1536 62.6719 13.4688 62.7812 13.8125C62.8958 14.151 62.9531 14.4896 62.9531 14.8281C62.9531 15.3594 62.862 15.8307 62.6797 16.2422C62.5026 16.6536 62.25 17.0026 61.9219 17.2891C61.599 17.5755 61.2188 17.7917 60.7812 17.9375C60.3438 18.0833 59.8672 18.1562 59.3516 18.1562C58.8568 18.1562 58.3906 18.0859 57.9531 17.9453C57.5208 17.8047 57.138 17.6016 56.8047 17.3359C56.4714 17.0651 56.2109 16.7344 56.0234 16.3438C55.8359 15.9479 55.7422 15.4974 55.7422 14.9922H57.1875C57.1875 15.388 57.2734 15.7344 57.4453 16.0312C57.6224 16.3281 57.8724 16.5599 58.1953 16.7266C58.5234 16.888 58.9089 16.9688 59.3516 16.9688C59.7943 16.9688 60.1745 16.8932 60.4922 16.7422C60.8151 16.5859 61.0625 16.3516 61.2344 16.0391C61.4115 15.7266 61.5 15.3333 61.5 14.8594C61.5 14.3854 61.401 13.9974 61.2031 13.6953C61.0052 13.388 60.724 13.1615 60.3594 13.0156C60 12.8646 59.5755 12.7891 59.0859 12.7891H58.0547ZM75.3516 15.125C75.3516 14.8594 75.3099 14.625 75.2266 14.4219C75.1484 14.2135 75.0078 14.026 74.8047 13.8594C74.6068 13.6927 74.3307 13.5339 73.9766 13.3828C73.6276 13.2318 73.1849 13.0781 72.6484 12.9219C72.0859 12.7552 71.5781 12.5703 71.125 12.3672C70.6719 12.1589 70.2839 11.9219 69.9609 11.6562C69.638 11.3906 69.3906 11.0859 69.2188 10.7422C69.0469 10.3984 68.9609 10.0052 68.9609 9.5625C68.9609 9.11979 69.0521 8.71094 69.2344 8.33594C69.4167 7.96094 69.6771 7.63542 70.0156 7.35938C70.3594 7.07812 70.7682 6.85938 71.2422 6.70312C71.7161 6.54688 72.2448 6.46875 72.8281 6.46875C73.6823 6.46875 74.4062 6.63281 75 6.96094C75.599 7.28385 76.0547 7.70833 76.3672 8.23438C76.6797 8.75521 76.8359 9.3125 76.8359 9.90625H75.3359C75.3359 9.47917 75.2448 9.10156 75.0625 8.77344C74.8802 8.4401 74.6042 8.17969 74.2344 7.99219C73.8646 7.79948 73.3958 7.70312 72.8281 7.70312C72.2917 7.70312 71.849 7.78385 71.5 7.94531C71.151 8.10677 70.8906 8.32552 70.7188 8.60156C70.5521 8.8776 70.4688 9.19271 70.4688 9.54688C70.4688 9.78646 70.5182 10.0052 70.6172 10.2031C70.7214 10.3958 70.8802 10.5755 71.0938 10.7422C71.3125 10.9089 71.5885 11.0625 71.9219 11.2031C72.2604 11.3438 72.6641 11.4792 73.1328 11.6094C73.7786 11.7917 74.3359 11.9948 74.8047 12.2188C75.2734 12.4427 75.6589 12.6953 75.9609 12.9766C76.2682 13.2526 76.4948 13.5677 76.6406 13.9219C76.7917 14.2708 76.8672 14.6667 76.8672 15.1094C76.8672 15.5729 76.7734 15.9922 76.5859 16.3672C76.3984 16.7422 76.1302 17.0625 75.7812 17.3281C75.4323 17.5938 75.013 17.7995 74.5234 17.9453C74.0391 18.0859 73.4974 18.1562 72.8984 18.1562C72.3724 18.1562 71.8542 18.0833 71.3438 17.9375C70.8385 17.7917 70.3776 17.5729 69.9609 17.2812C69.5495 16.9896 69.2188 16.6302 68.9688 16.2031C68.724 15.7708 68.6016 15.2708 68.6016 14.7031H70.1016C70.1016 15.0938 70.1771 15.4297 70.3281 15.7109C70.4792 15.987 70.6849 16.2161 70.9453 16.3984C71.2109 16.5807 71.5104 16.7161 71.8438 16.8047C72.1823 16.888 72.5339 16.9297 72.8984 16.9297C73.4245 16.9297 73.8698 16.8568 74.2344 16.7109C74.599 16.5651 74.875 16.3568 75.0625 16.0859C75.2552 15.8151 75.3516 15.4948 75.3516 15.125ZM78.1875 13.8672V13.6875C78.1875 13.0781 78.276 12.513 78.4531 11.9922C78.6302 11.4661 78.8854 11.0104 79.2188 10.625C79.5521 10.2344 79.9557 9.93229 80.4297 9.71875C80.9036 9.5 81.4349 9.39062 82.0234 9.39062C82.6172 9.39062 83.151 9.5 83.625 9.71875C84.1042 9.93229 84.5104 10.2344 84.8438 10.625C85.1823 11.0104 85.4401 11.4661 85.6172 11.9922C85.7943 12.513 85.8828 13.0781 85.8828 13.6875V13.8672C85.8828 14.4766 85.7943 15.0417 85.6172 15.5625C85.4401 16.0833 85.1823 16.5391 84.8438 16.9297C84.5104 17.3151 84.1068 17.6172 83.6328 17.8359C83.1641 18.0495 82.6328 18.1562 82.0391 18.1562C81.4453 18.1562 80.9115 18.0495 80.4375 17.8359C79.9635 17.6172 79.5573 17.3151 79.2188 16.9297C78.8854 16.5391 78.6302 16.0833 78.4531 15.5625C78.276 15.0417 78.1875 14.4766 78.1875 13.8672ZM79.6328 13.6875V13.8672C79.6328 14.2891 79.6823 14.6875 79.7812 15.0625C79.8802 15.4323 80.0286 15.7604 80.2266 16.0469C80.4297 16.3333 80.6823 16.5599 80.9844 16.7266C81.2865 16.888 81.638 16.9688 82.0391 16.9688C82.4349 16.9688 82.7812 16.888 83.0781 16.7266C83.3802 16.5599 83.6302 16.3333 83.8281 16.0469C84.026 15.7604 84.1745 15.4323 84.2734 15.0625C84.3776 14.6875 84.4297 14.2891 84.4297 13.8672V13.6875C84.4297 13.2708 84.3776 12.8776 84.2734 12.5078C84.1745 12.1328 84.0234 11.8021 83.8203 11.5156C83.6224 11.224 83.3724 10.9948 83.0703 10.8281C82.7734 10.6615 82.4245 10.5781 82.0234 10.5781C81.6276 10.5781 81.2786 10.6615 80.9766 10.8281C80.6797 10.9948 80.4297 11.224 80.2266 11.5156C80.0286 11.8021 79.8802 12.1328 79.7812 12.5078C79.6823 12.8776 79.6328 13.2708 79.6328 13.6875ZM92.8672 16.0469V9.54688H94.3203V18H92.9375L92.8672 16.0469ZM93.1406 14.2656L93.7422 14.25C93.7422 14.8125 93.6823 15.3333 93.5625 15.8125C93.4479 16.2865 93.2604 16.6979 93 17.0469C92.7396 17.3958 92.3984 17.6693 91.9766 17.8672C91.5547 18.0599 91.0417 18.1562 90.4375 18.1562C90.026 18.1562 89.6484 18.0964 89.3047 17.9766C88.9661 17.8568 88.6745 17.6719 88.4297 17.4219C88.1849 17.1719 87.9948 16.8464 87.8594 16.4453C87.7292 16.0443 87.6641 15.5625 87.6641 15V9.54688H89.1094V15.0156C89.1094 15.3958 89.151 15.7109 89.2344 15.9609C89.3229 16.2057 89.4401 16.401 89.5859 16.5469C89.737 16.6875 89.9036 16.7865 90.0859 16.8438C90.2734 16.901 90.4661 16.9297 90.6641 16.9297C91.2786 16.9297 91.7656 16.8125 92.125 16.5781C92.4844 16.3385 92.7422 16.0182 92.8984 15.6172C93.0599 15.2109 93.1406 14.7604 93.1406 14.2656ZM100.062 9.54688V10.6562H95.4922V9.54688H100.062ZM97.0391 7.49219H98.4844V15.9062C98.4844 16.1927 98.5286 16.4089 98.6172 16.5547C98.7057 16.7005 98.8203 16.7969 98.9609 16.8438C99.1016 16.8906 99.2526 16.9141 99.4141 16.9141C99.5339 16.9141 99.6589 16.9036 99.7891 16.8828C99.9245 16.8568 100.026 16.8359 100.094 16.8203L100.102 18C99.987 18.0365 99.8359 18.0703 99.6484 18.1016C99.4661 18.138 99.2448 18.1562 98.9844 18.1562C98.6302 18.1562 98.3047 18.0859 98.0078 17.9453C97.7109 17.8047 97.474 17.5703 97.2969 17.2422C97.125 16.9089 97.0391 16.4609 97.0391 15.8984V7.49219ZM103.203 6V18H101.758V6H103.203ZM102.859 13.4531L102.258 13.4297C102.263 12.8516 102.349 12.3177 102.516 11.8281C102.682 11.3333 102.917 10.9036 103.219 10.5391C103.521 10.1745 103.88 9.89323 104.297 9.69531C104.719 9.49219 105.185 9.39062 105.695 9.39062C106.112 9.39062 106.487 9.44792 106.82 9.5625C107.154 9.67188 107.438 9.84896 107.672 10.0938C107.911 10.3385 108.094 10.6562 108.219 11.0469C108.344 11.4323 108.406 11.9036 108.406 12.4609V18H106.953V12.4453C106.953 12.0026 106.888 11.6484 106.758 11.3828C106.628 11.112 106.438 10.9167 106.188 10.7969C105.938 10.6719 105.63 10.6094 105.266 10.6094C104.906 10.6094 104.578 10.6849 104.281 10.8359C103.99 10.987 103.737 11.1953 103.523 11.4609C103.315 11.7266 103.151 12.0312 103.031 12.375C102.917 12.7135 102.859 13.0729 102.859 13.4531ZM112.141 6V18H110.688V6H112.141ZM117.969 18.1562C117.38 18.1562 116.846 18.0573 116.367 17.8594C115.893 17.6562 115.484 17.3724 115.141 17.0078C114.802 16.6432 114.542 16.2109 114.359 15.7109C114.177 15.2109 114.086 14.6641 114.086 14.0703V13.7422C114.086 13.0547 114.188 12.4427 114.391 11.9062C114.594 11.3646 114.87 10.9062 115.219 10.5312C115.568 10.1562 115.964 9.8724 116.406 9.67969C116.849 9.48698 117.307 9.39062 117.781 9.39062C118.385 9.39062 118.906 9.49479 119.344 9.70312C119.786 9.91146 120.148 10.2031 120.43 10.5781C120.711 10.9479 120.919 11.3854 121.055 11.8906C121.19 12.3906 121.258 12.9375 121.258 13.5312V14.1797H114.945V13H119.812V12.8906C119.792 12.5156 119.714 12.151 119.578 11.7969C119.448 11.4427 119.24 11.151 118.953 10.9219C118.667 10.6927 118.276 10.5781 117.781 10.5781C117.453 10.5781 117.151 10.6484 116.875 10.7891C116.599 10.9245 116.362 11.1276 116.164 11.3984C115.966 11.6693 115.812 12 115.703 12.3906C115.594 12.7812 115.539 13.2318 115.539 13.7422V14.0703C115.539 14.4714 115.594 14.849 115.703 15.2031C115.818 15.5521 115.982 15.8594 116.195 16.125C116.414 16.3906 116.677 16.599 116.984 16.75C117.297 16.901 117.651 16.9766 118.047 16.9766C118.557 16.9766 118.99 16.8724 119.344 16.6641C119.698 16.4557 120.008 16.1771 120.273 15.8281L121.148 16.5234C120.966 16.7995 120.734 17.0625 120.453 17.3125C120.172 17.5625 119.826 17.7656 119.414 17.9219C119.008 18.0781 118.526 18.1562 117.969 18.1562ZM127.93 16.5547V12.2031C127.93 11.8698 127.862 11.5807 127.727 11.3359C127.596 11.0859 127.398 10.8932 127.133 10.7578C126.867 10.6224 126.539 10.5547 126.148 10.5547C125.784 10.5547 125.464 10.6172 125.188 10.7422C124.917 10.8672 124.703 11.0312 124.547 11.2344C124.396 11.4375 124.32 11.6562 124.32 11.8906H122.875C122.875 11.5885 122.953 11.2891 123.109 10.9922C123.266 10.6953 123.49 10.4271 123.781 10.1875C124.078 9.94271 124.432 9.75 124.844 9.60938C125.26 9.46354 125.724 9.39062 126.234 9.39062C126.849 9.39062 127.391 9.49479 127.859 9.70312C128.333 9.91146 128.703 10.2266 128.969 10.6484C129.24 11.0651 129.375 11.5885 129.375 12.2188V16.1562C129.375 16.4375 129.398 16.737 129.445 17.0547C129.497 17.3724 129.573 17.6458 129.672 17.875V18H128.164C128.091 17.8333 128.034 17.612 127.992 17.3359C127.951 17.0547 127.93 16.7943 127.93 16.5547ZM128.18 12.875L128.195 13.8906H126.734C126.323 13.8906 125.956 13.9245 125.633 13.9922C125.31 14.0547 125.039 14.151 124.82 14.2812C124.602 14.4115 124.435 14.5755 124.32 14.7734C124.206 14.9661 124.148 15.1927 124.148 15.4531C124.148 15.7188 124.208 15.9609 124.328 16.1797C124.448 16.3984 124.628 16.5729 124.867 16.7031C125.112 16.8281 125.411 16.8906 125.766 16.8906C126.208 16.8906 126.599 16.7969 126.938 16.6094C127.276 16.4219 127.544 16.1927 127.742 15.9219C127.945 15.651 128.055 15.388 128.07 15.1328L128.688 15.8281C128.651 16.0469 128.552 16.2891 128.391 16.5547C128.229 16.8203 128.013 17.0755 127.742 17.3203C127.477 17.5599 127.159 17.7604 126.789 17.9219C126.424 18.0781 126.013 18.1562 125.555 18.1562C124.982 18.1562 124.479 18.0443 124.047 17.8203C123.62 17.5964 123.286 17.2969 123.047 16.9219C122.812 16.5417 122.695 16.1172 122.695 15.6484C122.695 15.1953 122.784 14.7969 122.961 14.4531C123.138 14.1042 123.393 13.8151 123.727 13.5859C124.06 13.3516 124.461 13.1745 124.93 13.0547C125.398 12.9349 125.922 12.875 126.5 12.875H128.18ZM132.961 16.2812V17.4453C132.961 17.9193 132.841 18.4193 132.602 18.9453C132.362 19.4766 132.026 19.9193 131.594 20.2734L130.773 19.7031C130.94 19.474 131.081 19.2396 131.195 19C131.31 18.7656 131.396 18.5208 131.453 18.2656C131.516 18.0156 131.547 17.75 131.547 17.4688V16.2812H132.961ZM145.891 16.7734V18H140.203V16.7734H145.891ZM140.5 6.625V18H138.992V6.625H140.5ZM147.016 13.8672V13.6875C147.016 13.0781 147.104 12.513 147.281 11.9922C147.458 11.4661 147.714 11.0104 148.047 10.625C148.38 10.2344 148.784 9.93229 149.258 9.71875C149.732 9.5 150.263 9.39062 150.852 9.39062C151.445 9.39062 151.979 9.5 152.453 9.71875C152.932 9.93229 153.339 10.2344 153.672 10.625C154.01 11.0104 154.268 11.4661 154.445 11.9922C154.622 12.513 154.711 13.0781 154.711 13.6875V13.8672C154.711 14.4766 154.622 15.0417 154.445 15.5625C154.268 16.0833 154.01 16.5391 153.672 16.9297C153.339 17.3151 152.935 17.6172 152.461 17.8359C151.992 18.0495 151.461 18.1562 150.867 18.1562C150.273 18.1562 149.74 18.0495 149.266 17.8359C148.792 17.6172 148.385 17.3151 148.047 16.9297C147.714 16.5391 147.458 16.0833 147.281 15.5625C147.104 15.0417 147.016 14.4766 147.016 13.8672ZM148.461 13.6875V13.8672C148.461 14.2891 148.51 14.6875 148.609 15.0625C148.708 15.4323 148.857 15.7604 149.055 16.0469C149.258 16.3333 149.51 16.5599 149.812 16.7266C150.115 16.888 150.466 16.9688 150.867 16.9688C151.263 16.9688 151.609 16.888 151.906 16.7266C152.208 16.5599 152.458 16.3333 152.656 16.0469C152.854 15.7604 153.003 15.4323 153.102 15.0625C153.206 14.6875 153.258 14.2891 153.258 13.8672V13.6875C153.258 13.2708 153.206 12.8776 153.102 12.5078C153.003 12.1328 152.852 11.8021 152.648 11.5156C152.451 11.224 152.201 10.9948 151.898 10.8281C151.602 10.6615 151.253 10.5781 150.852 10.5781C150.456 10.5781 150.107 10.6615 149.805 10.8281C149.508 10.9948 149.258 11.224 149.055 11.5156C148.857 11.8021 148.708 12.1328 148.609 12.5078C148.51 12.8776 148.461 13.2708 148.461 13.6875ZM161.445 15.7578C161.445 15.5495 161.398 15.3568 161.305 15.1797C161.216 14.9974 161.031 14.8333 160.75 14.6875C160.474 14.5365 160.057 14.4062 159.5 14.2969C159.031 14.1979 158.607 14.0807 158.227 13.9453C157.852 13.8099 157.531 13.6458 157.266 13.4531C157.005 13.2604 156.805 13.0339 156.664 12.7734C156.523 12.513 156.453 12.2083 156.453 11.8594C156.453 11.526 156.526 11.2109 156.672 10.9141C156.823 10.6172 157.034 10.3542 157.305 10.125C157.581 9.89583 157.911 9.71615 158.297 9.58594C158.682 9.45573 159.112 9.39062 159.586 9.39062C160.263 9.39062 160.841 9.51042 161.32 9.75C161.799 9.98958 162.167 10.3099 162.422 10.7109C162.677 11.1068 162.805 11.5469 162.805 12.0312H161.359C161.359 11.7969 161.289 11.5703 161.148 11.3516C161.013 11.1276 160.812 10.9427 160.547 10.7969C160.286 10.651 159.966 10.5781 159.586 10.5781C159.185 10.5781 158.859 10.6406 158.609 10.7656C158.365 10.8854 158.185 11.0391 158.07 11.2266C157.961 11.4141 157.906 11.612 157.906 11.8203C157.906 11.9766 157.932 12.1172 157.984 12.2422C158.042 12.362 158.141 12.474 158.281 12.5781C158.422 12.6771 158.62 12.7708 158.875 12.8594C159.13 12.9479 159.456 13.0365 159.852 13.125C160.544 13.2812 161.115 13.4688 161.562 13.6875C162.01 13.9062 162.344 14.1745 162.562 14.4922C162.781 14.8099 162.891 15.1953 162.891 15.6484C162.891 16.0182 162.812 16.3568 162.656 16.6641C162.505 16.9714 162.284 17.237 161.992 17.4609C161.706 17.6797 161.362 17.8516 160.961 17.9766C160.565 18.0964 160.12 18.1562 159.625 18.1562C158.88 18.1562 158.25 18.0234 157.734 17.7578C157.219 17.4922 156.828 17.1484 156.562 16.7266C156.297 16.3047 156.164 15.8594 156.164 15.3906H157.617C157.638 15.7865 157.753 16.1016 157.961 16.3359C158.169 16.5651 158.424 16.7292 158.727 16.8281C159.029 16.9219 159.328 16.9688 159.625 16.9688C160.021 16.9688 160.352 16.9167 160.617 16.8125C160.888 16.7083 161.094 16.5651 161.234 16.3828C161.375 16.2005 161.445 15.9922 161.445 15.7578ZM173.188 7.63281L169.422 18H167.883L172.219 6.625H173.211L173.188 7.63281ZM176.344 18L172.57 7.63281L172.547 6.625H173.539L177.891 18H176.344ZM176.148 13.7891V15.0234H169.758V13.7891H176.148ZM180.641 11.3516V18H179.195V9.54688H180.562L180.641 11.3516ZM180.297 13.4531L179.695 13.4297C179.701 12.8516 179.786 12.3177 179.953 11.8281C180.12 11.3333 180.354 10.9036 180.656 10.5391C180.958 10.1745 181.318 9.89323 181.734 9.69531C182.156 9.49219 182.622 9.39062 183.133 9.39062C183.549 9.39062 183.924 9.44792 184.258 9.5625C184.591 9.67188 184.875 9.84896 185.109 10.0938C185.349 10.3385 185.531 10.6562 185.656 11.0469C185.781 11.4323 185.844 11.9036 185.844 12.4609V18H184.391V12.4453C184.391 12.0026 184.326 11.6484 184.195 11.3828C184.065 11.112 183.875 10.9167 183.625 10.7969C183.375 10.6719 183.068 10.6094 182.703 10.6094C182.344 10.6094 182.016 10.6849 181.719 10.8359C181.427 10.987 181.174 11.1953 180.961 11.4609C180.753 11.7266 180.589 12.0312 180.469 12.375C180.354 12.7135 180.297 13.0729 180.297 13.4531ZM193.516 9.54688H194.828V17.8203C194.828 18.5651 194.677 19.2005 194.375 19.7266C194.073 20.2526 193.651 20.651 193.109 20.9219C192.573 21.1979 191.953 21.3359 191.25 21.3359C190.958 21.3359 190.615 21.2891 190.219 21.1953C189.828 21.1068 189.443 20.9531 189.062 20.7344C188.688 20.5208 188.372 20.2318 188.117 19.8672L188.875 19.0078C189.229 19.4349 189.599 19.7318 189.984 19.8984C190.375 20.0651 190.76 20.1484 191.141 20.1484C191.599 20.1484 191.995 20.0625 192.328 19.8906C192.661 19.7188 192.919 19.4635 193.102 19.125C193.289 18.7917 193.383 18.3802 193.383 17.8906V11.4062L193.516 9.54688ZM187.695 13.8672V13.7031C187.695 13.0573 187.771 12.4714 187.922 11.9453C188.078 11.4141 188.299 10.9583 188.586 10.5781C188.878 10.1979 189.229 9.90625 189.641 9.70312C190.052 9.49479 190.516 9.39062 191.031 9.39062C191.562 9.39062 192.026 9.48438 192.422 9.67188C192.823 9.85417 193.161 10.1224 193.438 10.4766C193.719 10.8255 193.94 11.2474 194.102 11.7422C194.263 12.237 194.375 12.7969 194.438 13.4219V14.1406C194.38 14.7604 194.268 15.3177 194.102 15.8125C193.94 16.3073 193.719 16.7292 193.438 17.0781C193.161 17.4271 192.823 17.6953 192.422 17.8828C192.021 18.0651 191.552 18.1562 191.016 18.1562C190.51 18.1562 190.052 18.0495 189.641 17.8359C189.234 17.6224 188.885 17.3229 188.594 16.9375C188.302 16.5521 188.078 16.099 187.922 15.5781C187.771 15.0521 187.695 14.4818 187.695 13.8672ZM189.141 13.7031V13.8672C189.141 14.2891 189.182 14.6849 189.266 15.0547C189.354 15.4245 189.487 15.75 189.664 16.0312C189.846 16.3125 190.078 16.5339 190.359 16.6953C190.641 16.8516 190.977 16.9297 191.367 16.9297C191.846 16.9297 192.242 16.8281 192.555 16.625C192.867 16.4219 193.115 16.1536 193.297 15.8203C193.484 15.487 193.63 15.125 193.734 14.7344V12.8516C193.677 12.5651 193.589 12.2891 193.469 12.0234C193.354 11.7526 193.203 11.513 193.016 11.3047C192.833 11.0911 192.607 10.9219 192.336 10.7969C192.065 10.6719 191.747 10.6094 191.383 10.6094C190.987 10.6094 190.646 10.6927 190.359 10.8594C190.078 11.0208 189.846 11.2448 189.664 11.5312C189.487 11.8125 189.354 12.1406 189.266 12.5156C189.182 12.8854 189.141 13.2812 189.141 13.7031ZM200.531 18.1562C199.943 18.1562 199.409 18.0573 198.93 17.8594C198.456 17.6562 198.047 17.3724 197.703 17.0078C197.365 16.6432 197.104 16.2109 196.922 15.7109C196.74 15.2109 196.648 14.6641 196.648 14.0703V13.7422C196.648 13.0547 196.75 12.4427 196.953 11.9062C197.156 11.3646 197.432 10.9062 197.781 10.5312C198.13 10.1562 198.526 9.8724 198.969 9.67969C199.411 9.48698 199.87 9.39062 200.344 9.39062C200.948 9.39062 201.469 9.49479 201.906 9.70312C202.349 9.91146 202.711 10.2031 202.992 10.5781C203.273 10.9479 203.482 11.3854 203.617 11.8906C203.753 12.3906 203.82 12.9375 203.82 13.5312V14.1797H197.508V13H202.375V12.8906C202.354 12.5156 202.276 12.151 202.141 11.7969C202.01 11.4427 201.802 11.151 201.516 10.9219C201.229 10.6927 200.839 10.5781 200.344 10.5781C200.016 10.5781 199.714 10.6484 199.438 10.7891C199.161 10.9245 198.924 11.1276 198.727 11.3984C198.529 11.6693 198.375 12 198.266 12.3906C198.156 12.7812 198.102 13.2318 198.102 13.7422V14.0703C198.102 14.4714 198.156 14.849 198.266 15.2031C198.38 15.5521 198.544 15.8594 198.758 16.125C198.977 16.3906 199.24 16.599 199.547 16.75C199.859 16.901 200.214 16.9766 200.609 16.9766C201.12 16.9766 201.552 16.8724 201.906 16.6641C202.26 16.4557 202.57 16.1771 202.836 15.8281L203.711 16.5234C203.529 16.7995 203.297 17.0625 203.016 17.3125C202.734 17.5625 202.388 17.7656 201.977 17.9219C201.57 18.0781 201.089 18.1562 200.531 18.1562ZM207.078 6V18H205.625V6H207.078ZM212.906 18.1562C212.318 18.1562 211.784 18.0573 211.305 17.8594C210.831 17.6562 210.422 17.3724 210.078 17.0078C209.74 16.6432 209.479 16.2109 209.297 15.7109C209.115 15.2109 209.023 14.6641 209.023 14.0703V13.7422C209.023 13.0547 209.125 12.4427 209.328 11.9062C209.531 11.3646 209.807 10.9062 210.156 10.5312C210.505 10.1562 210.901 9.8724 211.344 9.67969C211.786 9.48698 212.245 9.39062 212.719 9.39062C213.323 9.39062 213.844 9.49479 214.281 9.70312C214.724 9.91146 215.086 10.2031 215.367 10.5781C215.648 10.9479 215.857 11.3854 215.992 11.8906C216.128 12.3906 216.195 12.9375 216.195 13.5312V14.1797H209.883V13H214.75V12.8906C214.729 12.5156 214.651 12.151 214.516 11.7969C214.385 11.4427 214.177 11.151 213.891 10.9219C213.604 10.6927 213.214 10.5781 212.719 10.5781C212.391 10.5781 212.089 10.6484 211.812 10.7891C211.536 10.9245 211.299 11.1276 211.102 11.3984C210.904 11.6693 210.75 12 210.641 12.3906C210.531 12.7812 210.477 13.2318 210.477 13.7422V14.0703C210.477 14.4714 210.531 14.849 210.641 15.2031C210.755 15.5521 210.919 15.8594 211.133 16.125C211.352 16.3906 211.615 16.599 211.922 16.75C212.234 16.901 212.589 16.9766 212.984 16.9766C213.495 16.9766 213.927 16.8724 214.281 16.6641C214.635 16.4557 214.945 16.1771 215.211 15.8281L216.086 16.5234C215.904 16.7995 215.672 17.0625 215.391 17.3125C215.109 17.5625 214.763 17.7656 214.352 17.9219C213.945 18.0781 213.464 18.1562 212.906 18.1562ZM222.805 15.7578C222.805 15.5495 222.758 15.3568 222.664 15.1797C222.576 14.9974 222.391 14.8333 222.109 14.6875C221.833 14.5365 221.417 14.4062 220.859 14.2969C220.391 14.1979 219.966 14.0807 219.586 13.9453C219.211 13.8099 218.891 13.6458 218.625 13.4531C218.365 13.2604 218.164 13.0339 218.023 12.7734C217.883 12.513 217.812 12.2083 217.812 11.8594C217.812 11.526 217.885 11.2109 218.031 10.9141C218.182 10.6172 218.393 10.3542 218.664 10.125C218.94 9.89583 219.271 9.71615 219.656 9.58594C220.042 9.45573 220.471 9.39062 220.945 9.39062C221.622 9.39062 222.201 9.51042 222.68 9.75C223.159 9.98958 223.526 10.3099 223.781 10.7109C224.036 11.1068 224.164 11.5469 224.164 12.0312H222.719C222.719 11.7969 222.648 11.5703 222.508 11.3516C222.372 11.1276 222.172 10.9427 221.906 10.7969C221.646 10.651 221.326 10.5781 220.945 10.5781C220.544 10.5781 220.219 10.6406 219.969 10.7656C219.724 10.8854 219.544 11.0391 219.43 11.2266C219.32 11.4141 219.266 11.612 219.266 11.8203C219.266 11.9766 219.292 12.1172 219.344 12.2422C219.401 12.362 219.5 12.474 219.641 12.5781C219.781 12.6771 219.979 12.7708 220.234 12.8594C220.49 12.9479 220.815 13.0365 221.211 13.125C221.904 13.2812 222.474 13.4688 222.922 13.6875C223.37 13.9062 223.703 14.1745 223.922 14.4922C224.141 14.8099 224.25 15.1953 224.25 15.6484C224.25 16.0182 224.172 16.3568 224.016 16.6641C223.865 16.9714 223.643 17.237 223.352 17.4609C223.065 17.6797 222.721 17.8516 222.32 17.9766C221.924 18.0964 221.479 18.1562 220.984 18.1562C220.24 18.1562 219.609 18.0234 219.094 17.7578C218.578 17.4922 218.188 17.1484 217.922 16.7266C217.656 16.3047 217.523 15.8594 217.523 15.3906H218.977C218.997 15.7865 219.112 16.1016 219.32 16.3359C219.529 16.5651 219.784 16.7292 220.086 16.8281C220.388 16.9219 220.688 16.9688 220.984 16.9688C221.38 16.9688 221.711 16.9167 221.977 16.8125C222.247 16.7083 222.453 16.5651 222.594 16.3828C222.734 16.2005 222.805 15.9922 222.805 15.7578Z" fill="#65665C"/>
</svg>
