<svg width="358" height="25" viewBox="0 0 358 25" fill="none" xmlns="http://www.w3.org/2000/svg">
<path d="M9.8125 12.1875C10.1458 12.5 10.5417 12.6562 11 12.6562C11.4583 12.6562 11.8438 12.5 12.1562 12.1875C12.4896 11.8542 12.6562 11.4583 12.6562 11C12.6562 10.5417 12.4896 10.1562 12.1562 9.84375C11.8438 9.51042 11.4583 9.34375 11 9.34375C10.5417 9.34375 10.1458 9.51042 9.8125 9.84375C9.5 10.1562 9.34375 10.5417 9.34375 11C9.34375 11.4583 9.5 11.8542 9.8125 12.1875ZM7.6875 7.71875C8.60417 6.80208 9.70833 6.34375 11 6.34375C12.2917 6.34375 13.3854 6.80208 14.2812 7.71875C15.1979 8.61458 15.6562 9.70833 15.6562 11C15.6562 11.6458 15.4896 12.3854 15.1562 13.2188C14.8438 14.0521 14.4583 14.8333 14 15.5625C13.5417 16.2917 13.0833 16.9792 12.625 17.625C12.1875 18.25 11.8125 18.75 11.5 19.125L11 19.6562C10.875 19.5104 10.7083 19.3229 10.5 19.0938C10.2917 18.8438 9.91667 18.3646 9.375 17.6562C8.83333 16.9271 8.35417 16.2292 7.9375 15.5625C7.54167 14.875 7.17708 14.1042 6.84375 13.25C6.51042 12.3958 6.34375 11.6458 6.34375 11C6.34375 9.70833 6.79167 8.61458 7.6875 7.71875Z" fill="#65665C"/>
<path d="M37.3984 16.8125V18H29.9531V16.9609L33.6797 12.8125C34.138 12.3021 34.4922 11.8698 34.7422 11.5156C34.9974 11.1562 35.1745 10.8359 35.2734 10.5547C35.3776 10.2682 35.4297 9.97656 35.4297 9.67969C35.4297 9.30469 35.3516 8.96615 35.1953 8.66406C35.0443 8.35677 34.8203 8.11198 34.5234 7.92969C34.2266 7.7474 33.8672 7.65625 33.4453 7.65625C32.9401 7.65625 32.5182 7.75521 32.1797 7.95312C31.8464 8.14583 31.5964 8.41667 31.4297 8.76562C31.263 9.11458 31.1797 9.51562 31.1797 9.96875H29.7344C29.7344 9.32812 29.875 8.74219 30.1562 8.21094C30.4375 7.67969 30.8542 7.25781 31.4062 6.94531C31.9583 6.6276 32.638 6.46875 33.4453 6.46875C34.1641 6.46875 34.7786 6.59635 35.2891 6.85156C35.7995 7.10156 36.1901 7.45573 36.4609 7.91406C36.737 8.36719 36.875 8.89844 36.875 9.50781C36.875 9.84115 36.8177 10.1797 36.7031 10.5234C36.5938 10.862 36.4401 11.2005 36.2422 11.5391C36.0495 11.8776 35.8229 12.2109 35.5625 12.5391C35.3073 12.8672 35.0339 13.1901 34.7422 13.5078L31.6953 16.8125H37.3984ZM40.7734 12.5859L39.6172 12.2891L40.1875 6.625H46.0234V7.96094H41.4141L41.0703 11.0547C41.2786 10.9349 41.5417 10.8229 41.8594 10.7188C42.1823 10.6146 42.5521 10.5625 42.9688 10.5625C43.4948 10.5625 43.9661 10.6536 44.3828 10.8359C44.7995 11.013 45.1536 11.2682 45.4453 11.6016C45.7422 11.9349 45.9688 12.3359 46.125 12.8047C46.2812 13.2734 46.3594 13.7969 46.3594 14.375C46.3594 14.9219 46.2839 15.4245 46.1328 15.8828C45.987 16.3411 45.7656 16.7422 45.4688 17.0859C45.1719 17.4245 44.7969 17.6875 44.3438 17.875C43.8958 18.0625 43.3672 18.1562 42.7578 18.1562C42.2995 18.1562 41.8646 18.0938 41.4531 17.9688C41.0469 17.8385 40.6823 17.6432 40.3594 17.3828C40.0417 17.1172 39.7812 16.7891 39.5781 16.3984C39.3802 16.0026 39.2552 15.5391 39.2031 15.0078H40.5781C40.6406 15.4349 40.7656 15.7943 40.9531 16.0859C41.1406 16.3776 41.3854 16.599 41.6875 16.75C41.9948 16.8958 42.3516 16.9688 42.7578 16.9688C43.1016 16.9688 43.4062 16.9089 43.6719 16.7891C43.9375 16.6693 44.1615 16.4974 44.3438 16.2734C44.526 16.0495 44.6641 15.7786 44.7578 15.4609C44.8568 15.1432 44.9062 14.7865 44.9062 14.3906C44.9062 14.0312 44.8568 13.6979 44.7578 13.3906C44.6589 13.0833 44.5104 12.8151 44.3125 12.5859C44.1198 12.3568 43.8828 12.1797 43.6016 12.0547C43.3203 11.9245 42.9974 11.8594 42.6328 11.8594C42.1484 11.8594 41.7812 11.9245 41.5312 12.0547C41.2865 12.1849 41.0339 12.362 40.7734 12.5859ZM53.4922 6.60938H53.6172V7.83594H53.4922C52.7266 7.83594 52.0859 7.96094 51.5703 8.21094C51.0547 8.45573 50.6458 8.78646 50.3438 9.20312C50.0417 9.61458 49.8229 10.0781 49.6875 10.5938C49.5573 11.1094 49.4922 11.6328 49.4922 12.1641V13.8359C49.4922 14.3411 49.5521 14.7891 49.6719 15.1797C49.7917 15.5651 49.9557 15.8906 50.1641 16.1562C50.3724 16.4219 50.6068 16.6224 50.8672 16.7578C51.1328 16.8932 51.4089 16.9609 51.6953 16.9609C52.0286 16.9609 52.3255 16.8984 52.5859 16.7734C52.8464 16.6432 53.0651 16.4635 53.2422 16.2344C53.4245 16 53.5625 15.724 53.6562 15.4062C53.75 15.0885 53.7969 14.7396 53.7969 14.3594C53.7969 14.0208 53.7552 13.6953 53.6719 13.3828C53.5885 13.0651 53.4609 12.7839 53.2891 12.5391C53.1172 12.2891 52.901 12.0938 52.6406 11.9531C52.3854 11.8073 52.0807 11.7344 51.7266 11.7344C51.3255 11.7344 50.9505 11.8333 50.6016 12.0312C50.2578 12.224 49.974 12.4792 49.75 12.7969C49.5312 13.1094 49.4062 13.4505 49.375 13.8203L48.6094 13.8125C48.6823 13.2292 48.8177 12.7318 49.0156 12.3203C49.2188 11.9036 49.4688 11.5651 49.7656 11.3047C50.0677 11.0391 50.4036 10.8464 50.7734 10.7266C51.1484 10.6016 51.5443 10.5391 51.9609 10.5391C52.5286 10.5391 53.0182 10.6458 53.4297 10.8594C53.8411 11.0729 54.1797 11.3594 54.4453 11.7188C54.7109 12.0729 54.9062 12.474 55.0312 12.9219C55.1615 13.3646 55.2266 13.8203 55.2266 14.2891C55.2266 14.8255 55.151 15.3281 55 15.7969C54.849 16.2656 54.6224 16.6771 54.3203 17.0312C54.0234 17.3854 53.6562 17.6615 53.2188 17.8594C52.7812 18.0573 52.2734 18.1562 51.6953 18.1562C51.0807 18.1562 50.5443 18.0312 50.0859 17.7812C49.6276 17.526 49.2474 17.1875 48.9453 16.7656C48.6432 16.3438 48.4167 15.875 48.2656 15.3594C48.1146 14.8438 48.0391 14.3203 48.0391 13.7891V13.1094C48.0391 12.3073 48.1198 11.5208 48.2812 10.75C48.4427 9.97917 48.7214 9.28125 49.1172 8.65625C49.5182 8.03125 50.0729 7.53385 50.7812 7.16406C51.4896 6.79427 52.3932 6.60938 53.4922 6.60938ZM58.3828 16.7891H58.5312C59.3646 16.7891 60.0417 16.6719 60.5625 16.4375C61.0833 16.2031 61.4844 15.888 61.7656 15.4922C62.0469 15.0964 62.2396 14.651 62.3438 14.1562C62.4479 13.6562 62.5 13.1432 62.5 12.6172V10.875C62.5 10.3594 62.4401 9.90104 62.3203 9.5C62.2057 9.09896 62.0443 8.76302 61.8359 8.49219C61.6328 8.22135 61.401 8.01562 61.1406 7.875C60.8802 7.73438 60.6042 7.66406 60.3125 7.66406C59.9792 7.66406 59.6797 7.73177 59.4141 7.86719C59.1536 7.9974 58.9323 8.18229 58.75 8.42188C58.5729 8.66146 58.4375 8.94271 58.3438 9.26562C58.25 9.58854 58.2031 9.9401 58.2031 10.3203C58.2031 10.6589 58.2448 10.987 58.3281 11.3047C58.4115 11.6224 58.5391 11.9089 58.7109 12.1641C58.8828 12.4193 59.0964 12.6224 59.3516 12.7734C59.612 12.9193 59.9167 12.9922 60.2656 12.9922C60.5885 12.9922 60.8906 12.9297 61.1719 12.8047C61.4583 12.6745 61.7109 12.5 61.9297 12.2812C62.1536 12.0573 62.3307 11.8047 62.4609 11.5234C62.5964 11.2422 62.6745 10.9479 62.6953 10.6406H63.3828C63.3828 11.0729 63.2969 11.5 63.125 11.9219C62.9583 12.3385 62.724 12.7188 62.4219 13.0625C62.1198 13.4062 61.7656 13.6823 61.3594 13.8906C60.9531 14.0938 60.5104 14.1953 60.0312 14.1953C59.4688 14.1953 58.9818 14.0859 58.5703 13.8672C58.1589 13.6484 57.8203 13.3568 57.5547 12.9922C57.2943 12.6276 57.099 12.2214 56.9688 11.7734C56.8438 11.3203 56.7812 10.862 56.7812 10.3984C56.7812 9.85677 56.8568 9.34896 57.0078 8.875C57.1589 8.40104 57.3828 7.98438 57.6797 7.625C57.9766 7.26042 58.3438 6.97656 58.7812 6.77344C59.224 6.57031 59.7344 6.46875 60.3125 6.46875C60.9635 6.46875 61.5182 6.59896 61.9766 6.85938C62.4349 7.11979 62.8073 7.46875 63.0938 7.90625C63.3854 8.34375 63.599 8.83594 63.7344 9.38281C63.8698 9.92969 63.9375 10.4922 63.9375 11.0703V11.5938C63.9375 12.1823 63.8984 12.7812 63.8203 13.3906C63.7474 13.9948 63.6042 14.5729 63.3906 15.125C63.1823 15.6771 62.8776 16.1719 62.4766 16.6094C62.0755 17.0417 61.5521 17.3854 60.9062 17.6406C60.2656 17.8906 59.474 18.0156 58.5312 18.0156H58.3828V16.7891ZM77.5156 16.7734V18H71.4922V16.7734H77.5156ZM71.7969 6.625V18H70.2891V6.625H71.7969ZM76.7188 11.5156V12.7422H71.4922V11.5156H76.7188ZM77.4375 6.625V7.85938H71.4922V6.625H77.4375ZM80.7344 6V18H79.2812V6H80.7344ZM93.3047 15.125C93.3047 14.8594 93.263 14.625 93.1797 14.4219C93.1016 14.2135 92.9609 14.026 92.7578 13.8594C92.5599 13.6927 92.2839 13.5339 91.9297 13.3828C91.5807 13.2318 91.138 13.0781 90.6016 12.9219C90.0391 12.7552 89.5312 12.5703 89.0781 12.3672C88.625 12.1589 88.237 11.9219 87.9141 11.6562C87.5911 11.3906 87.3438 11.0859 87.1719 10.7422C87 10.3984 86.9141 10.0052 86.9141 9.5625C86.9141 9.11979 87.0052 8.71094 87.1875 8.33594C87.3698 7.96094 87.6302 7.63542 87.9688 7.35938C88.3125 7.07812 88.7214 6.85938 89.1953 6.70312C89.6693 6.54688 90.1979 6.46875 90.7812 6.46875C91.6354 6.46875 92.3594 6.63281 92.9531 6.96094C93.5521 7.28385 94.0078 7.70833 94.3203 8.23438C94.6328 8.75521 94.7891 9.3125 94.7891 9.90625H93.2891C93.2891 9.47917 93.1979 9.10156 93.0156 8.77344C92.8333 8.4401 92.5573 8.17969 92.1875 7.99219C91.8177 7.79948 91.349 7.70312 90.7812 7.70312C90.2448 7.70312 89.8021 7.78385 89.4531 7.94531C89.1042 8.10677 88.8438 8.32552 88.6719 8.60156C88.5052 8.8776 88.4219 9.19271 88.4219 9.54688C88.4219 9.78646 88.4714 10.0052 88.5703 10.2031C88.6745 10.3958 88.8333 10.5755 89.0469 10.7422C89.2656 10.9089 89.5417 11.0625 89.875 11.2031C90.2135 11.3438 90.6172 11.4792 91.0859 11.6094C91.7318 11.7917 92.2891 11.9948 92.7578 12.2188C93.2266 12.4427 93.612 12.6953 93.9141 12.9766C94.2214 13.2526 94.4479 13.5677 94.5938 13.9219C94.7448 14.2708 94.8203 14.6667 94.8203 15.1094C94.8203 15.5729 94.7266 15.9922 94.5391 16.3672C94.3516 16.7422 94.0833 17.0625 93.7344 17.3281C93.3854 17.5938 92.9661 17.7995 92.4766 17.9453C91.9922 18.0859 91.4505 18.1562 90.8516 18.1562C90.3255 18.1562 89.8073 18.0833 89.2969 17.9375C88.7917 17.7917 88.3307 17.5729 87.9141 17.2812C87.5026 16.9896 87.1719 16.6302 86.9219 16.2031C86.6771 15.7708 86.5547 15.2708 86.5547 14.7031H88.0547C88.0547 15.0938 88.1302 15.4297 88.2812 15.7109C88.4323 15.987 88.638 16.2161 88.8984 16.3984C89.1641 16.5807 89.4635 16.7161 89.7969 16.8047C90.1354 16.888 90.487 16.9297 90.8516 16.9297C91.3776 16.9297 91.8229 16.8568 92.1875 16.7109C92.5521 16.5651 92.8281 16.3568 93.0156 16.0859C93.2083 15.8151 93.3047 15.4948 93.3047 15.125ZM100.031 18.1562C99.4427 18.1562 98.9089 18.0573 98.4297 17.8594C97.9557 17.6562 97.5469 17.3724 97.2031 17.0078C96.8646 16.6432 96.6042 16.2109 96.4219 15.7109C96.2396 15.2109 96.1484 14.6641 96.1484 14.0703V13.7422C96.1484 13.0547 96.25 12.4427 96.4531 11.9062C96.6562 11.3646 96.9323 10.9062 97.2812 10.5312C97.6302 10.1562 98.026 9.8724 98.4688 9.67969C98.9115 9.48698 99.3698 9.39062 99.8438 9.39062C100.448 9.39062 100.969 9.49479 101.406 9.70312C101.849 9.91146 102.211 10.2031 102.492 10.5781C102.773 10.9479 102.982 11.3854 103.117 11.8906C103.253 12.3906 103.32 12.9375 103.32 13.5312V14.1797H97.0078V13H101.875V12.8906C101.854 12.5156 101.776 12.151 101.641 11.7969C101.51 11.4427 101.302 11.151 101.016 10.9219C100.729 10.6927 100.339 10.5781 99.8438 10.5781C99.5156 10.5781 99.2135 10.6484 98.9375 10.7891C98.6615 10.9245 98.4245 11.1276 98.2266 11.3984C98.0286 11.6693 97.875 12 97.7656 12.3906C97.6562 12.7812 97.6016 13.2318 97.6016 13.7422V14.0703C97.6016 14.4714 97.6562 14.849 97.7656 15.2031C97.8802 15.5521 98.0443 15.8594 98.2578 16.125C98.4766 16.3906 98.7396 16.599 99.0469 16.75C99.3594 16.901 99.7135 16.9766 100.109 16.9766C100.62 16.9766 101.052 16.8724 101.406 16.6641C101.76 16.4557 102.07 16.1771 102.336 15.8281L103.211 16.5234C103.029 16.7995 102.797 17.0625 102.516 17.3125C102.234 17.5625 101.888 17.7656 101.477 17.9219C101.07 18.0781 100.589 18.1562 100.031 18.1562ZM110.484 9.54688H111.797V17.8203C111.797 18.5651 111.646 19.2005 111.344 19.7266C111.042 20.2526 110.62 20.651 110.078 20.9219C109.542 21.1979 108.922 21.3359 108.219 21.3359C107.927 21.3359 107.583 21.2891 107.188 21.1953C106.797 21.1068 106.411 20.9531 106.031 20.7344C105.656 20.5208 105.341 20.2318 105.086 19.8672L105.844 19.0078C106.198 19.4349 106.568 19.7318 106.953 19.8984C107.344 20.0651 107.729 20.1484 108.109 20.1484C108.568 20.1484 108.964 20.0625 109.297 19.8906C109.63 19.7188 109.888 19.4635 110.07 19.125C110.258 18.7917 110.352 18.3802 110.352 17.8906V11.4062L110.484 9.54688ZM104.664 13.8672V13.7031C104.664 13.0573 104.74 12.4714 104.891 11.9453C105.047 11.4141 105.268 10.9583 105.555 10.5781C105.846 10.1979 106.198 9.90625 106.609 9.70312C107.021 9.49479 107.484 9.39062 108 9.39062C108.531 9.39062 108.995 9.48438 109.391 9.67188C109.792 9.85417 110.13 10.1224 110.406 10.4766C110.688 10.8255 110.909 11.2474 111.07 11.7422C111.232 12.237 111.344 12.7969 111.406 13.4219V14.1406C111.349 14.7604 111.237 15.3177 111.07 15.8125C110.909 16.3073 110.688 16.7292 110.406 17.0781C110.13 17.4271 109.792 17.6953 109.391 17.8828C108.99 18.0651 108.521 18.1562 107.984 18.1562C107.479 18.1562 107.021 18.0495 106.609 17.8359C106.203 17.6224 105.854 17.3229 105.562 16.9375C105.271 16.5521 105.047 16.099 104.891 15.5781C104.74 15.0521 104.664 14.4818 104.664 13.8672ZM106.109 13.7031V13.8672C106.109 14.2891 106.151 14.6849 106.234 15.0547C106.323 15.4245 106.456 15.75 106.633 16.0312C106.815 16.3125 107.047 16.5339 107.328 16.6953C107.609 16.8516 107.945 16.9297 108.336 16.9297C108.815 16.9297 109.211 16.8281 109.523 16.625C109.836 16.4219 110.083 16.1536 110.266 15.8203C110.453 15.487 110.599 15.125 110.703 14.7344V12.8516C110.646 12.5651 110.557 12.2891 110.438 12.0234C110.323 11.7526 110.172 11.513 109.984 11.3047C109.802 11.0911 109.576 10.9219 109.305 10.7969C109.034 10.6719 108.716 10.6094 108.352 10.6094C107.956 10.6094 107.615 10.6927 107.328 10.8594C107.047 11.0208 106.815 11.2448 106.633 11.5312C106.456 11.8125 106.323 12.1406 106.234 12.5156C106.151 12.8854 106.109 13.2812 106.109 13.7031ZM119.164 16.0469V9.54688H120.617V18H119.234L119.164 16.0469ZM119.438 14.2656L120.039 14.25C120.039 14.8125 119.979 15.3333 119.859 15.8125C119.745 16.2865 119.557 16.6979 119.297 17.0469C119.036 17.3958 118.695 17.6693 118.273 17.8672C117.852 18.0599 117.339 18.1562 116.734 18.1562C116.323 18.1562 115.945 18.0964 115.602 17.9766C115.263 17.8568 114.971 17.6719 114.727 17.4219C114.482 17.1719 114.292 16.8464 114.156 16.4453C114.026 16.0443 113.961 15.5625 113.961 15V9.54688H115.406V15.0156C115.406 15.3958 115.448 15.7109 115.531 15.9609C115.62 16.2057 115.737 16.401 115.883 16.5469C116.034 16.6875 116.201 16.7865 116.383 16.8438C116.57 16.901 116.763 16.9297 116.961 16.9297C117.576 16.9297 118.062 16.8125 118.422 16.5781C118.781 16.3385 119.039 16.0182 119.195 15.6172C119.357 15.2109 119.438 14.7604 119.438 14.2656ZM124.266 11.3516V18H122.82V9.54688H124.188L124.266 11.3516ZM123.922 13.4531L123.32 13.4297C123.326 12.8516 123.411 12.3177 123.578 11.8281C123.745 11.3333 123.979 10.9036 124.281 10.5391C124.583 10.1745 124.943 9.89323 125.359 9.69531C125.781 9.49219 126.247 9.39062 126.758 9.39062C127.174 9.39062 127.549 9.44792 127.883 9.5625C128.216 9.67188 128.5 9.84896 128.734 10.0938C128.974 10.3385 129.156 10.6562 129.281 11.0469C129.406 11.4323 129.469 11.9036 129.469 12.4609V18H128.016V12.4453C128.016 12.0026 127.951 11.6484 127.82 11.3828C127.69 11.112 127.5 10.9167 127.25 10.7969C127 10.6719 126.693 10.6094 126.328 10.6094C125.969 10.6094 125.641 10.6849 125.344 10.8359C125.052 10.987 124.799 11.1953 124.586 11.4609C124.378 11.7266 124.214 12.0312 124.094 12.375C123.979 12.7135 123.922 13.0729 123.922 13.4531ZM136.992 16.3594V6H138.445V18H137.117L136.992 16.3594ZM131.305 13.8672V13.7031C131.305 13.0573 131.383 12.4714 131.539 11.9453C131.701 11.4141 131.927 10.9583 132.219 10.5781C132.516 10.1979 132.867 9.90625 133.273 9.70312C133.685 9.49479 134.143 9.39062 134.648 9.39062C135.18 9.39062 135.643 9.48438 136.039 9.67188C136.44 9.85417 136.779 10.1224 137.055 10.4766C137.336 10.8255 137.557 11.2474 137.719 11.7422C137.88 12.237 137.992 12.7969 138.055 13.4219V14.1406C137.997 14.7604 137.885 15.3177 137.719 15.8125C137.557 16.3073 137.336 16.7292 137.055 17.0781C136.779 17.4271 136.44 17.6953 136.039 17.8828C135.638 18.0651 135.169 18.1562 134.633 18.1562C134.138 18.1562 133.685 18.0495 133.273 17.8359C132.867 17.6224 132.516 17.3229 132.219 16.9375C131.927 16.5521 131.701 16.099 131.539 15.5781C131.383 15.0521 131.305 14.4818 131.305 13.8672ZM132.758 13.7031V13.8672C132.758 14.2891 132.799 14.6849 132.883 15.0547C132.971 15.4245 133.107 15.75 133.289 16.0312C133.471 16.3125 133.703 16.5339 133.984 16.6953C134.266 16.8516 134.602 16.9297 134.992 16.9297C135.471 16.9297 135.865 16.8281 136.172 16.625C136.484 16.4219 136.734 16.1536 136.922 15.8203C137.109 15.487 137.255 15.125 137.359 14.7344V12.8516C137.297 12.5651 137.206 12.2891 137.086 12.0234C136.971 11.7526 136.82 11.513 136.633 11.3047C136.451 11.0911 136.224 10.9219 135.953 10.7969C135.688 10.6719 135.372 10.6094 135.008 10.6094C134.612 10.6094 134.271 10.6927 133.984 10.8594C133.703 11.0208 133.471 11.2448 133.289 11.5312C133.107 11.8125 132.971 12.1406 132.883 12.5156C132.799 12.8854 132.758 13.2812 132.758 13.7031ZM140.312 13.8672V13.6875C140.312 13.0781 140.401 12.513 140.578 11.9922C140.755 11.4661 141.01 11.0104 141.344 10.625C141.677 10.2344 142.081 9.93229 142.555 9.71875C143.029 9.5 143.56 9.39062 144.148 9.39062C144.742 9.39062 145.276 9.5 145.75 9.71875C146.229 9.93229 146.635 10.2344 146.969 10.625C147.307 11.0104 147.565 11.4661 147.742 11.9922C147.919 12.513 148.008 13.0781 148.008 13.6875V13.8672C148.008 14.4766 147.919 15.0417 147.742 15.5625C147.565 16.0833 147.307 16.5391 146.969 16.9297C146.635 17.3151 146.232 17.6172 145.758 17.8359C145.289 18.0495 144.758 18.1562 144.164 18.1562C143.57 18.1562 143.036 18.0495 142.562 17.8359C142.089 17.6172 141.682 17.3151 141.344 16.9297C141.01 16.5391 140.755 16.0833 140.578 15.5625C140.401 15.0417 140.312 14.4766 140.312 13.8672ZM141.758 13.6875V13.8672C141.758 14.2891 141.807 14.6875 141.906 15.0625C142.005 15.4323 142.154 15.7604 142.352 16.0469C142.555 16.3333 142.807 16.5599 143.109 16.7266C143.411 16.888 143.763 16.9688 144.164 16.9688C144.56 16.9688 144.906 16.888 145.203 16.7266C145.505 16.5599 145.755 16.3333 145.953 16.0469C146.151 15.7604 146.299 15.4323 146.398 15.0625C146.503 14.6875 146.555 14.2891 146.555 13.8672V13.6875C146.555 13.2708 146.503 12.8776 146.398 12.5078C146.299 12.1328 146.148 11.8021 145.945 11.5156C145.747 11.224 145.497 10.9948 145.195 10.8281C144.898 10.6615 144.549 10.5781 144.148 10.5781C143.753 10.5781 143.404 10.6615 143.102 10.8281C142.805 10.9948 142.555 11.224 142.352 11.5156C142.154 11.8021 142.005 12.1328 141.906 12.5078C141.807 12.8776 141.758 13.2708 141.758 13.6875ZM151.133 16.2812V17.4453C151.133 17.9193 151.013 18.4193 150.773 18.9453C150.534 19.4766 150.198 19.9193 149.766 20.2734L148.945 19.7031C149.112 19.474 149.253 19.2396 149.367 19C149.482 18.7656 149.568 18.5208 149.625 18.2656C149.688 18.0156 149.719 17.75 149.719 17.4688V16.2812H151.133ZM163.227 15.125C163.227 14.8594 163.185 14.625 163.102 14.4219C163.023 14.2135 162.883 14.026 162.68 13.8594C162.482 13.6927 162.206 13.5339 161.852 13.3828C161.503 13.2318 161.06 13.0781 160.523 12.9219C159.961 12.7552 159.453 12.5703 159 12.3672C158.547 12.1589 158.159 11.9219 157.836 11.6562C157.513 11.3906 157.266 11.0859 157.094 10.7422C156.922 10.3984 156.836 10.0052 156.836 9.5625C156.836 9.11979 156.927 8.71094 157.109 8.33594C157.292 7.96094 157.552 7.63542 157.891 7.35938C158.234 7.07812 158.643 6.85938 159.117 6.70312C159.591 6.54688 160.12 6.46875 160.703 6.46875C161.557 6.46875 162.281 6.63281 162.875 6.96094C163.474 7.28385 163.93 7.70833 164.242 8.23438C164.555 8.75521 164.711 9.3125 164.711 9.90625H163.211C163.211 9.47917 163.12 9.10156 162.938 8.77344C162.755 8.4401 162.479 8.17969 162.109 7.99219C161.74 7.79948 161.271 7.70312 160.703 7.70312C160.167 7.70312 159.724 7.78385 159.375 7.94531C159.026 8.10677 158.766 8.32552 158.594 8.60156C158.427 8.8776 158.344 9.19271 158.344 9.54688C158.344 9.78646 158.393 10.0052 158.492 10.2031C158.596 10.3958 158.755 10.5755 158.969 10.7422C159.188 10.9089 159.464 11.0625 159.797 11.2031C160.135 11.3438 160.539 11.4792 161.008 11.6094C161.654 11.7917 162.211 11.9948 162.68 12.2188C163.148 12.4427 163.534 12.6953 163.836 12.9766C164.143 13.2526 164.37 13.5677 164.516 13.9219C164.667 14.2708 164.742 14.6667 164.742 15.1094C164.742 15.5729 164.648 15.9922 164.461 16.3672C164.273 16.7422 164.005 17.0625 163.656 17.3281C163.307 17.5938 162.888 17.7995 162.398 17.9453C161.914 18.0859 161.372 18.1562 160.773 18.1562C160.247 18.1562 159.729 18.0833 159.219 17.9375C158.714 17.7917 158.253 17.5729 157.836 17.2812C157.424 16.9896 157.094 16.6302 156.844 16.2031C156.599 15.7708 156.477 15.2708 156.477 14.7031H157.977C157.977 15.0938 158.052 15.4297 158.203 15.7109C158.354 15.987 158.56 16.2161 158.82 16.3984C159.086 16.5807 159.385 16.7161 159.719 16.8047C160.057 16.888 160.409 16.9297 160.773 16.9297C161.299 16.9297 161.745 16.8568 162.109 16.7109C162.474 16.5651 162.75 16.3568 162.938 16.0859C163.13 15.8151 163.227 15.4948 163.227 15.125ZM171.43 16.5547V12.2031C171.43 11.8698 171.362 11.5807 171.227 11.3359C171.096 11.0859 170.898 10.8932 170.633 10.7578C170.367 10.6224 170.039 10.5547 169.648 10.5547C169.284 10.5547 168.964 10.6172 168.688 10.7422C168.417 10.8672 168.203 11.0312 168.047 11.2344C167.896 11.4375 167.82 11.6562 167.82 11.8906H166.375C166.375 11.5885 166.453 11.2891 166.609 10.9922C166.766 10.6953 166.99 10.4271 167.281 10.1875C167.578 9.94271 167.932 9.75 168.344 9.60938C168.76 9.46354 169.224 9.39062 169.734 9.39062C170.349 9.39062 170.891 9.49479 171.359 9.70312C171.833 9.91146 172.203 10.2266 172.469 10.6484C172.74 11.0651 172.875 11.5885 172.875 12.2188V16.1562C172.875 16.4375 172.898 16.737 172.945 17.0547C172.997 17.3724 173.073 17.6458 173.172 17.875V18H171.664C171.591 17.8333 171.534 17.612 171.492 17.3359C171.451 17.0547 171.43 16.7943 171.43 16.5547ZM171.68 12.875L171.695 13.8906H170.234C169.823 13.8906 169.456 13.9245 169.133 13.9922C168.81 14.0547 168.539 14.151 168.32 14.2812C168.102 14.4115 167.935 14.5755 167.82 14.7734C167.706 14.9661 167.648 15.1927 167.648 15.4531C167.648 15.7188 167.708 15.9609 167.828 16.1797C167.948 16.3984 168.128 16.5729 168.367 16.7031C168.612 16.8281 168.911 16.8906 169.266 16.8906C169.708 16.8906 170.099 16.7969 170.438 16.6094C170.776 16.4219 171.044 16.1927 171.242 15.9219C171.445 15.651 171.555 15.388 171.57 15.1328L172.188 15.8281C172.151 16.0469 172.052 16.2891 171.891 16.5547C171.729 16.8203 171.513 17.0755 171.242 17.3203C170.977 17.5599 170.659 17.7604 170.289 17.9219C169.924 18.0781 169.513 18.1562 169.055 18.1562C168.482 18.1562 167.979 18.0443 167.547 17.8203C167.12 17.5964 166.786 17.2969 166.547 16.9219C166.312 16.5417 166.195 16.1172 166.195 15.6484C166.195 15.1953 166.284 14.7969 166.461 14.4531C166.638 14.1042 166.893 13.8151 167.227 13.5859C167.56 13.3516 167.961 13.1745 168.43 13.0547C168.898 12.9349 169.422 12.875 170 12.875H171.68ZM176.594 11.3516V18H175.148V9.54688H176.516L176.594 11.3516ZM176.25 13.4531L175.648 13.4297C175.654 12.8516 175.74 12.3177 175.906 11.8281C176.073 11.3333 176.307 10.9036 176.609 10.5391C176.911 10.1745 177.271 9.89323 177.688 9.69531C178.109 9.49219 178.576 9.39062 179.086 9.39062C179.503 9.39062 179.878 9.44792 180.211 9.5625C180.544 9.67188 180.828 9.84896 181.062 10.0938C181.302 10.3385 181.484 10.6562 181.609 11.0469C181.734 11.4323 181.797 11.9036 181.797 12.4609V18H180.344V12.4453C180.344 12.0026 180.279 11.6484 180.148 11.3828C180.018 11.112 179.828 10.9167 179.578 10.7969C179.328 10.6719 179.021 10.6094 178.656 10.6094C178.297 10.6094 177.969 10.6849 177.672 10.8359C177.38 10.987 177.128 11.1953 176.914 11.4609C176.706 11.7266 176.542 12.0312 176.422 12.375C176.307 12.7135 176.25 13.0729 176.25 13.4531ZM191.258 18H188.883L188.898 16.7734H191.258C192.07 16.7734 192.747 16.6042 193.289 16.2656C193.831 15.9219 194.237 15.4427 194.508 14.8281C194.784 14.2083 194.922 13.4844 194.922 12.6562V11.9609C194.922 11.3099 194.844 10.7318 194.688 10.2266C194.531 9.71615 194.302 9.28646 194 8.9375C193.698 8.58333 193.328 8.3151 192.891 8.13281C192.458 7.95052 191.961 7.85938 191.398 7.85938H188.836V6.625H191.398C192.143 6.625 192.823 6.75 193.438 7C194.052 7.24479 194.581 7.60156 195.023 8.07031C195.471 8.53385 195.815 9.09635 196.055 9.75781C196.294 10.4141 196.414 11.1536 196.414 11.9766V12.6562C196.414 13.4792 196.294 14.2214 196.055 14.8828C195.815 15.5391 195.469 16.099 195.016 16.5625C194.568 17.026 194.026 17.3828 193.391 17.6328C192.76 17.8776 192.049 18 191.258 18ZM189.688 6.625V18H188.18V6.625H189.688ZM200.031 9.54688V18H198.578V9.54688H200.031ZM198.469 7.30469C198.469 7.07031 198.539 6.8724 198.68 6.71094C198.826 6.54948 199.039 6.46875 199.32 6.46875C199.596 6.46875 199.807 6.54948 199.953 6.71094C200.104 6.8724 200.18 7.07031 200.18 7.30469C200.18 7.52865 200.104 7.72135 199.953 7.88281C199.807 8.03906 199.596 8.11719 199.32 8.11719C199.039 8.11719 198.826 8.03906 198.68 7.88281C198.539 7.72135 198.469 7.52865 198.469 7.30469ZM205.859 18.1562C205.271 18.1562 204.737 18.0573 204.258 17.8594C203.784 17.6562 203.375 17.3724 203.031 17.0078C202.693 16.6432 202.432 16.2109 202.25 15.7109C202.068 15.2109 201.977 14.6641 201.977 14.0703V13.7422C201.977 13.0547 202.078 12.4427 202.281 11.9062C202.484 11.3646 202.76 10.9062 203.109 10.5312C203.458 10.1562 203.854 9.8724 204.297 9.67969C204.74 9.48698 205.198 9.39062 205.672 9.39062C206.276 9.39062 206.797 9.49479 207.234 9.70312C207.677 9.91146 208.039 10.2031 208.32 10.5781C208.602 10.9479 208.81 11.3854 208.945 11.8906C209.081 12.3906 209.148 12.9375 209.148 13.5312V14.1797H202.836V13H207.703V12.8906C207.682 12.5156 207.604 12.151 207.469 11.7969C207.339 11.4427 207.13 11.151 206.844 10.9219C206.557 10.6927 206.167 10.5781 205.672 10.5781C205.344 10.5781 205.042 10.6484 204.766 10.7891C204.49 10.9245 204.253 11.1276 204.055 11.3984C203.857 11.6693 203.703 12 203.594 12.3906C203.484 12.7812 203.43 13.2318 203.43 13.7422V14.0703C203.43 14.4714 203.484 14.849 203.594 15.2031C203.708 15.5521 203.872 15.8594 204.086 16.125C204.305 16.3906 204.568 16.599 204.875 16.75C205.188 16.901 205.542 16.9766 205.938 16.9766C206.448 16.9766 206.88 16.8724 207.234 16.6641C207.589 16.4557 207.898 16.1771 208.164 15.8281L209.039 16.5234C208.857 16.7995 208.625 17.0625 208.344 17.3125C208.062 17.5625 207.716 17.7656 207.305 17.9219C206.898 18.0781 206.417 18.1562 205.859 18.1562ZM216.312 9.54688H217.625V17.8203C217.625 18.5651 217.474 19.2005 217.172 19.7266C216.87 20.2526 216.448 20.651 215.906 20.9219C215.37 21.1979 214.75 21.3359 214.047 21.3359C213.755 21.3359 213.411 21.2891 213.016 21.1953C212.625 21.1068 212.24 20.9531 211.859 20.7344C211.484 20.5208 211.169 20.2318 210.914 19.8672L211.672 19.0078C212.026 19.4349 212.396 19.7318 212.781 19.8984C213.172 20.0651 213.557 20.1484 213.938 20.1484C214.396 20.1484 214.792 20.0625 215.125 19.8906C215.458 19.7188 215.716 19.4635 215.898 19.125C216.086 18.7917 216.18 18.3802 216.18 17.8906V11.4062L216.312 9.54688ZM210.492 13.8672V13.7031C210.492 13.0573 210.568 12.4714 210.719 11.9453C210.875 11.4141 211.096 10.9583 211.383 10.5781C211.674 10.1979 212.026 9.90625 212.438 9.70312C212.849 9.49479 213.312 9.39062 213.828 9.39062C214.359 9.39062 214.823 9.48438 215.219 9.67188C215.62 9.85417 215.958 10.1224 216.234 10.4766C216.516 10.8255 216.737 11.2474 216.898 11.7422C217.06 12.237 217.172 12.7969 217.234 13.4219V14.1406C217.177 14.7604 217.065 15.3177 216.898 15.8125C216.737 16.3073 216.516 16.7292 216.234 17.0781C215.958 17.4271 215.62 17.6953 215.219 17.8828C214.818 18.0651 214.349 18.1562 213.812 18.1562C213.307 18.1562 212.849 18.0495 212.438 17.8359C212.031 17.6224 211.682 17.3229 211.391 16.9375C211.099 16.5521 210.875 16.099 210.719 15.5781C210.568 15.0521 210.492 14.4818 210.492 13.8672ZM211.938 13.7031V13.8672C211.938 14.2891 211.979 14.6849 212.062 15.0547C212.151 15.4245 212.284 15.75 212.461 16.0312C212.643 16.3125 212.875 16.5339 213.156 16.6953C213.438 16.8516 213.773 16.9297 214.164 16.9297C214.643 16.9297 215.039 16.8281 215.352 16.625C215.664 16.4219 215.911 16.1536 216.094 15.8203C216.281 15.487 216.427 15.125 216.531 14.7344V12.8516C216.474 12.5651 216.385 12.2891 216.266 12.0234C216.151 11.7526 216 11.513 215.812 11.3047C215.63 11.0911 215.404 10.9219 215.133 10.7969C214.862 10.6719 214.544 10.6094 214.18 10.6094C213.784 10.6094 213.443 10.6927 213.156 10.8594C212.875 11.0208 212.643 11.2448 212.461 11.5312C212.284 11.8125 212.151 12.1406 212.062 12.5156C211.979 12.8854 211.938 13.2812 211.938 13.7031ZM219.438 13.8672V13.6875C219.438 13.0781 219.526 12.513 219.703 11.9922C219.88 11.4661 220.135 11.0104 220.469 10.625C220.802 10.2344 221.206 9.93229 221.68 9.71875C222.154 9.5 222.685 9.39062 223.273 9.39062C223.867 9.39062 224.401 9.5 224.875 9.71875C225.354 9.93229 225.76 10.2344 226.094 10.625C226.432 11.0104 226.69 11.4661 226.867 11.9922C227.044 12.513 227.133 13.0781 227.133 13.6875V13.8672C227.133 14.4766 227.044 15.0417 226.867 15.5625C226.69 16.0833 226.432 16.5391 226.094 16.9297C225.76 17.3151 225.357 17.6172 224.883 17.8359C224.414 18.0495 223.883 18.1562 223.289 18.1562C222.695 18.1562 222.161 18.0495 221.688 17.8359C221.214 17.6172 220.807 17.3151 220.469 16.9297C220.135 16.5391 219.88 16.0833 219.703 15.5625C219.526 15.0417 219.438 14.4766 219.438 13.8672ZM220.883 13.6875V13.8672C220.883 14.2891 220.932 14.6875 221.031 15.0625C221.13 15.4323 221.279 15.7604 221.477 16.0469C221.68 16.3333 221.932 16.5599 222.234 16.7266C222.536 16.888 222.888 16.9688 223.289 16.9688C223.685 16.9688 224.031 16.888 224.328 16.7266C224.63 16.5599 224.88 16.3333 225.078 16.0469C225.276 15.7604 225.424 15.4323 225.523 15.0625C225.628 14.6875 225.68 14.2891 225.68 13.8672V13.6875C225.68 13.2708 225.628 12.8776 225.523 12.5078C225.424 12.1328 225.273 11.8021 225.07 11.5156C224.872 11.224 224.622 10.9948 224.32 10.8281C224.023 10.6615 223.674 10.5781 223.273 10.5781C222.878 10.5781 222.529 10.6615 222.227 10.8281C221.93 10.9948 221.68 11.224 221.477 11.5156C221.279 11.8021 221.13 12.1328 221.031 12.5078C220.932 12.8776 220.883 13.2708 220.883 13.6875Z" fill="#65665C"/>
</svg>
