<svg width="358" height="25" viewBox="0 0 358 25" fill="none" xmlns="http://www.w3.org/2000/svg">
<path d="M37.6328 13.1719V14.3594H29.4141V13.5078L34.5078 5.625H35.6875L34.4219 7.90625L31.0547 13.1719H37.6328ZM36.0469 5.625V17H34.6016V5.625H36.0469ZM46.6328 13.1719V14.3594H38.4141V13.5078L43.5078 5.625H44.6875L43.4219 7.90625L40.0547 13.1719H46.6328ZM45.0469 5.625V17H43.6016V5.625H45.0469ZM55.1172 13.9219C55.1172 14.6146 54.9557 15.2031 54.6328 15.6875C54.3151 16.1667 53.8828 16.5312 53.3359 16.7812C52.7943 17.0312 52.1823 17.1562 51.5 17.1562C50.8177 17.1562 50.2031 17.0312 49.6562 16.7812C49.1094 16.5312 48.6771 16.1667 48.3594 15.6875C48.0417 15.2031 47.8828 14.6146 47.8828 13.9219C47.8828 13.4688 47.9688 13.0547 48.1406 12.6797C48.3177 12.2995 48.5651 11.9688 48.8828 11.6875C49.2057 11.4062 49.5859 11.1901 50.0234 11.0391C50.4661 10.8828 50.9531 10.8047 51.4844 10.8047C52.1823 10.8047 52.8047 10.9401 53.3516 11.2109C53.8984 11.4766 54.3281 11.8438 54.6406 12.3125C54.9583 12.7812 55.1172 13.3177 55.1172 13.9219ZM53.6641 13.8906C53.6641 13.4688 53.5729 13.0964 53.3906 12.7734C53.2083 12.4453 52.9531 12.1901 52.625 12.0078C52.2969 11.8255 51.9167 11.7344 51.4844 11.7344C51.0417 11.7344 50.6589 11.8255 50.3359 12.0078C50.0182 12.1901 49.7708 12.4453 49.5938 12.7734C49.4167 13.0964 49.3281 13.4688 49.3281 13.8906C49.3281 14.3281 49.4141 14.7031 49.5859 15.0156C49.763 15.3229 50.013 15.5599 50.3359 15.7266C50.6641 15.888 51.0521 15.9688 51.5 15.9688C51.9479 15.9688 52.3333 15.888 52.6562 15.7266C52.9792 15.5599 53.2266 15.3229 53.3984 15.0156C53.5755 14.7031 53.6641 14.3281 53.6641 13.8906ZM54.8516 8.58594C54.8516 9.13802 54.7057 9.63542 54.4141 10.0781C54.1224 10.5208 53.724 10.8698 53.2188 11.125C52.7135 11.3802 52.1406 11.5078 51.5 11.5078C50.849 11.5078 50.2682 11.3802 49.7578 11.125C49.2526 10.8698 48.8568 10.5208 48.5703 10.0781C48.2839 9.63542 48.1406 9.13802 48.1406 8.58594C48.1406 7.92448 48.2839 7.36198 48.5703 6.89844C48.862 6.4349 49.2604 6.08073 49.7656 5.83594C50.2708 5.59115 50.8464 5.46875 51.4922 5.46875C52.1432 5.46875 52.7214 5.59115 53.2266 5.83594C53.7318 6.08073 54.1276 6.4349 54.4141 6.89844C54.7057 7.36198 54.8516 7.92448 54.8516 8.58594ZM53.4062 8.60938C53.4062 8.22917 53.3255 7.89323 53.1641 7.60156C53.0026 7.3099 52.7786 7.08073 52.4922 6.91406C52.2057 6.74219 51.8724 6.65625 51.4922 6.65625C51.112 6.65625 50.7786 6.73698 50.4922 6.89844C50.2109 7.05469 49.9896 7.27865 49.8281 7.57031C49.6719 7.86198 49.5938 8.20833 49.5938 8.60938C49.5938 9 49.6719 9.34115 49.8281 9.63281C49.9896 9.92448 50.2135 10.151 50.5 10.3125C50.7865 10.474 51.1198 10.5547 51.5 10.5547C51.8802 10.5547 52.2109 10.474 52.4922 10.3125C52.7786 10.151 53.0026 9.92448 53.1641 9.63281C53.3255 9.34115 53.4062 9 53.4062 8.60938ZM58.3828 15.7891H58.5312C59.3646 15.7891 60.0417 15.6719 60.5625 15.4375C61.0833 15.2031 61.4844 14.888 61.7656 14.4922C62.0469 14.0964 62.2396 13.651 62.3438 13.1562C62.4479 12.6562 62.5 12.1432 62.5 11.6172V9.875C62.5 9.35938 62.4401 8.90104 62.3203 8.5C62.2057 8.09896 62.0443 7.76302 61.8359 7.49219C61.6328 7.22135 61.401 7.01562 61.1406 6.875C60.8802 6.73438 60.6042 6.66406 60.3125 6.66406C59.9792 6.66406 59.6797 6.73177 59.4141 6.86719C59.1536 6.9974 58.9323 7.18229 58.75 7.42188C58.5729 7.66146 58.4375 7.94271 58.3438 8.26562C58.25 8.58854 58.2031 8.9401 58.2031 9.32031C58.2031 9.65885 58.2448 9.98698 58.3281 10.3047C58.4115 10.6224 58.5391 10.9089 58.7109 11.1641C58.8828 11.4193 59.0964 11.6224 59.3516 11.7734C59.612 11.9193 59.9167 11.9922 60.2656 11.9922C60.5885 11.9922 60.8906 11.9297 61.1719 11.8047C61.4583 11.6745 61.7109 11.5 61.9297 11.2812C62.1536 11.0573 62.3307 10.8047 62.4609 10.5234C62.5964 10.2422 62.6745 9.94792 62.6953 9.64062H63.3828C63.3828 10.0729 63.2969 10.5 63.125 10.9219C62.9583 11.3385 62.724 11.7188 62.4219 12.0625C62.1198 12.4062 61.7656 12.6823 61.3594 12.8906C60.9531 13.0938 60.5104 13.1953 60.0312 13.1953C59.4688 13.1953 58.9818 13.0859 58.5703 12.8672C58.1589 12.6484 57.8203 12.3568 57.5547 11.9922C57.2943 11.6276 57.099 11.2214 56.9688 10.7734C56.8438 10.3203 56.7812 9.86198 56.7812 9.39844C56.7812 8.85677 56.8568 8.34896 57.0078 7.875C57.1589 7.40104 57.3828 6.98438 57.6797 6.625C57.9766 6.26042 58.3438 5.97656 58.7812 5.77344C59.224 5.57031 59.7344 5.46875 60.3125 5.46875C60.9635 5.46875 61.5182 5.59896 61.9766 5.85938C62.4349 6.11979 62.8073 6.46875 63.0938 6.90625C63.3854 7.34375 63.599 7.83594 63.7344 8.38281C63.8698 8.92969 63.9375 9.49219 63.9375 10.0703V10.5938C63.9375 11.1823 63.8984 11.7812 63.8203 12.3906C63.7474 12.9948 63.6042 13.5729 63.3906 14.125C63.1823 14.6771 62.8776 15.1719 62.4766 15.6094C62.0755 16.0417 61.5521 16.3854 60.9062 16.6406C60.2656 16.8906 59.474 17.0156 58.5312 17.0156H58.3828V15.7891ZM76.3516 14.125C76.3516 13.8594 76.3099 13.625 76.2266 13.4219C76.1484 13.2135 76.0078 13.026 75.8047 12.8594C75.6068 12.6927 75.3307 12.5339 74.9766 12.3828C74.6276 12.2318 74.1849 12.0781 73.6484 11.9219C73.0859 11.7552 72.5781 11.5703 72.125 11.3672C71.6719 11.1589 71.2839 10.9219 70.9609 10.6562C70.638 10.3906 70.3906 10.0859 70.2188 9.74219C70.0469 9.39844 69.9609 9.00521 69.9609 8.5625C69.9609 8.11979 70.0521 7.71094 70.2344 7.33594C70.4167 6.96094 70.6771 6.63542 71.0156 6.35938C71.3594 6.07812 71.7682 5.85938 72.2422 5.70312C72.7161 5.54688 73.2448 5.46875 73.8281 5.46875C74.6823 5.46875 75.4062 5.63281 76 5.96094C76.599 6.28385 77.0547 6.70833 77.3672 7.23438C77.6797 7.75521 77.8359 8.3125 77.8359 8.90625H76.3359C76.3359 8.47917 76.2448 8.10156 76.0625 7.77344C75.8802 7.4401 75.6042 7.17969 75.2344 6.99219C74.8646 6.79948 74.3958 6.70312 73.8281 6.70312C73.2917 6.70312 72.849 6.78385 72.5 6.94531C72.151 7.10677 71.8906 7.32552 71.7188 7.60156C71.5521 7.8776 71.4688 8.19271 71.4688 8.54688C71.4688 8.78646 71.5182 9.00521 71.6172 9.20312C71.7214 9.39583 71.8802 9.57552 72.0938 9.74219C72.3125 9.90885 72.5885 10.0625 72.9219 10.2031C73.2604 10.3438 73.6641 10.4792 74.1328 10.6094C74.7786 10.7917 75.3359 10.9948 75.8047 11.2188C76.2734 11.4427 76.6589 11.6953 76.9609 11.9766C77.2682 12.2526 77.4948 12.5677 77.6406 12.9219C77.7917 13.2708 77.8672 13.6667 77.8672 14.1094C77.8672 14.5729 77.7734 14.9922 77.5859 15.3672C77.3984 15.7422 77.1302 16.0625 76.7812 16.3281C76.4323 16.5938 76.013 16.7995 75.5234 16.9453C75.0391 17.0859 74.4974 17.1562 73.8984 17.1562C73.3724 17.1562 72.8542 17.0833 72.3438 16.9375C71.8385 16.7917 71.3776 16.5729 70.9609 16.2812C70.5495 15.9896 70.2188 15.6302 69.9688 15.2031C69.724 14.7708 69.6016 14.2708 69.6016 13.7031H71.1016C71.1016 14.0938 71.1771 14.4297 71.3281 14.7109C71.4792 14.987 71.6849 15.2161 71.9453 15.3984C72.2109 15.5807 72.5104 15.7161 72.8438 15.8047C73.1823 15.888 73.5339 15.9297 73.8984 15.9297C74.4245 15.9297 74.8698 15.8568 75.2344 15.7109C75.599 15.5651 75.875 15.3568 76.0625 15.0859C76.2552 14.8151 76.3516 14.4948 76.3516 14.125ZM81.0078 10.2266V17H79.5547V8.54688H80.9297L81.0078 10.2266ZM80.7109 12.4531L80.0391 12.4297C80.0443 11.8516 80.1198 11.3177 80.2656 10.8281C80.4115 10.3333 80.6276 9.90365 80.9141 9.53906C81.2005 9.17448 81.5573 8.89323 81.9844 8.69531C82.4115 8.49219 82.9062 8.39062 83.4688 8.39062C83.8646 8.39062 84.2292 8.44792 84.5625 8.5625C84.8958 8.67188 85.1849 8.84635 85.4297 9.08594C85.6745 9.32552 85.8646 9.63281 86 10.0078C86.1354 10.3828 86.2031 10.8359 86.2031 11.3672V17H84.7578V11.4375C84.7578 10.9948 84.6823 10.6406 84.5312 10.375C84.3854 10.1094 84.1771 9.91667 83.9062 9.79688C83.6354 9.67188 83.3177 9.60938 82.9531 9.60938C82.526 9.60938 82.1693 9.6849 81.8828 9.83594C81.5964 9.98698 81.3672 10.1953 81.1953 10.4609C81.0234 10.7266 80.8984 11.0312 80.8203 11.375C80.7474 11.7135 80.7109 12.0729 80.7109 12.4531ZM86.1875 11.6562L85.2188 11.9531C85.224 11.4896 85.2995 11.0443 85.4453 10.6172C85.5964 10.1901 85.8125 9.8099 86.0938 9.47656C86.3802 9.14323 86.7318 8.88021 87.1484 8.6875C87.5651 8.48958 88.0417 8.39062 88.5781 8.39062C89.0312 8.39062 89.4323 8.45052 89.7812 8.57031C90.1354 8.6901 90.4323 8.875 90.6719 9.125C90.9167 9.36979 91.1016 9.6849 91.2266 10.0703C91.3516 10.4557 91.4141 10.9141 91.4141 11.4453V17H89.9609V11.4297C89.9609 10.9557 89.8854 10.5885 89.7344 10.3281C89.5885 10.0625 89.3802 9.8776 89.1094 9.77344C88.8438 9.66406 88.526 9.60938 88.1562 9.60938C87.8385 9.60938 87.5573 9.66406 87.3125 9.77344C87.0677 9.88281 86.862 10.0339 86.6953 10.2266C86.5286 10.4141 86.401 10.6302 86.3125 10.875C86.2292 11.1198 86.1875 11.3802 86.1875 11.6562ZM95.1719 8.54688V17H93.7188V8.54688H95.1719ZM93.6094 6.30469C93.6094 6.07031 93.6797 5.8724 93.8203 5.71094C93.9661 5.54948 94.1797 5.46875 94.4609 5.46875C94.737 5.46875 94.9479 5.54948 95.0938 5.71094C95.2448 5.8724 95.3203 6.07031 95.3203 6.30469C95.3203 6.52865 95.2448 6.72135 95.0938 6.88281C94.9479 7.03906 94.737 7.11719 94.4609 7.11719C94.1797 7.11719 93.9661 7.03906 93.8203 6.88281C93.6797 6.72135 93.6094 6.52865 93.6094 6.30469ZM101.031 8.54688V9.65625H96.4609V8.54688H101.031ZM98.0078 6.49219H99.4531V14.9062C99.4531 15.1927 99.4974 15.4089 99.5859 15.5547C99.6745 15.7005 99.7891 15.7969 99.9297 15.8438C100.07 15.8906 100.221 15.9141 100.383 15.9141C100.503 15.9141 100.628 15.9036 100.758 15.8828C100.893 15.8568 100.995 15.8359 101.062 15.8203L101.07 17C100.956 17.0365 100.805 17.0703 100.617 17.1016C100.435 17.138 100.214 17.1562 99.9531 17.1562C99.599 17.1562 99.2734 17.0859 98.9766 16.9453C98.6797 16.8047 98.4427 16.5703 98.2656 16.2422C98.0938 15.9089 98.0078 15.4609 98.0078 14.8984V6.49219ZM105.102 16.125L107.453 8.54688H109L105.609 18.3047C105.531 18.513 105.427 18.737 105.297 18.9766C105.172 19.2214 105.01 19.4531 104.812 19.6719C104.615 19.8906 104.375 20.0677 104.094 20.2031C103.818 20.3438 103.487 20.4141 103.102 20.4141C102.987 20.4141 102.841 20.3984 102.664 20.3672C102.487 20.3359 102.362 20.3099 102.289 20.2891L102.281 19.1172C102.323 19.1224 102.388 19.1276 102.477 19.1328C102.57 19.1432 102.635 19.1484 102.672 19.1484C103 19.1484 103.279 19.1042 103.508 19.0156C103.737 18.9323 103.93 18.7891 104.086 18.5859C104.247 18.388 104.385 18.1146 104.5 17.7656L105.102 16.125ZM103.375 8.54688L105.57 15.1094L105.945 16.6328L104.906 17.1641L101.797 8.54688H103.375ZM116 5.625V17H114.492V5.625H116ZM120.766 10.7422V11.9766H115.672V10.7422H120.766ZM121.539 5.625V6.85938H115.672V5.625H121.539ZM124.688 8.54688V17H123.234V8.54688H124.688ZM123.125 6.30469C123.125 6.07031 123.195 5.8724 123.336 5.71094C123.482 5.54948 123.695 5.46875 123.977 5.46875C124.253 5.46875 124.464 5.54948 124.609 5.71094C124.76 5.8724 124.836 6.07031 124.836 6.30469C124.836 6.52865 124.76 6.72135 124.609 6.88281C124.464 7.03906 124.253 7.11719 123.977 7.11719C123.695 7.11719 123.482 7.03906 123.336 6.88281C123.195 6.72135 123.125 6.52865 123.125 6.30469ZM130.516 17.1562C129.927 17.1562 129.393 17.0573 128.914 16.8594C128.44 16.6562 128.031 16.3724 127.688 16.0078C127.349 15.6432 127.089 15.2109 126.906 14.7109C126.724 14.2109 126.633 13.6641 126.633 13.0703V12.7422C126.633 12.0547 126.734 11.4427 126.938 10.9062C127.141 10.3646 127.417 9.90625 127.766 9.53125C128.115 9.15625 128.51 8.8724 128.953 8.67969C129.396 8.48698 129.854 8.39062 130.328 8.39062C130.932 8.39062 131.453 8.49479 131.891 8.70312C132.333 8.91146 132.695 9.20312 132.977 9.57812C133.258 9.94792 133.466 10.3854 133.602 10.8906C133.737 11.3906 133.805 11.9375 133.805 12.5312V13.1797H127.492V12H132.359V11.8906C132.339 11.5156 132.26 11.151 132.125 10.7969C131.995 10.4427 131.786 10.151 131.5 9.92188C131.214 9.69271 130.823 9.57812 130.328 9.57812C130 9.57812 129.698 9.64844 129.422 9.78906C129.146 9.92448 128.909 10.1276 128.711 10.3984C128.513 10.6693 128.359 11 128.25 11.3906C128.141 11.7812 128.086 12.2318 128.086 12.7422V13.0703C128.086 13.4714 128.141 13.849 128.25 14.2031C128.365 14.5521 128.529 14.8594 128.742 15.125C128.961 15.3906 129.224 15.599 129.531 15.75C129.844 15.901 130.198 15.9766 130.594 15.9766C131.104 15.9766 131.536 15.8724 131.891 15.6641C132.245 15.4557 132.555 15.1771 132.82 14.8281L133.695 15.5234C133.513 15.7995 133.281 16.0625 133 16.3125C132.719 16.5625 132.372 16.7656 131.961 16.9219C131.555 17.0781 131.073 17.1562 130.516 17.1562ZM137.062 5V17H135.609V5H137.062ZM144.711 15.3594V5H146.164V17H144.836L144.711 15.3594ZM139.023 12.8672V12.7031C139.023 12.0573 139.102 11.4714 139.258 10.9453C139.419 10.4141 139.646 9.95833 139.938 9.57812C140.234 9.19792 140.586 8.90625 140.992 8.70312C141.404 8.49479 141.862 8.39062 142.367 8.39062C142.898 8.39062 143.362 8.48438 143.758 8.67188C144.159 8.85417 144.497 9.1224 144.773 9.47656C145.055 9.82552 145.276 10.2474 145.438 10.7422C145.599 11.237 145.711 11.7969 145.773 12.4219V13.1406C145.716 13.7604 145.604 14.3177 145.438 14.8125C145.276 15.3073 145.055 15.7292 144.773 16.0781C144.497 16.4271 144.159 16.6953 143.758 16.8828C143.357 17.0651 142.888 17.1562 142.352 17.1562C141.857 17.1562 141.404 17.0495 140.992 16.8359C140.586 16.6224 140.234 16.3229 139.938 15.9375C139.646 15.5521 139.419 15.099 139.258 14.5781C139.102 14.0521 139.023 13.4818 139.023 12.8672ZM140.477 12.7031V12.8672C140.477 13.2891 140.518 13.6849 140.602 14.0547C140.69 14.4245 140.826 14.75 141.008 15.0312C141.19 15.3125 141.422 15.5339 141.703 15.6953C141.984 15.8516 142.32 15.9297 142.711 15.9297C143.19 15.9297 143.583 15.8281 143.891 15.625C144.203 15.4219 144.453 15.1536 144.641 14.8203C144.828 14.487 144.974 14.125 145.078 13.7344V11.8516C145.016 11.5651 144.924 11.2891 144.805 11.0234C144.69 10.7526 144.539 10.513 144.352 10.3047C144.169 10.0911 143.943 9.92188 143.672 9.79688C143.406 9.67188 143.091 9.60938 142.727 9.60938C142.331 9.60938 141.99 9.69271 141.703 9.85938C141.422 10.0208 141.19 10.2448 141.008 10.5312C140.826 10.8125 140.69 11.1406 140.602 11.5156C140.518 11.8854 140.477 12.2812 140.477 12.7031ZM153.398 15.5547V11.2031C153.398 10.8698 153.331 10.5807 153.195 10.3359C153.065 10.0859 152.867 9.89323 152.602 9.75781C152.336 9.6224 152.008 9.55469 151.617 9.55469C151.253 9.55469 150.932 9.61719 150.656 9.74219C150.385 9.86719 150.172 10.0312 150.016 10.2344C149.865 10.4375 149.789 10.6562 149.789 10.8906H148.344C148.344 10.5885 148.422 10.2891 148.578 9.99219C148.734 9.69531 148.958 9.42708 149.25 9.1875C149.547 8.94271 149.901 8.75 150.312 8.60938C150.729 8.46354 151.193 8.39062 151.703 8.39062C152.318 8.39062 152.859 8.49479 153.328 8.70312C153.802 8.91146 154.172 9.22656 154.438 9.64844C154.708 10.0651 154.844 10.5885 154.844 11.2188V15.1562C154.844 15.4375 154.867 15.737 154.914 16.0547C154.966 16.3724 155.042 16.6458 155.141 16.875V17H153.633C153.56 16.8333 153.503 16.612 153.461 16.3359C153.419 16.0547 153.398 15.7943 153.398 15.5547ZM153.648 11.875L153.664 12.8906H152.203C151.792 12.8906 151.424 12.9245 151.102 12.9922C150.779 13.0547 150.508 13.151 150.289 13.2812C150.07 13.4115 149.904 13.5755 149.789 13.7734C149.674 13.9661 149.617 14.1927 149.617 14.4531C149.617 14.7188 149.677 14.9609 149.797 15.1797C149.917 15.3984 150.096 15.5729 150.336 15.7031C150.581 15.8281 150.88 15.8906 151.234 15.8906C151.677 15.8906 152.068 15.7969 152.406 15.6094C152.745 15.4219 153.013 15.1927 153.211 14.9219C153.414 14.651 153.523 14.388 153.539 14.1328L154.156 14.8281C154.12 15.0469 154.021 15.2891 153.859 15.5547C153.698 15.8203 153.482 16.0755 153.211 16.3203C152.945 16.5599 152.628 16.7604 152.258 16.9219C151.893 17.0781 151.482 17.1562 151.023 17.1562C150.451 17.1562 149.948 17.0443 149.516 16.8203C149.089 16.5964 148.755 16.2969 148.516 15.9219C148.281 15.5417 148.164 15.1172 148.164 14.6484C148.164 14.1953 148.253 13.7969 148.43 13.4531C148.607 13.1042 148.862 12.8151 149.195 12.5859C149.529 12.3516 149.93 12.1745 150.398 12.0547C150.867 11.9349 151.391 11.875 151.969 11.875H153.648ZM158.43 15.2812V16.4453C158.43 16.9193 158.31 17.4193 158.07 17.9453C157.831 18.4766 157.495 18.9193 157.062 19.2734L156.242 18.7031C156.409 18.474 156.549 18.2396 156.664 18C156.779 17.7656 156.865 17.5208 156.922 17.2656C156.984 17.0156 157.016 16.75 157.016 16.4688V15.2812H158.43ZM173.211 5.625V17H171.695L165.969 8.22656V17H164.461V5.625H165.969L171.719 14.4219V5.625H173.211ZM179.172 17.1562C178.583 17.1562 178.049 17.0573 177.57 16.8594C177.096 16.6562 176.688 16.3724 176.344 16.0078C176.005 15.6432 175.745 15.2109 175.562 14.7109C175.38 14.2109 175.289 13.6641 175.289 13.0703V12.7422C175.289 12.0547 175.391 11.4427 175.594 10.9062C175.797 10.3646 176.073 9.90625 176.422 9.53125C176.771 9.15625 177.167 8.8724 177.609 8.67969C178.052 8.48698 178.51 8.39062 178.984 8.39062C179.589 8.39062 180.109 8.49479 180.547 8.70312C180.99 8.91146 181.352 9.20312 181.633 9.57812C181.914 9.94792 182.122 10.3854 182.258 10.8906C182.393 11.3906 182.461 11.9375 182.461 12.5312V13.1797H176.148V12H181.016V11.8906C180.995 11.5156 180.917 11.151 180.781 10.7969C180.651 10.4427 180.443 10.151 180.156 9.92188C179.87 9.69271 179.479 9.57812 178.984 9.57812C178.656 9.57812 178.354 9.64844 178.078 9.78906C177.802 9.92448 177.565 10.1276 177.367 10.3984C177.169 10.6693 177.016 11 176.906 11.3906C176.797 11.7812 176.742 12.2318 176.742 12.7422V13.0703C176.742 13.4714 176.797 13.849 176.906 14.2031C177.021 14.5521 177.185 14.8594 177.398 15.125C177.617 15.3906 177.88 15.599 178.188 15.75C178.5 15.901 178.854 15.9766 179.25 15.9766C179.76 15.9766 180.193 15.8724 180.547 15.6641C180.901 15.4557 181.211 15.1771 181.477 14.8281L182.352 15.5234C182.169 15.7995 181.938 16.0625 181.656 16.3125C181.375 16.5625 181.029 16.7656 180.617 16.9219C180.211 17.0781 179.729 17.1562 179.172 17.1562ZM186.289 15.5L188.461 8.54688H189.414L189.227 9.92969L187.016 17H186.086L186.289 15.5ZM184.828 8.54688L186.68 15.5781L186.812 17H185.836L183.383 8.54688H184.828ZM191.492 15.5234L193.258 8.54688H194.695L192.242 17H191.273L191.492 15.5234ZM189.625 8.54688L191.75 15.3828L191.992 17H191.07L188.797 9.91406L188.609 8.54688H189.625ZM200.891 5.625L203.844 11.3359L206.805 5.625H208.516L204.594 12.75V17H203.086V12.75L199.164 5.625H200.891ZM208.859 12.8672V12.6875C208.859 12.0781 208.948 11.513 209.125 10.9922C209.302 10.4661 209.557 10.0104 209.891 9.625C210.224 9.23438 210.628 8.93229 211.102 8.71875C211.576 8.5 212.107 8.39062 212.695 8.39062C213.289 8.39062 213.823 8.5 214.297 8.71875C214.776 8.93229 215.182 9.23438 215.516 9.625C215.854 10.0104 216.112 10.4661 216.289 10.9922C216.466 11.513 216.555 12.0781 216.555 12.6875V12.8672C216.555 13.4766 216.466 14.0417 216.289 14.5625C216.112 15.0833 215.854 15.5391 215.516 15.9297C215.182 16.3151 214.779 16.6172 214.305 16.8359C213.836 17.0495 213.305 17.1562 212.711 17.1562C212.117 17.1562 211.583 17.0495 211.109 16.8359C210.635 16.6172 210.229 16.3151 209.891 15.9297C209.557 15.5391 209.302 15.0833 209.125 14.5625C208.948 14.0417 208.859 13.4766 208.859 12.8672ZM210.305 12.6875V12.8672C210.305 13.2891 210.354 13.6875 210.453 14.0625C210.552 14.4323 210.701 14.7604 210.898 15.0469C211.102 15.3333 211.354 15.5599 211.656 15.7266C211.958 15.888 212.31 15.9688 212.711 15.9688C213.107 15.9688 213.453 15.888 213.75 15.7266C214.052 15.5599 214.302 15.3333 214.5 15.0469C214.698 14.7604 214.846 14.4323 214.945 14.0625C215.049 13.6875 215.102 13.2891 215.102 12.8672V12.6875C215.102 12.2708 215.049 11.8776 214.945 11.5078C214.846 11.1328 214.695 10.8021 214.492 10.5156C214.294 10.224 214.044 9.99479 213.742 9.82812C213.445 9.66146 213.096 9.57812 212.695 9.57812C212.299 9.57812 211.951 9.66146 211.648 9.82812C211.352 9.99479 211.102 10.224 210.898 10.5156C210.701 10.8021 210.552 11.1328 210.453 11.5078C210.354 11.8776 210.305 12.2708 210.305 12.6875ZM219.812 9.875V17H218.367V8.54688H219.773L219.812 9.875ZM222.453 8.5L222.445 9.84375C222.326 9.81771 222.211 9.80208 222.102 9.79688C221.997 9.78646 221.878 9.78125 221.742 9.78125C221.409 9.78125 221.115 9.83333 220.859 9.9375C220.604 10.0417 220.388 10.1875 220.211 10.375C220.034 10.5625 219.893 10.7865 219.789 11.0469C219.69 11.3021 219.625 11.5833 219.594 11.8906L219.188 12.125C219.188 11.6146 219.237 11.1354 219.336 10.6875C219.44 10.2396 219.599 9.84375 219.812 9.5C220.026 9.15104 220.297 8.88021 220.625 8.6875C220.958 8.48958 221.354 8.39062 221.812 8.39062C221.917 8.39062 222.036 8.40365 222.172 8.42969C222.307 8.45052 222.401 8.47396 222.453 8.5ZM225.242 5V17H223.789V5H225.242ZM230.406 8.54688L226.719 12.4922L224.656 14.6328L224.539 13.0938L226.016 11.3281L228.641 8.54688H230.406ZM229.086 17L226.07 12.9688L226.82 11.6797L230.789 17H229.086Z" fill="#65665C"/>
<path d="M9.8125 11.1875C10.1458 11.5 10.5417 11.6562 11 11.6562C11.4583 11.6562 11.8438 11.5 12.1562 11.1875C12.4896 10.8542 12.6562 10.4583 12.6562 10C12.6562 9.54167 12.4896 9.15625 12.1562 8.84375C11.8438 8.51042 11.4583 8.34375 11 8.34375C10.5417 8.34375 10.1458 8.51042 9.8125 8.84375C9.5 9.15625 9.34375 9.54167 9.34375 10C9.34375 10.4583 9.5 10.8542 9.8125 11.1875ZM7.6875 6.71875C8.60417 5.80208 9.70833 5.34375 11 5.34375C12.2917 5.34375 13.3854 5.80208 14.2812 6.71875C15.1979 7.61458 15.6562 8.70833 15.6562 10C15.6562 10.6458 15.4896 11.3854 15.1562 12.2188C14.8438 13.0521 14.4583 13.8333 14 14.5625C13.5417 15.2917 13.0833 15.9792 12.625 16.625C12.1875 17.25 11.8125 17.75 11.5 18.125L11 18.6562C10.875 18.5104 10.7083 18.3229 10.5 18.0938C10.2917 17.8438 9.91667 17.3646 9.375 16.6562C8.83333 15.9271 8.35417 15.2292 7.9375 14.5625C7.54167 13.875 7.17708 13.1042 6.84375 12.25C6.51042 11.3958 6.34375 10.6458 6.34375 10C6.34375 8.70833 6.79167 7.61458 7.6875 6.71875Z" fill="#65665C"/>
</svg>
